SplineFontDB: 3.0
FontName: BigPixelDemo
FullName: Big Pixel Demo
FamilyName: Big Pixel Demo
Weight: Book
Copyright: Typeface (c) StudioTypo. 2017. All Rights Reserved
Version: 1.00 January 24, 2017, initial release
ItalicAngle: 0
UnderlinePosition: -292
UnderlineWidth: 150
Ascent: 1638
Descent: 410
InvalidEm: 0
sfntRevision: 0x00010000
LayerCount: 2
Layer: 0 1 "Back" 1
Layer: 1 1 "Fore" 0
XUID: [1021 884 -407783003 14668]
StyleMap: 0x0040
FSType: 2
OS2Version: 3
OS2_WeightWidthSlopeOnly: 0
OS2_UseTypoMetrics: 0
CreationTime: 1484677489
ModificationTime: 1486384700
PfmFamily: 17
TTFWeight: 400
TTFWidth: 5
LineGap: 21
VLineGap: 0
Panose: 2 0 5 0 0 0 0 0 0 0
OS2TypoAscent: 1537
OS2TypoAOffset: 0
OS2TypoDescent: -381
OS2TypoDOffset: 0
OS2TypoLinegap: 205
OS2WinAscent: 2097
OS2WinAOffset: 0
OS2WinDescent: 575
OS2WinDOffset: 0
HheadAscent: 2097
HheadAOffset: 0
HheadDescent: -575
HheadDOffset: 0
OS2SubXSize: 1424
OS2SubYSize: 1282
OS2SubXOff: 0
OS2SubYOff: 481
OS2SupXSize: 1424
OS2SupYSize: 1282
OS2SupXOff: 0
OS2SupYOff: 575
OS2StrikeYSize: 102
OS2StrikeYPos: 530
OS2CapHeight: 1537
OS2XHeight: 1157
OS2Vendor: 'STPO'
OS2CodePages: 00000093.00000000
OS2UnicodeRanges: 800000e7.00000043.00000000.00000000
Lookup: 1 0 0 "'sinf' Scientific Inferiors in Latin lookup 0" { "'sinf' Scientific Inferiors in Latin lookup 0 subtable"  } ['sinf' ('latn' <'dflt' > ) ]
Lookup: 1 0 0 "'frac' Diagonal Fractions in Latin lookup 1" { "'frac' Diagonal Fractions in Latin lookup 1 subtable"  } ['frac' ('latn' <'dflt' > ) ]
Lookup: 4 0 0 "'frac' Diagonal Fractions in Latin lookup 2" { "'frac' Diagonal Fractions in Latin lookup 2 subtable"  } ['frac' ('latn' <'dflt' > ) ]
Lookup: 1 0 0 "'hist' Historical Forms in Latin lookup 3" { "'hist' Historical Forms in Latin lookup 3 subtable"  } ['hist' ('latn' <'dflt' > ) ]
DEI: 91125
ShortTable: maxp 16
  1
  0
  377
  1280
  65
  56
  4
  0
  0
  0
  0
  0
  0
  0
  3
  2
EndShort

StartChar: .notdef
Encoding: 65536 -1 0
Width: 1547
Flags: W
LayerCount: 2
Fore
SplineSet
100 -282 m 1,0,-1
 100 1428 l 1,1,-1
 1435 1428 l 1,2,-1
 1435 -282 l 1,3,-1
 100 -282 l 1,0,-1
135 -242 m 1,4,-1
 1399 -242 l 1,5,-1
 1399 1398 l 1,6,-1
 135 1398 l 1,7,-1
 135 -242 l 1,4,-1
725 471 m 1,8,-1
 728 471 l 1,9,-1
 739 470 l 1,10,-1
 739 452 l 2,11,12
 741 382 741 382 741 326 c 1,13,-1
 734 324 l 1,14,-1
 728 324 l 1,15,16
 725 395 725 395 725 462 c 2,17,-1
 725 465 l 1,18,-1
 725 471 l 1,8,-1
1224 471 m 1,19,-1
 1225 471 l 1,20,-1
 1239 470 l 1,21,22
 1238 461 1238 461 1238 457 c 0,23,24
 1238 402 1238 402 1241 326 c 1,25,-1
 1230 324 l 1,26,-1
 1226 324 l 1,27,28
 1224 382 1224 382 1223 453 c 0,29,30
 1224 465 1224 465 1224 471 c 1,19,-1
790 466 m 1,31,-1
 794 466 l 2,32,33
 794 464 794 464 801 454 c 1,34,35
 797 436 797 436 797 424 c 2,36,-1
 797 406 l 2,37,38
 797 362 797 362 812 348 c 1,39,-1
 813 348 l 2,40,41
 834 348 834 348 848 465 c 1,42,-1
 850 465 l 1,43,44
 862 461 862 461 863 461 c 1,45,46
 857 403 857 403 857 375 c 0,47,48
 857 344 857 344 869 344 c 1,49,50
 871 328 871 328 871 324 c 1,51,-1
 863 324 l 2,52,53
 850 324 850 324 843 356 c 1,54,-1
 842 356 l 1,55,56
 831 328 831 328 815 328 c 2,57,-1
 810 328 l 2,58,59
 790 328 790 328 783 389 c 0,60,61
 782 393 782 393 782 411 c 2,62,-1
 782 422 l 2,63,64
 782 447 782 447 790 466 c 1,31,-1
1094 466 m 2,65,-1
 1100 466 l 2,66,67
 1112 466 1112 466 1128 438 c 0,68,69
 1140 416 1140 416 1140 394 c 2,70,-1
 1140 385 l 2,71,72
 1140 348 1140 348 1100 327 c 0,73,74
 1093 324 1093 324 1086 324 c 2,75,-1
 1079 324 l 2,76,77
 1049 324 1049 324 1044 367 c 1,78,-1
 1044 376 l 2,79,80
 1044 426 1044 426 1084 464 c 1,81,82
 1092 466 1092 466 1094 466 c 2,65,-1
249 462 m 2,83,-1
 258 462 l 1,84,85
 286 457 286 457 286 422 c 0,86,87
 286 388 286 388 253 373 c 0,88,89
 241 368 241 368 226 366 c 1,90,-1
 226 329 l 1,91,-1
 225 329 l 2,92,93
 220 329 220 329 211 332 c 1,94,-1
 211 366 l 1,95,-1
 206 366 l 1,96,-1
 201 367 l 1,97,98
 201 378 201 378 206 386 c 1,99,-1
 211 386 l 1,100,-1
 211 386 l 1,101,102
 211 427 211 427 205 427 c 1,103,104
 199 434 199 434 199 438 c 0,105,106
 217 462 217 462 249 462 c 2,83,-1
1059 376 m 2,107,-1
 1059 368 l 2,108,109
 1059 347 1059 347 1084 344 c 0,110,111
 1106 344 1106 344 1121 371 c 0,112,113
 1126 379 1126 379 1126 389 c 2,114,-1
 1126 392 l 2,115,116
 1126 419 1126 419 1100 445 c 0,117,118
 1097 445 1097 445 1097 447 c 1,119,120
 1080 447 1080 447 1062 397 c 0,121,122
 1059 386 1059 386 1059 376 c 2,107,-1
224 435 m 0,123,124
 225 400 225 400 225 388 c 1,125,126
 226 388 226 388 226 386 c 1,127,128
 255 392 255 392 263 403 c 0,129,130
 271 413 271 413 271 421 c 0,131,132
 271 439 271 439 256 442 c 2,133,-1
 250 442 l 2,134,135
 224 439 224 439 224 435 c 0,123,124
404 438 m 0,136,137
 423 438 423 438 432 389 c 1,138,139
 431 389 431 389 417 385 c 1,140,141
 411 418 411 418 404 418 c 0,142,143
 387 409 387 409 384 343 c 0,144,145
 385 329 385 329 385 328 c 0,146,147
 375 326 375 326 370 326 c 1,148,149
 357 395 357 395 357 413 c 1,150,151
 369 415 369 415 372 415 c 2,152,-1
 372 414 l 2,153,154
 372 410 372 410 375 395 c 1,155,-1
 376 395 l 1,156,157
 386 438 386 438 404 438 c 0,136,137
537 432 m 0,158,159
 557 432 557 432 570 400 c 0,160,161
 572 391 572 391 572 383 c 2,162,-1
 572 380 l 2,163,164
 572 344 572 344 537 327 c 0,165,166
 532 326 532 326 528 326 c 0,167,168
 501 330 501 330 501 364 c 0,169,170
 501 414 501 414 526 429 c 0,171,172
 528 430 528 430 537 432 c 0,158,159
614 432 m 0,173,174
 633 432 633 432 650 343 c 0,175,176
 651 343 651 343 651 336 c 1,177,178
 643 329 643 329 639 329 c 0,179,180
 624 391 624 391 616 409 c 1,181,182
 607 396 607 396 598 339 c 0,183,184
 597 339 597 339 593 329 c 1,185,-1
 586 329 l 2,186,187
 579 329 579 329 577 386 c 0,188,189
 575 400 575 400 575 409 c 1,190,191
 582 411 582 411 589 411 c 1,192,193
 592 394 592 394 592 391 c 2,194,-1
 593 391 l 1,195,196
 600 432 600 432 614 432 c 0,173,174
1185 432 m 0,197,198
 1201 432 1201 432 1220 336 c 1,199,200
 1211 329 1211 329 1207 329 c 0,201,202
 1192 395 1192 395 1183 409 c 1,203,204
 1177 397 1177 397 1164 335 c 0,205,206
 1161 329 1161 329 1160 329 c 2,207,-1
 1154 329 l 2,208,209
 1147 329 1147 329 1144 409 c 1,210,211
 1150 411 1150 411 1159 411 c 1,212,213
 1160 392 1160 392 1160 389 c 2,214,-1
 1161 389 l 1,215,216
 1168 432 1168 432 1185 432 c 0,197,198
472 430 m 1,217,218
 490 425 490 425 490 413 c 2,219,-1
 490 412 l 2,220,221
 490 410 490 410 480 404 c 1,222,-1
 479 404 l 1,223,224
 475 411 475 411 466 411 c 0,225,226
 453 411 453 411 450 400 c 0,227,228
 450 395 450 395 479 394 c 1,229,230
 499 383 499 383 499 360 c 0,231,232
 499 335 499 335 479 326 c 2,233,-1
 471 324 l 1,234,-1
 466 324 l 2,235,236
 442 324 442 324 432 347 c 1,237,-1
 432 348 l 2,238,239
 433 351 433 351 441 359 c 1,240,-1
 442 359 l 1,241,242
 454 344 454 344 470 344 c 1,243,244
 484 348 484 348 484 360 c 0,245,246
 480 375 480 375 463 375 c 0,247,248
 435 375 435 375 435 397 c 2,249,-1
 435 400 l 2,250,251
 435 430 435 430 472 430 c 1,217,218
912 430 m 0,252,253
 925 430 925 430 932 412 c 1,254,-1
 932 411 l 1,255,256
 921 404 921 404 918 404 c 1,257,258
 918 410 918 410 907 411 c 0,259,260
 895 411 895 411 890 401 c 1,261,-1
 890 400 l 2,262,263
 890 395 890 395 919 394 c 1,264,265
 938 385 938 385 938 358 c 0,266,267
 938 332 938 332 914 324 c 1,268,-1
 906 324 l 2,269,270
 883 324 883 324 871 347 c 1,271,-1
 871 348 l 1,272,273
 879 359 879 359 881 359 c 2,274,-1
 882 359 l 1,275,276
 894 344 894 344 909 344 c 1,277,278
 923 348 923 348 923 360 c 256,279,280
 923 372 923 372 907 375 c 0,281,282
 882 375 882 375 877 386 c 0,283,284
 875 397 875 397 875 400 c 0,285,286
 875 430 875 430 912 430 c 0,252,253
1249 429 m 1,287,-1
 1249 429 l 1,288,289
 1262 427 1262 427 1263 427 c 1,290,291
 1262 409 1262 409 1262 401 c 2,292,-1
 1262 392 l 2,293,294
 1264 357 1264 357 1275 357 c 2,295,-1
 1276 357 l 1,296,297
 1294 370 1294 370 1294 424 c 1,298,-1
 1294 424 l 1,299,-1
 1309 424 l 1,300,-1
 1309 421 l 1,301,302
 1316 343 1316 343 1316 333 c 0,303,304
 1316 287 1316 287 1286 277 c 0,305,306
 1284 277 1284 277 1281 277 c 2,307,-1
 1276 277 l 2,308,309
 1258 277 1258 277 1253 296 c 0,310,311
 1252 301 1252 301 1252 306 c 1,312,-1
 1252 306 l 1,313,314
 1252 321 1252 321 1255 321 c 2,315,-1
 1256 321 l 1,316,317
 1265 315 1265 315 1268 315 c 2,318,-1
 1267 306 l 2,319,320
 1267 298 1267 298 1276 297 c 2,321,-1
 1278 297 l 2,322,323
 1301 297 1301 297 1301 339 c 0,324,325
 1301 344 1301 344 1300 360 c 1,326,-1
 1299 360 l 1,327,328
 1291 336 1291 336 1273 336 c 2,329,-1
 1272 336 l 2,330,331
 1253 336 1253 336 1247 383 c 1,332,-1
 1247 400 l 2,333,334
 1247 410 1247 410 1249 429 c 1,287,-1
331 428 m 1,335,336
 354 424 354 424 354 406 c 2,337,-1
 354 400 l 2,338,339
 354 380 354 380 315 364 c 1,340,-1
 305 364 l 1,341,342
 305 353 305 353 322 348 c 0,343,344
 333 348 333 348 343 366 c 1,345,-1
 347 366 l 1,346,347
 355 354 355 354 355 351 c 0,348,349
 338 329 338 329 325 329 c 2,350,-1
 318 329 l 2,351,352
 292 329 292 329 288 374 c 0,353,354
 288 414 288 414 320 427 c 1,355,-1
 331 428 l 1,335,336
681 428 m 2,356,-1
 692 428 l 1,357,358
 719 419 719 419 719 383 c 0,359,360
 718 362 718 362 718 348 c 2,361,362
 718 348 718 348 720 332 c 1,363,364
 711 324 711 324 707 324 c 2,365,-1
 706 324 l 1,366,-1
 704 335 l 1,367,368
 692 327 692 327 681 327 c 2,369,-1
 674 327 l 2,370,371
 652 330 652 330 652 348 c 2,372,-1
 652 356 l 2,373,374
 652 386 652 386 684 391 c 0,375,376
 695 390 695 390 704 385 c 1,377,-1
 704 386 l 1,378,379
 700 411 700 411 687 411 c 0,380,381
 678 411 678 411 669 401 c 1,382,-1
 666 401 l 2,383,384
 664 402 664 402 658 412 c 1,385,-1
 658 414 l 1,386,387
 670 428 670 428 681 428 c 2,356,-1
983 428 m 1,388,389
 1007 424 1007 424 1007 405 c 0,390,391
 1007 376 1007 376 965 364 c 1,392,-1
 958 364 l 1,393,-1
 958 362 l 1,394,395
 965 348 965 348 974 348 c 0,396,397
 984 348 984 348 997 366 c 1,398,-1
 998 366 l 2,399,400
 999 366 999 366 1007 354 c 1,401,402
 1007 345 1007 345 986 332 c 0,403,404
 982 329 982 329 977 329 c 2,405,-1
 970 329 l 2,406,407
 946 329 946 329 941 373 c 1,408,409
 941 413 941 413 971 427 c 1,410,-1
 983 428 l 1,388,389
516 365 m 0,411,412
 518 347 518 347 528 347 c 2,413,-1
 531 347 l 1,414,415
 555 354 555 354 557 382 c 2,416,-1
 557 385 l 1,417,418
 551 411 551 411 537 411 c 2,419,-1
 535 411 l 2,420,421
 522 411 522 411 517 379 c 0,422,423
 516 372 516 372 516 365 c 0,411,412
305 385 m 1,424,425
 324 385 324 385 338 403 c 1,426,-1
 338 405 l 1,427,428
 331 407 331 407 329 407 c 0,429,430
 313 407 313 407 305 388 c 1,431,-1
 305 385 l 1,424,425
958 385 m 1,432,-1
 961 385 l 2,433,434
 978 385 978 385 992 404 c 1,435,436
 986 407 986 407 983 407 c 2,437,-1
 980 407 l 2,438,439
 964 407 964 407 958 386 c 1,440,-1
 958 385 l 1,432,-1
667 354 m 2,441,-1
 667 351 l 2,442,443
 667 348 667 348 677 345 c 0,444,445
 694 345 694 345 702 362 c 1,446,447
 694 369 694 369 683 369 c 0,448,449
 667 366 667 366 667 354 c 2,441,-1
618 254 m 2,450,451
 631 254 631 254 633 220 c 2,452,-1
 633 217 l 1,453,-1
 627 216 l 1,454,-1
 625 216 l 1,455,456
 622 237 622 237 617 237 c 0,457,458
 611 237 611 237 609 218 c 0,459,460
 610 216 610 216 610 214 c 0,461,462
 610 204 610 204 612 175 c 1,463,464
 617 178 617 178 621 178 c 2,465,-1
 624 178 l 1,466,-1
 624 163 l 1,467,-1
 613 160 l 1,468,469
 618 103 618 103 618 91 c 1,470,-1
 607 91 l 1,471,472
 603 145 603 145 603 156 c 1,473,-1
 602 156 l 2,474,475
 597 154 597 154 592 154 c 1,476,-1
 592 171 l 1,477,478
 598 171 598 171 602 173 c 1,479,480
 599 194 599 194 599 225 c 0,481,482
 602 254 602 254 616 254 c 2,483,-1
 618 254 l 2,450,451
816 254 m 0,484,485
 828 254 828 254 832 217 c 1,486,-1
 824 216 l 1,487,-1
 822 216 l 1,488,-1
 822 217 l 2,489,490
 822 232 822 232 815 237 c 1,491,492
 807 232 807 232 807 222 c 0,493,494
 807 214 807 214 810 176 c 2,495,496
 810 176 810 176 810 175 c 1,497,498
 815 178 815 178 820 178 c 2,499,-1
 821 178 l 1,500,-1
 822 170 l 1,501,-1
 822 163 l 2,502,503
 821 163 821 163 810 160 c 1,504,-1
 812 157 l 1,505,506
 812 145 812 145 816 91 c 1,507,-1
 805 91 l 1,508,509
 805 97 805 97 801 156 c 1,510,511
 792 154 792 154 789 154 c 2,512,-1
 789 171 l 1,513,-1
 800 172 l 1,514,515
 797 218 797 218 797 224 c 0,516,517
 797 254 797 254 816 254 c 0,484,485
709 237 m 1,518,-1
 713 237 l 1,519,-1
 719 237 l 1,520,-1
 719 228 l 2,521,522
 719 167 719 167 722 96 c 1,523,-1
 711 96 l 1,524,525
 709 161 709 161 709 198 c 2,526,-1
 709 237 l 1,518,-1
735 237 m 2,527,-1
 736 237 l 1,528,-1
 744 237 l 1,529,-1
 744 207 l 2,530,531
 744 175 744 175 747 96 c 1,532,-1
 736 96 l 1,533,534
 733 162 733 162 733 232 c 2,535,-1
 733 235 l 2,536,537
 733 237 733 237 735 237 c 2,527,-1
529 234 m 0,538,539
 537 232 537 232 539 232 c 1,540,541
 537 203 537 203 537 190 c 1,542,-1
 539 190 l 1,543,-1
 551 192 l 1,544,-1
 551 175 l 2,545,546
 550 175 550 175 537 173 c 1,547,-1
 541 99 l 1,548,-1
 539 97 l 1,549,-1
 531 97 l 1,550,551
 528 126 528 126 526 172 c 1,552,-1
 513 172 l 1,553,-1
 513 188 l 1,554,-1
 524 189 l 1,555,-1
 526 189 l 1,556,-1
 526 207 l 2,557,558
 526 234 526 234 529 234 c 0,538,539
994 234 m 0,559,560
 997 234 997 234 1006 232 c 1,561,562
 1003 219 1003 219 1003 203 c 2,563,-1
 1003 190 l 1,564,-1
 1006 190 l 1,565,-1
 1018 192 l 1,566,-1
 1018 175 l 1,567,-1
 1015 175 l 1,568,-1
 1003 173 l 1,569,-1
 1008 99 l 1,570,-1
 1003 97 l 1,571,-1
 997 97 l 1,572,573
 994 159 994 159 994 172 c 1,574,-1
 979 172 l 1,575,-1
 980 180 l 1,576,-1
 980 188 l 1,577,-1
 991 189 l 1,578,-1
 992 189 l 1,579,-1
 992 190 l 2,580,581
 992 211 992 211 994 234 c 0,559,560
1140 234 m 2,582,583
 1143 234 1143 234 1152 232 c 1,584,585
 1150 214 1150 214 1150 198 c 2,586,-1
 1150 190 l 1,587,-1
 1152 190 l 1,588,-1
 1164 192 l 1,589,-1
 1164 184 l 1,590,-1
 1164 175 l 2,591,592
 1163 175 1163 175 1150 173 c 1,593,-1
 1150 167 l 2,594,595
 1150 152 1150 152 1154 99 c 1,596,-1
 1152 97 l 1,597,-1
 1143 97 l 1,598,-1
 1139 172 l 1,599,-1
 1126 172 l 1,600,-1
 1126 188 l 1,601,-1
 1137 189 l 1,602,-1
 1138 189 l 1,603,-1
 1140 234 l 2,582,583
404 231 m 1,604,-1
 414 231 l 2,605,606
 428 231 428 231 437 208 c 1,607,608
 431 202 431 202 431 199 c 2,609,-1
 428 199 l 1,610,611
 419 214 419 214 407 214 c 0,612,613
 390 214 390 214 372 188 c 0,614,615
 363 169 363 169 363 154 c 2,616,-1
 363 149 l 2,617,618
 363 120 363 120 387 114 c 0,619,620
 389 113 389 113 395 113 c 0,621,622
 426 116 426 116 426 133 c 2,623,-1
 426 143 l 1,624,625
 422 146 422 146 414 146 c 2,626,-1
 404 146 l 1,627,-1
 404 163 l 1,628,629
 432 163 432 163 437 154 c 0,630,631
 439 147 439 147 439 145 c 0,632,633
 437 120 437 120 437 116 c 0,634,635
 437 105 437 105 441 90 c 1,636,637
 440 90 440 90 433 85 c 1,638,-1
 432 85 l 2,639,640
 428 85 428 85 426 107 c 1,641,642
 420 99 420 99 397 95 c 1,643,-1
 395 95 l 2,644,645
 357 95 357 95 352 146 c 1,646,-1
 352 150 l 2,647,648
 352 208 352 208 397 229 c 1,649,-1
 404 231 l 1,604,-1
866 199 m 0,650,651
 889 199 889 199 900 161 c 1,652,-1
 900 147 l 2,653,654
 900 113 900 113 866 97 c 1,655,-1
 859 96 l 2,656,657
 843 96 843 96 835 116 c 0,658,659
 833 127 833 127 833 133 c 2,660,-1
 833 137 l 2,661,662
 833 178 833 178 852 194 c 0,663,664
 860 199 860 199 866 199 c 0,650,651
943 199 m 256,665,666
 958 199 958 199 977 105 c 1,667,-1
 976 105 l 1,668,669
 971 101 971 101 967 101 c 0,670,671
 952 168 952 168 943 180 c 1,672,673
 936 173 936 173 920 101 c 1,674,-1
 918 100 l 1,675,-1
 914 100 l 2,676,677
 908 100 908 100 905 176 c 1,678,-1
 913 178 l 1,679,-1
 915 178 l 1,680,681
 918 162 918 162 918 145 c 1,682,-1
 919 145 l 1,683,684
 928 199 928 199 943 199 c 256,665,666
487 195 m 0,685,686
 507 191 507 191 507 175 c 1,687,688
 508 175 508 175 508 173 c 0,689,690
 508 150 508 150 473 137 c 0,691,692
 468 134 468 134 458 134 c 1,693,-1
 458 133 l 2,694,695
 458 122 458 122 475 116 c 1,696,-1
 476 116 l 2,697,698
 486 116 486 116 499 132 c 1,699,-1
 502 132 l 2,700,701
 502 130 502 130 508 123 c 1,702,-1
 508 122 l 1,703,704
 494 100 494 100 479 100 c 2,705,-1
 473 100 l 2,706,707
 454 100 454 100 446 132 c 1,708,-1
 446 147 l 2,709,710
 446 180 446 180 472 193 c 0,711,712
 477 195 477 195 487 195 c 0,685,686
1083 195 m 2,713,-1
 1094 195 l 2,714,715
 1110 195 1110 195 1118 167 c 0,716,717
 1120 151 1120 151 1121 149 c 0,718,719
 1120 143 1120 143 1118 123 c 0,720,721
 1120 119 1120 119 1120 100 c 1,722,-1
 1114 96 l 1,723,-1
 1111 96 l 1,724,-1
 1108 108 l 1,725,726
 1098 97 1098 97 1083 97 c 2,727,-1
 1079 97 l 2,728,729
 1058 100 1058 100 1058 117 c 2,730,-1
 1058 125 l 2,731,732
 1061 157 1061 157 1088 157 c 0,733,734
 1100 157 1100 157 1109 149 c 1,735,-1
 1109 152 l 2,736,737
 1109 177 1109 177 1091 181 c 1,738,-1
 1088 181 l 2,739,740
 1082 181 1082 181 1071 173 c 1,741,-1
 1070 173 l 2,742,743
 1069 173 1069 173 1064 180 c 1,744,-1
 1064 182 l 1,745,746
 1074 195 1074 195 1083 195 c 2,713,-1
634 193 m 2,747,748
 636 193 636 193 645 190 c 1,749,750
 645 116 645 116 659 116 c 1,751,752
 678 128 678 128 687 182 c 0,753,754
 688 187 688 187 688 193 c 1,755,-1
 689 193 l 2,756,757
 692 193 692 193 699 190 c 1,758,759
 696 166 696 166 696 145 c 2,760,-1
 696 133 l 2,761,762
 696 124 696 124 701 114 c 1,763,764
 696 107 696 107 696 103 c 1,765,-1
 694 103 l 1,766,767
 687 107 687 107 686 129 c 1,768,-1
 684 129 l 1,769,770
 680 114 680 114 665 100 c 1,771,-1
 656 100 l 2,772,773
 636 100 636 100 636 175 c 2,774,-1
 636 185 l 1,775,-1
 634 193 l 2,747,748
843 137 m 1,776,777
 845 114 845 114 858 114 c 2,778,-1
 859 114 l 2,779,780
 875 114 875 114 886 139 c 0,781,782
 889 147 889 147 889 150 c 0,783,784
 883 181 883 181 867 181 c 2,785,-1
 863 181 l 2,786,787
 848 181 848 181 843 137 c 1,776,777
457 150 m 1,788,789
 480 150 480 150 496 172 c 1,790,791
 494 178 494 178 485 178 c 2,792,-1
 482 178 l 2,793,794
 463 178 463 178 457 150 c 1,788,789
1068 122 m 0,795,796
 1071 114 1071 114 1079 114 c 2,797,-1
 1085 114 l 2,798,799
 1099 114 1099 114 1107 132 c 1,800,801
 1098 140 1098 140 1090 140 c 2,802,-1
 1088 140 l 2,803,804
 1068 137 1068 137 1068 122 c 0,795,796
507 45 m 0,805,806
 508 45 508 45 524 41 c 1,807,808
 520 3 520 3 519 -51 c 0,809,810
 519 -85 519 -85 529 -120 c 1,811,812
 518 -130 518 -130 517 -130 c 2,813,-1
 516 -130 l 2,814,815
 513 -130 513 -130 510 -117 c 1,816,-1
 508 -117 l 1,817,818
 508 -125 508 -125 487 -133 c 1,819,820
 454 -133 454 -133 440 -91 c 0,821,822
 437 -79 437 -79 437 -63 c 0,823,824
 437 -15 437 -15 471 -5 c 1,825,-1
 475 -5 l 2,826,827
 489 -5 489 -5 504 -21 c 1,828,-1
 504 -20 l 2,829,830
 504 -12 504 -12 507 45 c 0,805,806
316 39 m 2,831,-1
 331 34 l 1,832,833
 329 11 329 11 329 -2 c 2,834,-1
 329 -16 l 1,835,836
 342 -13 342 -13 344 -13 c 0,837,838
 346 -33 346 -33 346 -37 c 1,839,-1
 344 -37 l 2,840,841
 335 -38 335 -38 329 -38 c 1,842,843
 332 -101 332 -101 334 -129 c 1,844,845
 322 -131 322 -131 317 -131 c 1,846,-1
 317 -130 l 1,847,848
 312 -69 312 -69 312 -42 c 1,849,-1
 310 -40 l 1,850,-1
 296 -40 l 1,851,-1
 296 -16 l 1,852,-1
 311 -16 l 1,853,-1
 311 -7 l 2,854,855
 311 39 311 39 316 39 c 2,831,-1
674 39 m 1,856,-1
 675 39 l 1,857,-1
 690 34 l 1,858,859
 688 6 688 6 688 -11 c 2,860,-1
 688 -16 l 1,861,862
 702 -13 702 -13 704 -13 c 2,863,-1
 705 -27 l 1,864,-1
 705 -37 l 1,865,866
 689 -38 689 -38 689 -39 c 0,867,868
 689 -62 689 -62 694 -129 c 1,869,870
 681 -131 681 -131 677 -131 c 1,871,-1
 677 -130 l 1,872,873
 672 -55 672 -55 672 -40 c 1,874,-1
 654 -40 l 1,875,-1
 654 -16 l 1,876,-1
 671 -16 l 1,877,878
 671 18 671 18 674 39 c 1,856,-1
546 36 m 0,879,880
 555 36 555 36 557 22 c 2,881,-1
 557 21 l 2,882,883
 557 10 557 10 549 5 c 1,884,-1
 542 5 l 1,885,886
 534 10 534 10 534 22 c 0,887,888
 536 36 536 36 546 36 c 0,879,880
607 -5 m 0,889,890
 632 -5 632 -5 648 -43 c 0,891,892
 650 -54 650 -54 650 -60 c 2,893,-1
 650 -69 l 2,894,895
 650 -109 650 -109 611 -129 c 0,896,897
 607 -131 607 -131 598 -131 c 0,898,899
 571 -131 571 -131 566 -90 c 1,900,-1
 566 -76 l 2,901,902
 566 -25 566 -25 596 -7 c 0,903,904
 606 -5 606 -5 607 -5 c 0,889,890
800 -5 m 1,905,-1
 805 -5 l 2,906,907
 816 -5 816 -5 816 -8 c 2,908,-1
 816 -10 l 1,909,910
 825 -5 825 -5 835 -5 c 0,911,912
 860 -5 860 -5 868 -49 c 0,913,914
 868 -60 868 -60 869 -63 c 0,915,916
 866 -115 866 -115 838 -127 c 1,917,-1
 830 -128 l 1,918,-1
 820 -128 l 1,919,-1
 821 -136 l 2,920,921
 821 -142 821 -142 822 -176 c 1,922,-1
 805 -176 l 1,923,924
 800 -44 800 -44 800 -5 c 1,905,-1
915 -5 m 0,925,926
 938 -5 938 -5 954 -40 c 0,927,928
 958 -53 958 -53 958 -64 c 0,929,930
 958 -107 958 -107 920 -129 c 0,931,932
 912 -131 912 -131 906 -131 c 0,933,934
 884 -131 884 -131 875 -104 c 0,935,936
 873 -92 873 -92 873 -81 c 0,937,938
 873 -27 873 -27 903 -7 c 1,939,940
 914 -5 914 -5 915 -5 c 0,925,926
1117 -5 m 0,941,942
 1141 -5 1141 -5 1156 -40 c 0,943,944
 1160 -48 1160 -48 1160 -59 c 2,945,-1
 1160 -67 l 2,946,947
 1160 -110 1160 -110 1121 -129 c 0,948,949
 1117 -131 1117 -131 1108 -131 c 0,950,951
 1080 -131 1080 -131 1076 -90 c 1,952,-1
 1076 -76 l 2,953,954
 1076 -25 1076 -25 1106 -7 c 0,955,956
 1116 -5 1116 -5 1117 -5 c 0,941,942
1211 -5 m 0,957,958
 1228 -5 1228 -5 1238 -63 c 1,959,-1
 1239 -63 l 1,960,961
 1247 -5 1247 -5 1266 -5 c 2,962,-1
 1267 -5 l 2,963,964
 1291 -5 1291 -5 1307 -123 c 1,965,-1
 1305 -123 l 1,966,967
 1294 -128 1294 -128 1292 -128 c 2,968,-1
 1291 -128 l 1,969,970
 1272 -30 1272 -30 1266 -30 c 1,971,972
 1256 -52 1256 -52 1249 -112 c 0,973,974
 1246 -122 1246 -122 1239 -122 c 0,975,976
 1231 -122 1231 -122 1228 -107 c 0,977,978
 1215 -31 1215 -31 1209 -31 c 1,979,980
 1193 -89 1193 -89 1193 -124 c 1,981,982
 1183 -128 1183 -128 1176 -128 c 1,983,-1
 1176 -127 l 1,984,-1
 1164 -23 l 1,985,986
 1177 -17 1177 -17 1181 -17 c 0,987,988
 1183 -25 1183 -25 1185 -48 c 1,989,-1
 1187 -48 l 1,990,991
 1196 -5 1196 -5 1211 -5 c 0,957,958
258 -6 m 1,992,993
 282 -11 282 -11 282 -27 c 2,994,-1
 282 -28 l 2,995,996
 281 -30 281 -30 270 -37 c 1,997,-1
 267 -37 l 1,998,999
 267 -30 267 -30 254 -29 c 2,1000,-1
 253 -29 l 2,1001,1002
 240 -29 240 -29 233 -39 c 1,1003,-1
 233 -43 l 2,1004,1005
 233 -49 233 -49 264 -49 c 1,1006,1007
 291 -61 291 -61 291 -87 c 2,1008,-1
 291 -92 l 2,1009,1010
 291 -120 291 -120 269 -130 c 0,1011,1012
 264 -133 264 -133 259 -133 c 2,1013,-1
 250 -133 l 2,1014,1015
 227 -133 227 -133 211 -108 c 0,1016,1017
 211 -103 211 -103 222 -92 c 1,1018,-1
 225 -92 l 1,1019,1020
 233 -110 233 -110 255 -110 c 0,1021,1022
 273 -110 273 -110 273 -90 c 0,1023,1024
 273 -75 273 -75 252 -72 c 0,1025,1026
 225 -72 225 -72 220 -60 c 0,1027,1028
 216 -52 216 -52 216 -48 c 2,1029,-1
 216 -40 l 2,1030,1031
 216 -6 216 -6 258 -6 c 1,992,993
713 -7 m 0,1032,1033
 725 -11 725 -11 728 -11 c 1,1034,1035
 727 -34 727 -34 727 -45 c 2,1036,-1
 727 -51 l 2,1037,1038
 727 -84 727 -84 739 -95 c 1,1039,-1
 744 -95 l 1,1040,1041
 766 -77 766 -77 766 -23 c 2,1042,-1
 766 -13 l 1,1043,-1
 783 -13 l 1,1044,-1
 783 -14 l 1,1045,1046
 791 -103 791 -103 791 -117 c 2,1047,-1
 791 -127 l 2,1048,1049
 791 -171 791 -171 763 -187 c 0,1050,1051
 753 -191 753 -191 747 -191 c 0,1052,1053
 725 -191 725 -191 718 -171 c 0,1054,1055
 716 -167 716 -167 716 -162 c 2,1056,-1
 716 -153 l 2,1057,1058
 716 -138 716 -138 720 -138 c 2,1059,-1
 734 -145 l 1,1060,-1
 733 -153 l 1,1061,-1
 733 -157 l 2,1062,1063
 733 -165 733 -165 744 -167 c 2,1064,-1
 748 -167 l 2,1065,1066
 768 -167 768 -167 773 -134 c 0,1067,1068
 774 -130 774 -130 774 -122 c 2,1069,-1
 774 -102 l 1,1070,-1
 773 -89 l 1,1071,-1
 772 -89 l 1,1072,1073
 762 -119 762 -119 743 -119 c 2,1074,-1
 741 -119 l 2,1075,1076
 718 -119 718 -119 711 -69 c 0,1077,1078
 710 -61 710 -61 710 -49 c 2,1079,-1
 710 -40 l 2,1080,1081
 710 -7 710 -7 713 -7 c 0,1032,1033
1033 -8 m 2,1082,-1
 1041 -8 l 2,1083,1084
 1047 -8 1047 -8 1056 -17 c 0,1085,1086
 1067 -29 1067 -29 1067 -35 c 0,1087,1088
 1056 -48 1056 -48 1055 -48 c 1,1089,-1
 1055 -48 l 1,1090,1091
 1044 -33 1044 -33 1037 -33 c 2,1092,-1
 1035 -33 l 1,1093,1094
 1023 -38 1023 -38 1017 -61 c 2,1095,-1
 1013 -82 l 1,1096,1097
 1013 -104 1013 -104 1027 -106 c 2,1098,-1
 1030 -106 l 2,1099,1100
 1041 -106 1041 -106 1064 -90 c 1,1101,-1
 1065 -90 l 1,1102,1103
 1071 -110 1071 -110 1071 -112 c 0,1104,1105
 1046 -130 1046 -130 1024 -130 c 0,1106,1107
 1001 -130 1001 -130 996 -84 c 0,1108,1109
 996 -50 996 -50 1015 -20 c 0,1110,1111
 1027 -8 1027 -8 1033 -8 c 2,1082,-1
537 -10 m 1,1112,-1
 549 -10 l 1,1113,-1
 555 -11 l 2,1114,1115
 555 -14 555 -14 554 -19 c 0,1116,1117
 555 -86 555 -86 558 -128 c 1,1118,-1
 540 -128 l 1,1119,-1
 539 -120 l 1,1120,1121
 537 -52 537 -52 537 -10 c 1,1112,-1
350 -11 m 1,1122,1123
 367 -16 367 -16 367 -17 c 2,1124,-1
 367 -37 l 2,1125,1126
 367 -104 367 -104 379 -104 c 2,1127,-1
 384 -104 l 1,1128,1129
 401 -85 401 -85 408 -49 c 0,1130,1131
 413 -39 413 -39 414 -11 c 1,1132,-1
 416 -11 l 2,1133,1134
 431 -13 431 -13 431 -17 c 0,1135,1136
 428 -59 428 -59 428 -76 c 2,1137,-1
 428 -86 l 2,1138,1139
 428 -96 428 -96 433 -106 c 0,1140,1141
 433 -112 433 -112 423 -124 c 1,1142,-1
 423 -124 l 1,1143,1144
 411 -112 411 -112 411 -99 c 1,1145,-1
 410 -99 l 1,1146,1147
 399 -128 399 -128 382 -128 c 2,1148,-1
 379 -128 l 2,1149,1150
 350 -128 350 -128 350 -35 c 2,1151,-1
 350 -11 l 1,1122,1123
454 -67 m 2,1152,1153
 454 -101 454 -101 484 -107 c 1,1154,-1
 487 -107 l 2,1155,1156
 499 -107 499 -107 502 -81 c 2,1157,-1
 502 -78 l 2,1158,1159
 502 -42 502 -42 481 -30 c 1,1160,-1
 475 -29 l 1,1161,-1
 473 -29 l 2,1162,1163
 456 -29 456 -29 454 -64 c 2,1164,-1
 454 -67 l 2,1152,1153
583 -82 m 0,1165,1166
 583 -104 583 -104 598 -107 c 2,1167,-1
 602 -107 l 2,1168,1169
 617 -107 617 -107 631 -78 c 0,1170,1171
 633 -74 633 -74 633 -69 c 2,1172,-1
 633 -60 l 1,1173,1174
 626 -29 626 -29 609 -29 c 2,1175,-1
 607 -29 l 2,1176,1177
 586 -29 586 -29 583 -82 c 0,1165,1166
816 -37 m 0,1178,1179
 816 -40 816 -40 819 -104 c 1,1180,-1
 826 -105 l 2,1181,1182
 848 -105 848 -105 852 -63 c 1,1183,1184
 849 -29 849 -29 835 -29 c 2,1185,-1
 834 -29 l 2,1186,1187
 824 -29 824 -29 816 -37 c 0,1178,1179
890 -82 m 1,1188,-1
 890 -87 l 2,1189,1190
 890 -104 890 -104 905 -107 c 2,1191,-1
 907 -107 l 2,1192,1193
 923 -107 923 -107 937 -81 c 0,1194,1195
 941 -73 941 -73 941 -63 c 0,1196,1197
 935 -29 935 -29 913 -29 c 0,1198,1199
 894 -29 894 -29 890 -82 c 1,1188,-1
1092 -82 m 0,1200,1201
 1092 -107 1092 -107 1109 -107 c 2,1202,-1
 1112 -107 l 2,1203,1204
 1126 -107 1126 -107 1141 -77 c 0,1205,1206
 1143 -71 1143 -71 1143 -67 c 2,1207,-1
 1143 -60 l 1,1208,1209
 1135 -29 1135 -29 1118 -29 c 2,1210,-1
 1117 -29 l 2,1211,1212
 1097 -29 1097 -29 1092 -82 c 0,1200,1201
977 -96 m 0,1213,1214
 986 -96 986 -96 989 -110 c 2,1215,-1
 989 -115 l 2,1216,1217
 986 -128 986 -128 977 -128 c 256,1218,1219
 968 -128 968 -128 966 -113 c 0,1220,1221
 967 -96 967 -96 977 -96 c 0,1213,1214
717 1368 m 1,1222,-1
 717 1126 l 1,1223,-1
 456 1126 l 2,1224,1225
 402 1126 402 1126 353 1088 c 1,1226,-1
 353 1098 l 1,1227,1228
 500 1368 500 1368 717 1368 c 1,1222,-1
800 1368 m 1,1229,-1
 810 1368 l 2,1230,1231
 942 1368 942 1368 1089 1219 c 1,1232,1233
 1145 1151 1145 1151 1145 1126 c 1,1234,-1
 800 1126 l 1,1235,-1
 800 1368 l 1,1229,-1
428 1042 m 2,1236,-1
 717 1042 l 1,1237,-1
 717 948 l 1,1238,1239
 682 967 682 967 642 967 c 2,1240,-1
 428 967 l 2,1241,1242
 409 967 409 967 409 986 c 2,1243,-1
 409 1023 l 2,1244,1245
 412 1042 412 1042 428 1042 c 2,1236,-1
800 1042 m 1,1246,-1
 1183 1042 l 1,1247,-1
 1192 948 l 1,1248,-1
 1192 930 l 2,1249,1250
 1192 745 1192 745 1061 632 c 1,1251,-1
 894 632 l 1,1252,1253
 800 644 800 644 800 725 c 2,1254,-1
 800 1042 l 1,1246,-1
325 967 m 1,1255,-1
 334 967 l 1,1256,1257
 334 895 334 895 474 883 c 1,1258,-1
 651 883 l 2,1259,1260
 717 883 717 883 717 818 c 2,1261,-1
 717 715 l 2,1262,1263
 717 632 717 632 614 632 c 2,1264,-1
 456 632 l 1,1265,1266
 325 752 325 752 325 911 c 2,1267,-1
 325 967 l 1,1255,-1
754 604 m 1,1268,-1
 763 604 l 1,1269,1270
 824 548 824 548 950 548 c 1,1271,-1
 950 538 l 1,1272,1273
 842 501 842 501 763 501 c 2,1274,-1
 754 501 l 2,1275,1276
 674 501 674 501 567 538 c 1,1277,-1
 567 548 l 1,1278,1279
 699 548 699 548 754 604 c 1,1268,-1
EndSplineSet
EndChar

StartChar: exclam
Encoding: 33 33 4
Width: 1367
Flags: W
LayerCount: 2
Fore
SplineSet
786 381 m 1,0,-1
 582 381 l 1,1,-1
 582 1537 l 1,2,-1
 786 1537 l 1,3,-1
 786 381 l 1,0,-1
582 0 m 1,4,-1
 582 204 l 1,5,-1
 786 204 l 1,6,-1
 786 0 l 1,7,-1
 582 0 l 1,4,-1
EndSplineSet
EndChar

StartChar: quotedbl
Encoding: 34 34 5
Width: 1367
Flags: W
LayerCount: 2
Fore
SplineSet
397 1536 m 1,0,-1
 602 1536 l 1,1,-1
 602 1009 l 1,2,-1
 397 1009 l 1,3,-1
 397 1536 l 1,0,-1
766 1536 m 1,4,-1
 971 1536 l 1,5,-1
 971 1009 l 1,6,-1
 766 1009 l 1,7,-1
 766 1536 l 1,4,-1
EndSplineSet
EndChar

StartChar: numbersign
Encoding: 35 35 6
Width: 1367
Flags: W
LayerCount: 2
Fore
SplineSet
106 436 m 1,0,-1
 106 641 l 1,1,-1
 392 641 l 1,2,-1
 392 857 l 1,3,-1
 106 857 l 1,4,-1
 106 1061 l 1,5,-1
 392 1061 l 1,6,-1
 392 1537 l 1,7,-1
 596 1537 l 1,8,-1
 596 1061 l 1,9,-1
 772 1061 l 1,10,-1
 772 1537 l 1,11,-1
 977 1537 l 1,12,-1
 977 1061 l 1,13,-1
 1262 1061 l 1,14,-1
 1262 857 l 1,15,-1
 977 857 l 1,16,-1
 977 641 l 1,17,-1
 1262 641 l 1,18,-1
 1262 436 l 1,19,-1
 977 436 l 1,20,-1
 977 0 l 1,21,-1
 772 0 l 1,22,-1
 772 436 l 1,23,-1
 596 436 l 1,24,-1
 596 0 l 1,25,-1
 392 0 l 1,26,-1
 392 436 l 1,27,-1
 106 436 l 1,0,-1
596 641 m 1,28,-1
 772 641 l 1,29,-1
 772 857 l 1,30,-1
 596 857 l 1,31,-1
 596 641 l 1,28,-1
EndSplineSet
EndChar

StartChar: dollar
Encoding: 36 36 7
Width: 1367
Flags: W
LayerCount: 2
Fore
SplineSet
439 1823 m 1,0,-1
 644 1823 l 1,1,-1
 644 1537 l 1,2,-1
 725 1537 l 1,3,-1
 725 1823 l 1,4,-1
 929 1823 l 1,5,-1
 929 1537 l 1,6,-1
 1022 1537 l 1,7,-1
 1262 1201 l 1,8,-1
 1262 933 l 1,9,-1
 1058 933 l 1,10,-1
 1058 1136 l 1,11,-1
 929 1316 l 1,12,-1
 929 871 l 1,13,-1
 1022 871 l 1,14,-1
 1262 534 l 1,15,-1
 1262 337 l 1,16,-1
 1022 0 l 1,17,-1
 929 0 l 1,18,-1
 929 -285 l 1,19,-1
 725 -285 l 1,20,-1
 725 0 l 1,21,-1
 644 0 l 1,22,-1
 644 -285 l 1,23,-1
 439 -285 l 1,24,-1
 439 0 l 1,25,-1
 346 0 l 1,26,-1
 106 337 l 1,27,-1
 106 604 l 1,28,-1
 310 604 l 1,29,-1
 310 401 l 1,30,-1
 439 221 l 1,31,-1
 439 667 l 1,32,-1
 346 667 l 1,33,-1
 106 1003 l 1,34,-1
 106 1201 l 1,35,-1
 346 1537 l 1,36,-1
 439 1537 l 1,37,-1
 439 1823 l 1,0,-1
644 1333 m 1,38,-1
 644 871 l 1,39,-1
 725 871 l 1,40,-1
 725 1333 l 1,41,-1
 644 1333 l 1,38,-1
644 667 m 1,42,-1
 644 205 l 1,43,-1
 725 205 l 1,44,-1
 725 667 l 1,45,-1
 644 667 l 1,42,-1
439 1316 m 1,46,-1
 310 1136 l 1,47,-1
 310 1068 l 1,48,-1
 439 887 l 1,49,-1
 439 1316 l 1,46,-1
929 221 m 1,50,-1
 1058 401 l 1,51,-1
 1058 470 l 1,52,-1
 929 650 l 1,53,-1
 929 221 l 1,50,-1
EndSplineSet
EndChar

StartChar: percent
Encoding: 37 37 8
Width: 1367
Flags: W
LayerCount: 2
Fore
SplineSet
888 295 m 1,0,-1
 996 187 l 1,1,-1
 1103 295 l 1,2,-1
 1103 483 l 1,3,-1
 996 590 l 1,4,-1
 888 483 l 1,5,-1
 888 295 l 1,0,-1
735 546 m 1,6,-1
 948 759 l 1,7,-1
 1044 759 l 1,8,-1
 1256 546 l 1,9,-1
 1256 231 l 1,10,-1
 1044 19 l 1,11,-1
 948 19 l 1,12,-1
 735 231 l 1,13,-1
 735 546 l 1,6,-1
264 1041 m 1,14,-1
 372 934 l 1,15,-1
 479 1041 l 1,16,-1
 479 1229 l 1,17,-1
 372 1336 l 1,18,-1
 264 1229 l 1,19,-1
 264 1041 l 1,14,-1
111 1292 m 1,20,-1
 324 1505 l 1,21,-1
 420 1505 l 1,22,-1
 632 1292 l 1,23,-1
 632 977 l 1,24,-1
 420 765 l 1,25,-1
 324 765 l 1,26,-1
 111 977 l 1,27,-1
 111 1292 l 1,20,-1
937 1563 m 1,28,-1
 1122 1478 l 1,29,30
 1007 1226 1007 1226 776 719 c 0,31,32
 546 213 546 213 430 -40 c 1,33,-1
 245 45 l 1,34,-1
 894 1470 l 1,35,-1
 937 1563 l 1,28,-1
EndSplineSet
EndChar

StartChar: ampersand
Encoding: 38 38 9
Width: 1367
Flags: W
LayerCount: 2
Fore
SplineSet
1283 88 m 1,0,-1
 1124 -41 l 1,1,-1
 1043 59 l 1,2,-1
 1001 0 l 1,3,-1
 325 0 l 1,4,-1
 85 337 l 1,5,-1
 85 534 l 1,6,-1
 325 871 l 1,7,-1
 380 871 l 1,8,-1
 275 999 l 1,9,-1
 275 1201 l 1,10,-1
 516 1537 l 1,11,-1
 811 1537 l 1,12,-1
 1051 1201 l 1,13,-1
 1051 1003 l 1,14,-1
 811 667 l 1,15,-1
 810 667 l 1,16,-1
 1032 395 l 1,17,-1
 1037 401 l 1,18,-1
 1037 604 l 1,19,-1
 1241 604 l 1,20,-1
 1241 337 l 1,21,-1
 1166 231 l 1,22,-1
 1218 167 l 1,23,-1
 1283 88 l 1,0,-1
547 667 m 1,24,-1
 430 667 l 1,25,-1
 289 470 l 1,26,-1
 289 401 l 1,27,-1
 430 205 l 1,28,-1
 896 205 l 1,29,-1
 909 223 l 1,30,-1
 547 667 l 1,24,-1
480 1071 m 1,31,-1
 643 871 l 1,32,-1
 706 871 l 1,33,-1
 847 1068 l 1,34,-1
 847 1136 l 1,35,-1
 706 1333 l 1,36,-1
 620 1333 l 1,37,-1
 480 1136 l 1,38,-1
 480 1071 l 1,31,-1
EndSplineSet
EndChar

StartChar: quotesingle
Encoding: 39 39 10
Width: 1367
Flags: W
LayerCount: 2
Fore
SplineSet
581 1536 m 1,0,-1
 786 1536 l 1,1,-1
 786 1009 l 1,2,-1
 581 1009 l 1,3,-1
 581 1536 l 1,0,-1
EndSplineSet
EndChar

StartChar: parenleft
Encoding: 40 40 11
Width: 1367
Flags: W
LayerCount: 2
Fore
SplineSet
1262 1537 m 1,0,-1
 1262 1333 l 1,1,-1
 727 1333 l 1,2,-1
 310 917 l 1,3,-1
 310 621 l 1,4,-1
 727 205 l 1,5,-1
 1262 205 l 1,6,-1
 1262 0 l 1,7,-1
 642 0 l 1,8,-1
 106 536 l 1,9,-1
 106 1001 l 1,10,-1
 642 1537 l 1,11,-1
 1262 1537 l 1,0,-1
EndSplineSet
Substitution2: "'sinf' Scientific Inferiors in Latin lookup 0 subtable" uni208D
EndChar

StartChar: parenright
Encoding: 41 41 12
Width: 1367
Flags: W
LayerCount: 2
Fore
SplineSet
106 1333 m 1,0,-1
 106 1537 l 1,1,-1
 727 1537 l 1,2,-1
 1262 1001 l 1,3,-1
 1262 536 l 1,4,-1
 727 0 l 1,5,-1
 106 0 l 1,6,-1
 106 205 l 1,7,-1
 642 205 l 1,8,-1
 1058 621 l 1,9,-1
 1058 917 l 1,10,-1
 642 1333 l 1,11,-1
 106 1333 l 1,0,-1
EndSplineSet
Substitution2: "'sinf' Scientific Inferiors in Latin lookup 0 subtable" uni208E
EndChar

StartChar: asterisk
Encoding: 42 42 13
Width: 1367
Flags: W
LayerCount: 2
Fore
SplineSet
581 1537 m 1,0,-1
 786 1537 l 1,1,-1
 786 1195 l 1,2,-1
 1110 1301 l 1,3,-1
 1174 1107 l 1,4,-1
 848 1001 l 1,5,-1
 1050 723 l 1,6,-1
 884 603 l 1,7,-1
 683 881 l 1,8,-1
 481 604 l 1,9,-1
 316 724 l 1,10,-1
 518 1001 l 1,11,-1
 192 1107 l 1,12,-1
 255 1301 l 1,13,-1
 581 1195 l 1,14,-1
 581 1537 l 1,0,-1
EndSplineSet
EndChar

StartChar: plus
Encoding: 43 43 14
Width: 1367
Flags: W
LayerCount: 2
Fore
SplineSet
106 663 m 1,0,-1
 106 867 l 1,1,-1
 582 867 l 1,2,-1
 582 1343 l 1,3,-1
 786 1343 l 1,4,-1
 786 867 l 1,5,-1
 1262 867 l 1,6,-1
 1262 663 l 1,7,-1
 786 663 l 1,8,-1
 786 187 l 1,9,-1
 582 187 l 1,10,-1
 582 663 l 1,11,-1
 106 663 l 1,0,-1
EndSplineSet
Substitution2: "'sinf' Scientific Inferiors in Latin lookup 0 subtable" uni208A
EndChar

StartChar: comma
Encoding: 44 44 15
Width: 1367
Flags: W
LayerCount: 2
Fore
SplineSet
279 0 m 1,0,-1
 182 0 l 1,1,-1
 182 204 l 1,2,-1
 386 204 l 1,3,-1
 386 0 l 1,4,-1
 296 -244 l 1,5,-1
 189 -244 l 1,6,-1
 279 0 l 1,0,-1
EndSplineSet
EndChar

StartChar: hyphen
Encoding: 45 45 16
AltUni2: 0000ad.ffffffff.0
Width: 1367
Flags: W
LayerCount: 2
Fore
SplineSet
306 520 m 1,0,-1
 306 724 l 1,1,-1
 1062 724 l 1,2,-1
 1062 520 l 1,3,-1
 306 520 l 1,0,-1
EndSplineSet
EndChar

StartChar: period
Encoding: 46 46 17
Width: 2048
LayerCount: 2
Fore
SplineSet
841 297 m 1,0,-1
 1111 297 l 1,1,-1
 1111 87 l 1,2,-1
 841 87 l 1,3,-1
 841 297 l 1,0,-1
EndSplineSet
EndChar

StartChar: slash
Encoding: 47 47 18
Width: 1367
Flags: W
LayerCount: 2
Fore
SplineSet
1193 1536 m 1,0,-1
 384 0 l 1,1,-1
 164 0 l 1,2,-1
 973 1536 l 1,3,-1
 1193 1536 l 1,0,-1
EndSplineSet
Substitution2: "'frac' Diagonal Fractions in Latin lookup 1 subtable" fraction
EndChar

StartChar: zero
Encoding: 48 48 19
Width: 1367
Flags: W
LayerCount: 2
Fore
SplineSet
310 526 m 1,0,-1
 631 205 l 1,1,-1
 737 205 l 1,2,-1
 1058 526 l 1,3,-1
 1058 1012 l 1,4,-1
 737 1333 l 1,5,-1
 631 1333 l 1,6,-1
 310 1012 l 1,7,-1
 310 526 l 1,0,-1
106 1097 m 1,8,-1
 547 1537 l 1,9,-1
 822 1537 l 1,10,-1
 1262 1097 l 1,11,-1
 1262 441 l 1,12,-1
 822 0 l 1,13,-1
 547 0 l 1,14,-1
 106 441 l 1,15,-1
 106 1097 l 1,8,-1
EndSplineSet
Substitution2: "'sinf' Scientific Inferiors in Latin lookup 0 subtable" uni2080
EndChar

StartChar: one
Encoding: 49 49 20
Width: 1367
Flags: W
LayerCount: 2
Fore
SplineSet
1261 205 m 1,0,-1
 1261 0 l 1,1,-1
 106 0 l 1,2,-1
 106 205 l 1,3,-1
 581 205 l 1,4,-1
 581 1333 l 1,5,-1
 106 1333 l 1,6,-1
 106 1537 l 1,7,-1
 785 1537 l 1,8,-1
 785 205 l 1,9,-1
 1261 205 l 1,0,-1
EndSplineSet
Substitution2: "'sinf' Scientific Inferiors in Latin lookup 0 subtable" uni2081
EndChar

StartChar: two
Encoding: 50 50 21
Width: 1367
Flags: W
LayerCount: 2
Fore
SplineSet
310 933 m 1,0,-1
 106 933 l 1,1,-1
 106 1201 l 1,2,-1
 346 1537 l 1,3,-1
 1022 1537 l 1,4,-1
 1262 1201 l 1,5,-1
 1262 908 l 1,6,-1
 1037 593 l 1,7,-1
 310 247 l 1,8,-1
 310 205 l 1,9,-1
 1262 205 l 1,10,-1
 1262 0 l 1,11,-1
 106 0 l 1,12,-1
 106 376 l 1,13,-1
 902 754 l 1,14,-1
 1058 972 l 1,15,-1
 1058 1136 l 1,16,-1
 917 1333 l 1,17,-1
 451 1333 l 1,18,-1
 310 1136 l 1,19,-1
 310 933 l 1,0,-1
EndSplineSet
Substitution2: "'sinf' Scientific Inferiors in Latin lookup 0 subtable" uni2082
EndChar

StartChar: three
Encoding: 51 51 22
Width: 1367
Flags: W
LayerCount: 2
Fore
SplineSet
307 434 m 1,0,-1
 471 205 l 1,1,-1
 937 205 l 1,2,-1
 1078 401 l 1,3,-1
 1078 470 l 1,4,-1
 937 667 l 1,5,-1
 436 667 l 1,6,-1
 436 871 l 1,7,-1
 937 871 l 1,8,-1
 1078 1068 l 1,9,-1
 1078 1136 l 1,10,-1
 937 1333 l 1,11,-1
 471 1333 l 1,12,-1
 315 1116 l 1,13,-1
 149 1235 l 1,14,-1
 366 1537 l 1,15,-1
 1042 1537 l 1,16,-1
 1282 1201 l 1,17,-1
 1282 1003 l 1,18,-1
 1115 769 l 1,19,-1
 1282 534 l 1,20,-1
 1282 337 l 1,21,-1
 1042 0 l 1,22,-1
 366 0 l 1,23,-1
 141 316 l 1,24,-1
 307 434 l 1,0,-1
EndSplineSet
Substitution2: "'sinf' Scientific Inferiors in Latin lookup 0 subtable" uni2083
EndChar

StartChar: four
Encoding: 52 52 23
Width: 1367
Flags: W
LayerCount: 2
Fore
SplineSet
721 681 m 1,0,-1
 721 1164 l 1,1,-1
 412 681 l 1,2,-1
 721 681 l 1,0,-1
161 626 m 1,3,-1
 768 1537 l 1,4,-1
 925 1537 l 1,5,-1
 925 681 l 1,6,-1
 1306 681 l 1,7,-1
 1306 476 l 1,8,-1
 925 476 l 1,9,-1
 925 205 l 1,10,-1
 1306 205 l 1,11,-1
 1306 0 l 1,12,-1
 330 0 l 1,13,-1
 330 205 l 1,14,-1
 721 205 l 1,15,-1
 721 476 l 1,16,-1
 161 476 l 1,17,-1
 161 626 l 1,3,-1
EndSplineSet
Substitution2: "'sinf' Scientific Inferiors in Latin lookup 0 subtable" uni2084
EndChar

StartChar: five
Encoding: 53 53 24
Width: 1367
Flags: W
LayerCount: 2
Fore
SplineSet
1102 1537 m 1,0,-1
 1102 1333 l 1,1,-1
 426 1333 l 1,2,-1
 426 966 l 1,3,-1
 1042 966 l 1,4,-1
 1282 630 l 1,5,-1
 1282 337 l 1,6,-1
 1042 0 l 1,7,-1
 366 0 l 1,8,-1
 86 393 l 1,9,-1
 252 511 l 1,10,-1
 471 205 l 1,11,-1
 937 205 l 1,12,-1
 1078 401 l 1,13,-1
 1078 565 l 1,14,-1
 937 762 l 1,15,-1
 221 762 l 1,16,-1
 221 1537 l 1,17,-1
 1102 1537 l 1,0,-1
EndSplineSet
Substitution2: "'sinf' Scientific Inferiors in Latin lookup 0 subtable" uni2085
EndChar

StartChar: six
Encoding: 54 54 25
Width: 1367
Flags: W
LayerCount: 2
Fore
SplineSet
451 762 m 1,0,-1
 310 565 l 1,1,-1
 310 401 l 1,2,-1
 451 205 l 1,3,-1
 917 205 l 1,4,-1
 1058 401 l 1,5,-1
 1058 565 l 1,6,-1
 917 762 l 1,7,-1
 451 762 l 1,0,-1
1004 1537 m 1,8,-1
 597 966 l 1,9,-1
 1022 966 l 1,10,-1
 1262 630 l 1,11,-1
 1262 337 l 1,12,-1
 1022 0 l 1,13,-1
 346 0 l 1,14,-1
 106 337 l 1,15,-1
 106 629 l 1,16,-1
 754 1537 l 1,17,-1
 1004 1537 l 1,8,-1
EndSplineSet
Substitution2: "'sinf' Scientific Inferiors in Latin lookup 0 subtable" uni2086
EndChar

StartChar: seven
Encoding: 55 55 26
Width: 1367
Flags: W
LayerCount: 2
Fore
SplineSet
475 0 m 1,0,-1
 1058 968 l 1,1,-1
 1058 1136 l 1,2,-1
 917 1333 l 1,3,-1
 451 1333 l 1,4,-1
 232 1026 l 1,5,-1
 66 1145 l 1,6,-1
 346 1537 l 1,7,-1
 1022 1537 l 1,8,-1
 1262 1201 l 1,9,-1
 1262 912 l 1,10,-1
 713 0 l 1,11,-1
 475 0 l 1,0,-1
EndSplineSet
Substitution2: "'sinf' Scientific Inferiors in Latin lookup 0 subtable" uni2087
EndChar

StartChar: eight
Encoding: 56 56 27
Width: 1367
Flags: W
LayerCount: 2
Fore
SplineSet
917 871 m 1,0,-1
 1058 1068 l 1,1,-1
 1058 1136 l 1,2,-1
 917 1333 l 1,3,-1
 451 1333 l 1,4,-1
 310 1136 l 1,5,-1
 310 1068 l 1,6,-1
 451 871 l 1,7,-1
 917 871 l 1,0,-1
106 1003 m 1,8,-1
 106 1201 l 1,9,-1
 346 1537 l 1,10,-1
 1022 1537 l 1,11,-1
 1262 1201 l 1,12,-1
 1262 1003 l 1,13,-1
 1095 769 l 1,14,-1
 1262 534 l 1,15,-1
 1262 337 l 1,16,-1
 1022 0 l 1,17,-1
 346 0 l 1,18,-1
 106 337 l 1,19,-1
 106 534 l 1,20,-1
 273 769 l 1,21,-1
 106 1003 l 1,8,-1
451 667 m 1,22,-1
 310 470 l 1,23,-1
 310 401 l 1,24,-1
 451 205 l 1,25,-1
 917 205 l 1,26,-1
 1058 401 l 1,27,-1
 1058 470 l 1,28,-1
 917 667 l 1,29,-1
 451 667 l 1,22,-1
EndSplineSet
Substitution2: "'sinf' Scientific Inferiors in Latin lookup 0 subtable" uni2088
EndChar

StartChar: nine
Encoding: 57 57 28
Width: 1367
Flags: W
LayerCount: 2
Fore
SplineSet
1058 1136 m 1,0,-1
 917 1333 l 1,1,-1
 451 1333 l 1,2,-1
 310 1136 l 1,3,-1
 310 972 l 1,4,-1
 451 776 l 1,5,-1
 917 776 l 1,6,-1
 1058 972 l 1,7,-1
 1058 1136 l 1,0,-1
364 0 m 1,8,-1
 771 571 l 1,9,-1
 346 571 l 1,10,-1
 106 908 l 1,11,-1
 106 1201 l 1,12,-1
 346 1537 l 1,13,-1
 1022 1537 l 1,14,-1
 1262 1201 l 1,15,-1
 1262 908 l 1,16,-1
 614 0 l 1,17,-1
 364 0 l 1,8,-1
EndSplineSet
Substitution2: "'sinf' Scientific Inferiors in Latin lookup 0 subtable" uni2089
EndChar

StartChar: colon
Encoding: 58 58 29
Width: 1367
Flags: W
LayerCount: 2
Fore
SplineSet
386 204 m 1,0,-1
 386 0 l 1,1,-1
 182 0 l 1,2,-1
 182 204 l 1,3,-1
 386 204 l 1,0,-1
386 1157 m 1,4,-1
 386 953 l 1,5,-1
 182 953 l 1,6,-1
 182 1157 l 1,7,-1
 386 1157 l 1,4,-1
EndSplineSet
EndChar

StartChar: semicolon
Encoding: 59 59 30
AltUni2: 00037e.ffffffff.0
Width: 1367
Flags: W
LayerCount: 2
Fore
SplineSet
279 0 m 1,0,-1
 182 0 l 1,1,-1
 182 204 l 1,2,-1
 386 204 l 1,3,-1
 386 0 l 1,4,-1
 296 -244 l 1,5,-1
 189 -244 l 1,6,-1
 279 0 l 1,0,-1
386 1157 m 1,7,-1
 386 953 l 1,8,-1
 182 953 l 1,9,-1
 182 1157 l 1,10,-1
 386 1157 l 1,7,-1
EndSplineSet
EndChar

StartChar: less
Encoding: 60 60 31
Width: 1367
Flags: W
LayerCount: 2
Fore
SplineSet
1237 122 m 1,0,1
 1032 204 1032 204 130 565 c 1,2,-1
 130 893 l 1,3,-1
 1237 1335 l 1,4,-1
 1237 1116 l 1,5,-1
 334 755 l 1,6,-1
 334 702 l 1,7,-1
 1237 342 l 1,8,-1
 1237 122 l 1,0,1
EndSplineSet
EndChar

StartChar: equal
Encoding: 61 61 32
Width: 1367
Flags: W
LayerCount: 2
Fore
SplineSet
220 330 m 1,0,-1
 220 532 l 1,1,-1
 1147 532 l 1,2,-1
 1147 330 l 1,3,-1
 220 330 l 1,0,-1
220 830 m 1,4,-1
 220 1032 l 1,5,-1
 1147 1032 l 1,6,-1
 1147 830 l 1,7,-1
 220 830 l 1,4,-1
EndSplineSet
Substitution2: "'sinf' Scientific Inferiors in Latin lookup 0 subtable" uni208C
EndChar

StartChar: greater
Encoding: 62 62 33
Width: 1367
Flags: W
LayerCount: 2
Fore
SplineSet
130 342 m 1,0,-1
 1033 702 l 1,1,-1
 1033 755 l 1,2,-1
 130 1116 l 1,3,-1
 130 1335 l 1,4,-1
 1237 893 l 1,5,-1
 1237 565 l 1,6,7
 335 204 335 204 130 122 c 1,8,-1
 130 342 l 1,0,-1
EndSplineSet
EndChar

StartChar: question
Encoding: 63 63 34
Width: 1367
Flags: W
LayerCount: 2
Fore
SplineSet
739 0 m 1,0,-1
 534 0 l 1,1,-1
 534 205 l 1,2,-1
 739 205 l 1,3,-1
 739 0 l 1,0,-1
310 933 m 1,4,-1
 106 933 l 1,5,-1
 106 1201 l 1,6,-1
 346 1537 l 1,7,-1
 1022 1537 l 1,8,-1
 1262 1201 l 1,9,-1
 1262 1003 l 1,10,-1
 1022 667 l 1,11,-1
 804 667 l 1,12,-1
 739 632 l 1,13,-1
 739 362 l 1,14,-1
 534 362 l 1,15,-1
 534 753 l 1,16,-1
 755 871 l 1,17,-1
 917 871 l 1,18,-1
 1058 1068 l 1,19,-1
 1058 1136 l 1,20,-1
 917 1333 l 1,21,-1
 451 1333 l 1,22,-1
 310 1136 l 1,23,-1
 310 933 l 1,4,-1
EndSplineSet
EndChar

StartChar: at
Encoding: 64 64 35
Width: 1367
Flags: W
LayerCount: 2
Fore
SplineSet
778 1306 m 1,0,-1
 931 1306 l 1,1,-1
 931 448 l 1,2,-1
 1067 584 l 1,3,-1
 1067 1238 l 1,4,-1
 921 1383 l 1,5,-1
 414 1383 l 1,6,-1
 268 1238 l 1,7,-1
 268 299 l 1,8,-1
 414 153 l 1,9,-1
 921 153 l 1,10,-1
 1144 375 l 1,11,-1
 1252 267 l 1,12,-1
 985 0 l 1,13,-1
 350 0 l 1,14,-1
 115 235 l 1,15,-1
 115 1301 l 1,16,-1
 350 1537 l 1,17,-1
 985 1537 l 1,18,-1
 1220 1301 l 1,19,-1
 1220 521 l 1,20,-1
 985 285 l 1,21,-1
 778 285 l 1,22,-1
 778 415 l 1,23,-1
 696 333 l 1,24,-1
 588 333 l 1,25,-1
 353 568 l 1,26,-1
 353 975 l 1,27,-1
 588 1211 l 1,28,-1
 696 1211 l 1,29,-1
 778 1129 l 1,30,-1
 778 1306 l 1,0,-1
778 912 m 1,31,-1
 642 1048 l 1,32,-1
 506 912 l 1,33,-1
 506 632 l 1,34,-1
 642 496 l 1,35,-1
 778 632 l 1,36,-1
 778 912 l 1,31,-1
EndSplineSet
EndChar

StartChar: A
Encoding: 65 65 36
Width: 1367
Flags: W
LayerCount: 2
Fore
SplineSet
310 729 m 1,0,-1
 1058 729 l 1,1,-1
 1058 1202 l 1,2,-1
 927 1333 l 1,3,-1
 441 1333 l 1,4,-1
 310 1202 l 1,5,-1
 310 729 l 1,0,-1
1058 525 m 1,6,-1
 310 525 l 1,7,-1
 310 0 l 1,8,-1
 106 0 l 1,9,-1
 106 1287 l 1,10,-1
 356 1537 l 1,11,-1
 1012 1537 l 1,12,-1
 1262 1287 l 1,13,-1
 1262 0 l 1,14,-1
 1058 0 l 1,15,-1
 1058 525 l 1,6,-1
EndSplineSet
EndChar

StartChar: B
Encoding: 66 66 37
Width: 1367
Flags: W
LayerCount: 2
Fore
SplineSet
106 1537 m 1,0,-1
 1012 1537 l 1,1,-1
 1262 1287 l 1,2,-1
 1262 917 l 1,3,-1
 1114 769 l 1,4,-1
 1262 621 l 1,5,-1
 1262 250 l 1,6,-1
 1012 0 l 1,7,-1
 106 0 l 1,8,-1
 106 1537 l 1,0,-1
927 871 m 1,9,-1
 1058 1001 l 1,10,-1
 1058 1202 l 1,11,-1
 927 1333 l 1,12,-1
 310 1333 l 1,13,-1
 310 871 l 1,14,-1
 927 871 l 1,9,-1
310 205 m 1,15,-1
 927 205 l 1,16,-1
 1058 335 l 1,17,-1
 1058 536 l 1,18,-1
 927 667 l 1,19,-1
 310 667 l 1,20,-1
 310 205 l 1,15,-1
EndSplineSet
EndChar

StartChar: C
Encoding: 67 67 38
Width: 1367
Flags: W
LayerCount: 2
Fore
SplineSet
1305 293 m 1,0,-1
 1012 0 l 1,1,-1
 356 0 l 1,2,-1
 106 250 l 1,3,-1
 106 1287 l 1,4,-1
 356 1537 l 1,5,-1
 1012 1537 l 1,6,-1
 1305 1245 l 1,7,-1
 1160 1100 l 1,8,-1
 927 1333 l 1,9,-1
 441 1333 l 1,10,-1
 310 1202 l 1,11,-1
 310 335 l 1,12,-1
 441 205 l 1,13,-1
 927 205 l 1,14,-1
 1160 437 l 1,15,-1
 1305 293 l 1,0,-1
EndSplineSet
EndChar

StartChar: D
Encoding: 68 68 39
Width: 1367
Flags: W
LayerCount: 2
Fore
SplineSet
310 1333 m 1,0,-1
 310 205 l 1,1,-1
 832 205 l 1,2,-1
 1058 430 l 1,3,-1
 1058 1107 l 1,4,-1
 832 1333 l 1,5,-1
 310 1333 l 1,0,-1
106 1537 m 1,6,-1
 917 1537 l 1,7,-1
 1262 1192 l 1,8,-1
 1262 346 l 1,9,-1
 917 0 l 1,10,-1
 106 0 l 1,11,-1
 106 1537 l 1,6,-1
EndSplineSet
EndChar

StartChar: E
Encoding: 69 69 40
Width: 1367
Flags: W
LayerCount: 2
Fore
SplineSet
308 667 m 1,0,-1
 308 205 l 1,1,-1
 925 205 l 1,2,-1
 1158 437 l 1,3,-1
 1303 293 l 1,4,-1
 1010 0 l 1,5,-1
 104 0 l 1,6,-1
 104 1537 l 1,7,-1
 1010 1537 l 1,8,-1
 1303 1245 l 1,9,-1
 1158 1100 l 1,10,-1
 925 1333 l 1,11,-1
 308 1333 l 1,12,-1
 308 871 l 1,13,-1
 1070 871 l 1,14,-1
 1070 667 l 1,15,-1
 308 667 l 1,0,-1
EndSplineSet
EndChar

StartChar: F
Encoding: 70 70 41
Width: 1367
Flags: W
LayerCount: 2
Fore
SplineSet
308 667 m 1,0,-1
 308 0 l 1,1,-1
 104 0 l 1,2,-1
 104 1537 l 1,3,-1
 1010 1537 l 1,4,-1
 1303 1245 l 1,5,-1
 1158 1100 l 1,6,-1
 925 1333 l 1,7,-1
 308 1333 l 1,8,-1
 308 871 l 1,9,-1
 1070 871 l 1,10,-1
 1070 667 l 1,11,-1
 308 667 l 1,0,-1
EndSplineSet
EndChar

StartChar: G
Encoding: 71 71 42
Width: 1367
Flags: W
LayerCount: 2
Fore
SplineSet
1158 1100 m 1,0,-1
 925 1333 l 1,1,-1
 439 1333 l 1,2,-1
 308 1202 l 1,3,-1
 308 335 l 1,4,-1
 439 205 l 1,5,-1
 925 205 l 1,6,-1
 1056 335 l 1,7,-1
 1056 667 l 1,8,-1
 580 667 l 1,9,-1
 580 871 l 1,10,-1
 1260 871 l 1,11,-1
 1260 250 l 1,12,-1
 1010 0 l 1,13,-1
 354 0 l 1,14,-1
 104 250 l 1,15,-1
 104 1287 l 1,16,-1
 354 1537 l 1,17,-1
 1010 1537 l 1,18,-1
 1303 1245 l 1,19,-1
 1158 1100 l 1,0,-1
EndSplineSet
EndChar

StartChar: H
Encoding: 72 72 43
Width: 1367
Flags: W
LayerCount: 2
Fore
SplineSet
1262 0 m 1,0,-1
 1058 0 l 1,1,-1
 1058 667 l 1,2,-1
 310 667 l 1,3,-1
 310 0 l 1,4,-1
 106 0 l 1,5,-1
 106 1537 l 1,6,-1
 310 1537 l 1,7,-1
 310 871 l 1,8,-1
 1058 871 l 1,9,-1
 1058 1537 l 1,10,-1
 1262 1537 l 1,11,-1
 1262 0 l 1,0,-1
EndSplineSet
EndChar

StartChar: I
Encoding: 73 73 44
Width: 1367
Flags: W
LayerCount: 2
Fore
SplineSet
1262 205 m 1,0,-1
 1262 0 l 1,1,-1
 106 0 l 1,2,-1
 106 205 l 1,3,-1
 582 205 l 1,4,-1
 582 1333 l 1,5,-1
 106 1333 l 1,6,-1
 106 1537 l 1,7,-1
 1262 1537 l 1,8,-1
 1262 1333 l 1,9,-1
 786 1333 l 1,10,-1
 786 205 l 1,11,-1
 1262 205 l 1,0,-1
EndSplineSet
EndChar

StartChar: J
Encoding: 74 74 45
Width: 1367
Flags: W
LayerCount: 2
Fore
SplineSet
106 681 m 1,0,-1
 310 681 l 1,1,-1
 310 335 l 1,2,-1
 441 205 l 1,3,-1
 927 205 l 1,4,-1
 1058 335 l 1,5,-1
 1058 1537 l 1,6,-1
 1262 1537 l 1,7,-1
 1262 250 l 1,8,-1
 1012 0 l 1,9,-1
 356 0 l 1,10,-1
 106 250 l 1,11,-1
 106 681 l 1,0,-1
EndSplineSet
EndChar

StartChar: K
Encoding: 75 75 46
Width: 1367
Flags: W
LayerCount: 2
Fore
SplineSet
1357 1537 m 1,0,-1
 809 769 l 1,1,-1
 1358 0 l 1,2,-1
 1108 0 l 1,3,-1
 632 667 l 1,4,-1
 310 667 l 1,5,-1
 310 0 l 1,6,-1
 106 0 l 1,7,-1
 106 1537 l 1,8,-1
 310 1537 l 1,9,-1
 310 871 l 1,10,-1
 632 871 l 1,11,-1
 1107 1537 l 1,12,-1
 1357 1537 l 1,0,-1
EndSplineSet
EndChar

StartChar: L
Encoding: 76 76 47
Width: 1367
Flags: W
LayerCount: 2
Fore
SplineSet
1303 293 m 1,0,-1
 1010 0 l 1,1,-1
 104 0 l 1,2,-1
 104 1537 l 1,3,-1
 308 1537 l 1,4,-1
 308 205 l 1,5,-1
 925 205 l 1,6,-1
 1158 437 l 1,7,-1
 1303 293 l 1,0,-1
EndSplineSet
EndChar

StartChar: M
Encoding: 77 77 48
Width: 1367
Flags: W
LayerCount: 2
Fore
SplineSet
310 0 m 1,0,-1
 106 0 l 1,1,-1
 106 1077 l 1,2,-1
 336 1537 l 1,3,-1
 557 1537 l 1,4,-1
 684 1282 l 1,5,-1
 812 1537 l 1,6,-1
 1032 1537 l 1,7,-1
 1262 1077 l 1,8,-1
 1262 0 l 1,9,-1
 1058 0 l 1,10,-1
 1058 1031 l 1,11,-1
 922 1303 l 1,12,-1
 786 1031 l 1,13,-1
 786 0 l 1,14,-1
 582 0 l 1,15,-1
 582 1031 l 1,16,-1
 446 1303 l 1,17,-1
 310 1031 l 1,18,-1
 310 0 l 1,0,-1
EndSplineSet
EndChar

StartChar: N
Encoding: 78 78 49
Width: 1367
Flags: W
LayerCount: 2
Fore
SplineSet
1058 1537 m 1,0,-1
 1262 1537 l 1,1,-1
 1262 460 l 1,2,-1
 1032 0 l 1,3,-1
 798 0 l 1,4,-1
 433 1276 l 1,5,-1
 310 1031 l 1,6,-1
 310 0 l 1,7,-1
 106 0 l 1,8,-1
 106 1077 l 1,9,-1
 336 1537 l 1,10,-1
 571 1537 l 1,11,-1
 935 261 l 1,12,-1
 1058 506 l 1,13,-1
 1058 1537 l 1,0,-1
EndSplineSet
EndChar

StartChar: O
Encoding: 79 79 50
Width: 1367
Flags: W
LayerCount: 2
Fore
SplineSet
310 335 m 1,0,-1
 441 205 l 1,1,-1
 927 205 l 1,2,-1
 1058 335 l 1,3,-1
 1058 1202 l 1,4,-1
 927 1333 l 1,5,-1
 441 1333 l 1,6,-1
 310 1202 l 1,7,-1
 310 335 l 1,0,-1
106 1287 m 1,8,-1
 356 1537 l 1,9,-1
 1012 1537 l 1,10,-1
 1262 1287 l 1,11,-1
 1262 250 l 1,12,-1
 1012 0 l 1,13,-1
 356 0 l 1,14,-1
 106 250 l 1,15,-1
 106 1287 l 1,8,-1
EndSplineSet
EndChar

StartChar: P
Encoding: 80 80 51
Width: 1367
Flags: W
LayerCount: 2
Fore
SplineSet
310 476 m 1,0,-1
 310 0 l 1,1,-1
 106 0 l 1,2,-1
 106 1537 l 1,3,-1
 1012 1537 l 1,4,-1
 1262 1287 l 1,5,-1
 1262 726 l 1,6,-1
 1012 476 l 1,7,-1
 310 476 l 1,0,-1
310 681 m 1,8,-1
 927 681 l 1,9,-1
 1058 811 l 1,10,-1
 1058 1202 l 1,11,-1
 927 1333 l 1,12,-1
 310 1333 l 1,13,-1
 310 681 l 1,8,-1
EndSplineSet
EndChar

StartChar: Q
Encoding: 81 81 52
Width: 1367
Flags: W
LayerCount: 2
Fore
SplineSet
1004 281 m 1,0,-1
 1058 335 l 1,1,-1
 1058 1202 l 1,2,-1
 927 1333 l 1,3,-1
 441 1333 l 1,4,-1
 310 1202 l 1,5,-1
 310 335 l 1,6,-1
 441 205 l 1,7,-1
 815 205 l 1,8,-1
 590 729 l 1,9,-1
 778 809 l 1,10,-1
 1004 281 l 1,0,-1
106 1287 m 1,11,-1
 356 1537 l 1,12,-1
 1012 1537 l 1,13,-1
 1262 1287 l 1,14,-1
 1262 250 l 1,15,-1
 1012 0 l 1,16,-1
 356 0 l 1,17,-1
 106 250 l 1,18,-1
 106 1287 l 1,11,-1
EndSplineSet
EndChar

StartChar: R
Encoding: 82 82 53
Width: 1367
Flags: W
LayerCount: 2
Fore
SplineSet
310 871 m 1,0,-1
 927 871 l 1,1,-1
 1058 1001 l 1,2,-1
 1058 1202 l 1,3,-1
 927 1333 l 1,4,-1
 310 1333 l 1,5,-1
 310 871 l 1,0,-1
1033 0 m 1,6,-1
 310 573 l 1,7,-1
 310 0 l 1,8,-1
 106 0 l 1,9,-1
 106 1537 l 1,10,-1
 1012 1537 l 1,11,-1
 1262 1287 l 1,12,-1
 1262 917 l 1,13,-1
 1012 667 l 1,14,-1
 514 667 l 1,15,-1
 1341 0 l 1,16,-1
 1033 0 l 1,6,-1
EndSplineSet
EndChar

StartChar: S
Encoding: 83 83 54
Width: 1367
Flags: W
LayerCount: 2
Fore
SplineSet
1058 1035 m 1,0,-1
 1058 1136 l 1,1,-1
 917 1333 l 1,2,-1
 451 1333 l 1,3,-1
 310 1136 l 1,4,-1
 310 1068 l 1,5,-1
 451 871 l 1,6,-1
 1022 871 l 1,7,-1
 1262 534 l 1,8,-1
 1262 337 l 1,9,-1
 1022 0 l 1,10,-1
 346 0 l 1,11,-1
 106 337 l 1,12,-1
 106 502 l 1,13,-1
 310 502 l 1,14,-1
 310 401 l 1,15,-1
 451 205 l 1,16,-1
 917 205 l 1,17,-1
 1058 401 l 1,18,-1
 1058 470 l 1,19,-1
 917 667 l 1,20,-1
 346 667 l 1,21,-1
 106 1003 l 1,22,-1
 106 1201 l 1,23,-1
 346 1537 l 1,24,-1
 1022 1537 l 1,25,-1
 1262 1201 l 1,26,-1
 1262 1035 l 1,27,-1
 1058 1035 l 1,0,-1
EndSplineSet
EndChar

StartChar: T
Encoding: 84 84 55
Width: 1367
Flags: W
LayerCount: 2
Fore
SplineSet
63 1245 m 1,0,-1
 356 1537 l 1,1,-1
 1011 1537 l 1,2,-1
 1304 1245 l 1,3,-1
 1159 1100 l 1,4,-1
 927 1333 l 1,5,-1
 786 1333 l 1,6,-1
 786 0 l 1,7,-1
 581 0 l 1,8,-1
 581 1333 l 1,9,-1
 440 1333 l 1,10,-1
 208 1100 l 1,11,-1
 63 1245 l 1,0,-1
EndSplineSet
EndChar

StartChar: U
Encoding: 85 85 56
Width: 1367
Flags: W
LayerCount: 2
Fore
SplineSet
106 1537 m 1,0,-1
 310 1537 l 1,1,-1
 310 335 l 1,2,-1
 441 205 l 1,3,-1
 927 205 l 1,4,-1
 1058 335 l 1,5,-1
 1058 1537 l 1,6,-1
 1262 1537 l 1,7,-1
 1262 250 l 1,8,-1
 1012 0 l 1,9,-1
 356 0 l 1,10,-1
 106 250 l 1,11,-1
 106 1537 l 1,0,-1
EndSplineSet
EndChar

StartChar: V
Encoding: 86 86 57
Width: 1367
Flags: W
LayerCount: 2
Fore
SplineSet
630 0 m 1,0,-1
 401 228 l 1,1,-1
 73 1537 l 1,2,-1
 284 1537 l 1,3,-1
 586 333 l 1,4,-1
 684 235 l 1,5,-1
 782 333 l 1,6,-1
 1083 1537 l 1,7,-1
 1294 1537 l 1,8,9
 979 279 979 279 966 228 c 1,10,-1
 738 0 l 1,11,-1
 630 0 l 1,0,-1
EndSplineSet
EndChar

StartChar: W
Encoding: 87 87 58
Width: 1367
Flags: W
LayerCount: 2
Fore
SplineSet
582 1537 m 1,0,-1
 786 1537 l 1,1,-1
 786 506 l 1,2,-1
 922 235 l 1,3,-1
 1058 506 l 1,4,-1
 1058 1537 l 1,5,-1
 1262 1537 l 1,6,-1
 1262 460 l 1,7,-1
 1032 0 l 1,8,-1
 812 0 l 1,9,-1
 684 255 l 1,10,-1
 557 0 l 1,11,-1
 336 0 l 1,12,-1
 106 460 l 1,13,-1
 106 1537 l 1,14,-1
 310 1537 l 1,15,-1
 310 506 l 1,16,-1
 446 235 l 1,17,-1
 582 506 l 1,18,-1
 582 1537 l 1,0,-1
EndSplineSet
EndChar

StartChar: X
Encoding: 88 88 59
Width: 1367
Flags: W
LayerCount: 2
Fore
SplineSet
1262 0 m 1,0,-1
 1058 0 l 1,1,-1
 1058 328 l 1,2,-1
 736 667 l 1,3,-1
 632 667 l 1,4,-1
 310 328 l 1,5,-1
 310 0 l 1,6,-1
 106 0 l 1,7,-1
 106 409 l 1,8,-1
 448 769 l 1,9,-1
 106 1128 l 1,10,-1
 106 1537 l 1,11,-1
 310 1537 l 1,12,-1
 310 1209 l 1,13,-1
 632 871 l 1,14,-1
 736 871 l 1,15,-1
 1058 1209 l 1,16,-1
 1058 1537 l 1,17,-1
 1262 1537 l 1,18,-1
 1262 1128 l 1,19,-1
 920 769 l 1,20,-1
 1262 409 l 1,21,-1
 1262 0 l 1,0,-1
EndSplineSet
EndChar

StartChar: Y
Encoding: 89 89 60
Width: 1367
Flags: W
LayerCount: 2
Fore
SplineSet
1056 1537 m 1,0,-1
 1261 1537 l 1,1,-1
 1261 250 l 1,2,-1
 1010 0 l 1,3,-1
 355 0 l 1,4,-1
 62 293 l 1,5,-1
 207 437 l 1,6,-1
 439 205 l 1,7,-1
 926 205 l 1,8,-1
 1056 335 l 1,9,-1
 1056 617 l 1,10,-1
 1010 571 l 1,11,-1
 354 571 l 1,12,-1
 104 822 l 1,13,-1
 104 1537 l 1,14,-1
 308 1537 l 1,15,-1
 308 906 l 1,16,-1
 439 776 l 1,17,-1
 925 776 l 1,18,-1
 991 841 l 1,19,-1
 1056 907 l 1,20,-1
 1056 1537 l 1,0,-1
EndSplineSet
EndChar

StartChar: Z
Encoding: 90 90 61
Width: 1367
Flags: W
LayerCount: 2
Fore
SplineSet
106 1333 m 1,0,-1
 106 1537 l 1,1,-1
 1016 1537 l 1,2,-1
 1301 1209 l 1,3,-1
 350 314 l 1,4,-1
 445 205 l 1,5,-1
 1262 205 l 1,6,-1
 1262 0 l 1,7,-1
 353 0 l 1,8,-1
 67 329 l 1,9,-1
 1019 1223 l 1,10,-1
 924 1333 l 1,11,-1
 106 1333 l 1,0,-1
EndSplineSet
EndChar

StartChar: bracketleft
Encoding: 91 91 62
Width: 1367
Flags: W
LayerCount: 2
Fore
SplineSet
1043 1537 m 1,0,-1
 1043 1333 l 1,1,-1
 528 1333 l 1,2,-1
 528 205 l 1,3,-1
 1043 205 l 1,4,-1
 1043 0 l 1,5,-1
 323 0 l 1,6,-1
 323 1537 l 1,7,-1
 1043 1537 l 1,0,-1
EndSplineSet
EndChar

StartChar: backslash
Encoding: 92 92 63
Width: 1367
Flags: W
LayerCount: 2
Fore
SplineSet
384 1536 m 1,0,-1
 1193 0 l 1,1,-1
 973 0 l 1,2,-1
 164 1536 l 1,3,-1
 384 1536 l 1,0,-1
EndSplineSet
EndChar

StartChar: bracketright
Encoding: 93 93 64
Width: 1367
Flags: W
LayerCount: 2
Fore
SplineSet
1043 1537 m 1,0,-1
 1043 0 l 1,1,-1
 323 0 l 1,2,-1
 323 205 l 1,3,-1
 839 205 l 1,4,-1
 839 1333 l 1,5,-1
 323 1333 l 1,6,-1
 323 1537 l 1,7,-1
 1043 1537 l 1,0,-1
EndSplineSet
EndChar

StartChar: asciicircum
Encoding: 94 94 65
Width: 1367
Flags: W
LayerCount: 2
Fore
SplineSet
940 714 m 1,0,-1
 711 1284 l 1,1,-1
 655 1284 l 1,2,-1
 427 714 l 1,3,-1
 218 714 l 1,4,-1
 586 1536 l 1,5,-1
 780 1536 l 1,6,-1
 1149 714 l 1,7,-1
 940 714 l 1,0,-1
EndSplineSet
EndChar

StartChar: underscore
Encoding: 95 95 66
Width: 1367
Flags: W
LayerCount: 2
Fore
SplineSet
-37 -202 m 1,0,-1
 -37 0 l 1,1,-1
 1412 0 l 1,2,-1
 1412 -202 l 1,3,-1
 -37 -202 l 1,0,-1
EndSplineSet
EndChar

StartChar: grave
Encoding: 96 96 67
Width: 1367
Flags: W
LayerCount: 2
Fore
SplineSet
603 1273 m 1,0,-1
 311 1613 l 1,1,-1
 554 1613 l 1,2,-1
 814 1273 l 1,3,-1
 603 1273 l 1,0,-1
EndSplineSet
EndChar

StartChar: a
Encoding: 97 97 68
Width: 1367
Flags: W
LayerCount: 2
Fore
SplineSet
441 952 m 1,0,-1
 310 822 l 1,1,-1
 106 906 l 1,2,-1
 356 1157 l 1,3,-1
 1012 1157 l 1,4,-1
 1262 906 l 1,5,-1
 1262 0 l 1,6,-1
 1058 0 l 1,7,-1
 1058 118 l 1,8,-1
 910 0 l 1,9,-1
 356 0 l 1,10,-1
 106 250 l 1,11,-1
 106 466 l 1,12,-1
 356 717 l 1,13,-1
 910 717 l 1,14,-1
 1058 588 l 1,15,-1
 1058 822 l 1,16,-1
 927 952 l 1,17,-1
 441 952 l 1,0,-1
1054 400 m 1,18,-1
 922 532 l 1,19,-1
 441 532 l 1,20,-1
 310 402 l 1,21,-1
 310 315 l 1,22,-1
 441 185 l 1,23,-1
 922 185 l 1,24,-1
 1054 316 l 1,25,-1
 1054 400 l 1,18,-1
EndSplineSet
EndChar

StartChar: _1
Encoding: 65538 -1 69
Width: 1367
Flags: W
LayerCount: 2
Fore
SplineSet
1058 1157 m 1,0,-1
 1262 1157 l 1,1,-1
 1262 0 l 1,2,-1
 1058 0 l 1,3,-1
 1058 148 l 1,4,-1
 910 0 l 1,5,-1
 356 0 l 1,6,-1
 106 250 l 1,7,-1
 106 906 l 1,8,-1
 356 1157 l 1,9,-1
 910 1157 l 1,10,-1
 1058 1008 l 1,11,-1
 1058 1157 l 1,0,-1
1058 719 m 1,12,-1
 825 952 l 1,13,-1
 441 952 l 1,14,-1
 310 822 l 1,15,-1
 310 335 l 1,16,-1
 441 205 l 1,17,-1
 825 205 l 1,18,-1
 1058 437 l 1,19,-1
 1058 719 l 1,12,-1
EndSplineSet
EndChar

StartChar: b
Encoding: 98 98 70
Width: 1367
Flags: W
LayerCount: 2
Fore
SplineSet
1012 1157 m 1,0,-1
 1262 906 l 1,1,-1
 1262 250 l 1,2,-1
 1012 0 l 1,3,-1
 459 0 l 1,4,-1
 310 148 l 1,5,-1
 310 0 l 1,6,-1
 106 0 l 1,7,-1
 106 1537 l 1,8,-1
 310 1537 l 1,9,-1
 310 1008 l 1,10,-1
 459 1157 l 1,11,-1
 1012 1157 l 1,0,-1
543 952 m 1,12,-1
 311 719 l 1,13,-1
 311 437 l 1,14,-1
 543 205 l 1,15,-1
 928 205 l 1,16,-1
 1058 335 l 1,17,-1
 1058 822 l 1,18,-1
 928 952 l 1,19,-1
 543 952 l 1,12,-1
EndSplineSet
EndChar

StartChar: c
Encoding: 99 99 71
Width: 1367
Flags: W
LayerCount: 2
Fore
SplineSet
1160 719 m 1,0,-1
 927 952 l 1,1,-1
 441 952 l 1,2,-1
 310 822 l 1,3,-1
 310 335 l 1,4,-1
 441 205 l 1,5,-1
 927 205 l 1,6,-1
 1160 437 l 1,7,-1
 1305 293 l 1,8,-1
 1012 0 l 1,9,-1
 356 0 l 1,10,-1
 106 250 l 1,11,-1
 106 906 l 1,12,-1
 356 1157 l 1,13,-1
 1012 1157 l 1,14,-1
 1305 864 l 1,15,-1
 1160 719 l 1,0,-1
EndSplineSet
EndChar

StartChar: d
Encoding: 100 100 72
Width: 1367
Flags: W
LayerCount: 2
Fore
SplineSet
1057 1537 m 1,0,-1
 1262 1537 l 1,1,-1
 1262 0 l 1,2,-1
 1057 0 l 1,3,-1
 1057 148 l 1,4,-1
 909 0 l 1,5,-1
 355 0 l 1,6,-1
 105 250 l 1,7,-1
 105 906 l 1,8,-1
 355 1157 l 1,9,-1
 909 1157 l 1,10,-1
 1057 1008 l 1,11,-1
 1057 1537 l 1,0,-1
440 952 m 1,12,-1
 309 822 l 1,13,-1
 309 335 l 1,14,-1
 440 205 l 1,15,-1
 824 205 l 1,16,-1
 1057 437 l 1,17,-1
 1057 719 l 1,18,-1
 824 952 l 1,19,-1
 440 952 l 1,12,-1
EndSplineSet
EndChar

StartChar: e
Encoding: 101 101 73
Width: 1367
Flags: W
LayerCount: 2
Fore
SplineSet
1012 0 m 1,0,-1
 356 0 l 1,1,-1
 106 250 l 1,2,-1
 106 906 l 1,3,-1
 356 1157 l 1,4,-1
 1012 1157 l 1,5,-1
 1262 906 l 1,6,-1
 1262 476 l 1,7,-1
 310 476 l 1,8,-1
 310 335 l 1,9,-1
 441 205 l 1,10,-1
 927 205 l 1,11,-1
 1088 365 l 1,12,-1
 1232 221 l 1,13,-1
 1012 0 l 1,0,-1
310 681 m 1,14,-1
 1058 681 l 1,15,-1
 1058 822 l 1,16,-1
 927 952 l 1,17,-1
 441 952 l 1,18,-1
 310 822 l 1,19,-1
 310 681 l 1,14,-1
EndSplineSet
EndChar

StartChar: f
Encoding: 102 102 74
Width: 1367
Flags: W
LayerCount: 2
Fore
SplineSet
548 822 m 1,0,-1
 1184 822 l 1,1,-1
 1184 617 l 1,2,-1
 548 617 l 1,3,-1
 548 205 l 1,4,-1
 844 205 l 1,5,-1
 844 0 l 1,6,-1
 106 0 l 1,7,-1
 106 205 l 1,8,-1
 344 205 l 1,9,-1
 344 1287 l 1,10,-1
 594 1537 l 1,11,-1
 1012 1537 l 1,12,-1
 1262 1287 l 1,13,-1
 1262 952 l 1,14,-1
 1058 952 l 1,15,-1
 1058 1202 l 1,16,-1
 927 1333 l 1,17,-1
 679 1333 l 1,18,-1
 548 1202 l 1,19,-1
 548 822 l 1,0,-1
EndSplineSet
EndChar

StartChar: g
Encoding: 103 103 75
Width: 1367
Flags: W
LayerCount: 2
Fore
SplineSet
1262 1157 m 1,0,-1
 1262 -130 l 1,1,-1
 1012 -381 l 1,2,-1
 356 -381 l 1,3,-1
 136 -160 l 1,4,-1
 281 -16 l 1,5,-1
 441 -176 l 1,6,-1
 927 -176 l 1,7,-1
 1058 -46 l 1,8,-1
 1058 250 l 1,9,-1
 910 102 l 1,10,-1
 356 102 l 1,11,-1
 106 353 l 1,12,-1
 106 906 l 1,13,-1
 356 1157 l 1,14,-1
 910 1157 l 1,15,-1
 1058 1008 l 1,16,-1
 1058 1157 l 1,17,-1
 1262 1157 l 1,0,-1
825 307 m 1,18,-1
 1058 540 l 1,19,-1
 1058 719 l 1,20,-1
 825 952 l 1,21,-1
 441 952 l 1,22,-1
 310 822 l 1,23,-1
 310 437 l 1,24,-1
 441 307 l 1,25,-1
 825 307 l 1,18,-1
EndSplineSet
EndChar

StartChar: h
Encoding: 104 104 76
Width: 1367
Flags: W
LayerCount: 2
Fore
SplineSet
311 1537 m 1,0,-1
 311 1009 l 1,1,-1
 459 1157 l 1,2,-1
 1012 1157 l 1,3,-1
 1262 906 l 1,4,-1
 1262 0 l 1,5,-1
 1058 0 l 1,6,-1
 1058 822 l 1,7,-1
 927 952 l 1,8,-1
 543 952 l 1,9,-1
 311 720 l 1,10,-1
 311 0 l 1,11,-1
 106 0 l 1,12,-1
 106 191 l 1,13,-1
 106 191 l 1,14,-1
 106 864 l 2,15,16
 106 1313 106 1313 106 1537 c 1,17,-1
 311 1537 l 1,0,-1
EndSplineSet
EndChar

StartChar: i
Encoding: 105 105 77
Width: 1367
Flags: W
LayerCount: 2
Fore
SplineSet
1262 205 m 1,0,-1
 1262 0 l 1,1,-1
 106 0 l 1,2,-1
 106 205 l 1,3,-1
 582 205 l 1,4,-1
 582 952 l 1,5,-1
 106 952 l 1,6,-1
 106 1157 l 1,7,-1
 786 1157 l 1,8,-1
 786 205 l 1,9,-1
 1262 205 l 1,0,-1
786 1537 m 1,10,-1
 786 1333 l 1,11,-1
 582 1333 l 1,12,-1
 582 1537 l 1,13,-1
 786 1537 l 1,10,-1
EndSplineSet
EndChar

StartChar: j
Encoding: 106 106 78
Width: 1367
Flags: W
LayerCount: 2
Fore
SplineSet
1262 1157 m 1,0,-1
 1262 952 l 1,1,-1
 1024 952 l 1,2,-1
 1024 -321 l 1,3,-1
 774 -571 l 1,4,-1
 356 -571 l 1,5,-1
 106 -321 l 1,6,-1
 106 0 l 1,7,-1
 310 0 l 1,8,-1
 310 -236 l 1,9,-1
 441 -367 l 1,10,-1
 689 -367 l 1,11,-1
 820 -236 l 1,12,-1
 820 952 l 1,13,-1
 344 952 l 1,14,-1
 344 1157 l 1,15,-1
 1262 1157 l 1,0,-1
1024 1537 m 1,16,-1
 1024 1333 l 1,17,-1
 820 1333 l 1,18,-1
 820 1537 l 1,19,-1
 1024 1537 l 1,16,-1
EndSplineSet
EndChar

StartChar: k
Encoding: 107 107 79
Width: 1367
Flags: W
LayerCount: 2
Fore
SplineSet
1052 0 m 1,0,-1
 671 476 l 1,1,-1
 310 476 l 1,2,-1
 310 0 l 1,3,-1
 106 0 l 1,4,-1
 106 1537 l 1,5,-1
 310 1537 l 1,6,-1
 310 681 l 1,7,-1
 901 681 l 1,8,-1
 1091 1157 l 1,9,-1
 1311 1157 l 1,10,-1
 1039 476 l 1,11,-1
 931 476 l 1,12,-1
 1312 0 l 1,13,-1
 1052 0 l 1,0,-1
EndSplineSet
EndChar

StartChar: l
Encoding: 108 108 80
Width: 1367
Flags: W
LayerCount: 2
Fore
SplineSet
1262 205 m 1,0,-1
 1262 0 l 1,1,-1
 105 0 l 1,2,-1
 105 205 l 1,3,-1
 581 205 l 1,4,-1
 581 1333 l 1,5,-1
 105 1333 l 1,6,-1
 105 1537 l 1,7,-1
 785 1537 l 1,8,-1
 785 205 l 1,9,-1
 1262 205 l 1,0,-1
EndSplineSet
EndChar

StartChar: m
Encoding: 109 109 81
Width: 1367
Flags: W
LayerCount: 2
Fore
SplineSet
786 0 m 1,0,-1
 582 0 l 1,1,-1
 582 842 l 1,2,-1
 535 944 l 1,3,-1
 310 719 l 1,4,-1
 310 0 l 1,5,-1
 106 0 l 1,6,-1
 106 1157 l 1,7,-1
 310 1157 l 1,8,-1
 310 1008 l 1,9,-1
 459 1157 l 1,10,-1
 661 1157 l 1,11,-1
 748 970 l 1,12,-1
 934 1157 l 1,13,-1
 1137 1157 l 1,14,-1
 1262 886 l 1,15,-1
 1262 0 l 1,16,-1
 1058 0 l 1,17,-1
 1058 842 l 1,18,-1
 1011 944 l 1,19,-1
 786 719 l 1,20,-1
 786 0 l 1,0,-1
EndSplineSet
EndChar

StartChar: n
Encoding: 110 110 82
Width: 1367
Flags: W
LayerCount: 2
Fore
SplineSet
106 1157 m 1,0,-1
 310 1157 l 1,1,-1
 310 1009 l 1,2,-1
 458 1157 l 1,3,-1
 1012 1157 l 1,4,-1
 1262 906 l 1,5,-1
 1262 0 l 1,6,-1
 1058 0 l 1,7,-1
 1058 822 l 1,8,-1
 927 952 l 1,9,-1
 543 952 l 1,10,-1
 310 719 l 1,11,-1
 310 0 l 1,12,-1
 106 0 l 1,13,-1
 106 1157 l 1,0,-1
EndSplineSet
EndChar

StartChar: o
Encoding: 111 111 83
Width: 1367
Flags: W
LayerCount: 2
Fore
SplineSet
356 0 m 1,0,-1
 106 250 l 1,1,-1
 106 906 l 1,2,-1
 356 1157 l 1,3,-1
 1012 1157 l 1,4,-1
 1262 906 l 1,5,-1
 1262 250 l 1,6,-1
 1012 0 l 1,7,-1
 356 0 l 1,0,-1
927 205 m 1,8,-1
 1058 335 l 1,9,-1
 1058 822 l 1,10,-1
 927 952 l 1,11,-1
 441 952 l 1,12,-1
 310 822 l 1,13,-1
 310 335 l 1,14,-1
 441 205 l 1,15,-1
 927 205 l 1,8,-1
EndSplineSet
EndChar

StartChar: p
Encoding: 112 112 84
Width: 1367
Flags: W
LayerCount: 2
Fore
SplineSet
311 -381 m 1,0,-1
 106 -381 l 1,1,-1
 106 352 l 1,2,-1
 106 353 l 2,3,4
 106 487 106 487 106 755 c 2,5,-1
 106 1157 l 1,6,-1
 311 1157 l 1,7,-1
 311 1009 l 1,8,-1
 459 1157 l 1,9,-1
 1012 1157 l 1,10,-1
 1262 906 l 1,11,-1
 1262 250 l 1,12,-1
 1012 0 l 1,13,-1
 459 0 l 1,14,-1
 311 148 l 1,15,-1
 311 -381 l 1,0,-1
311 437 m 1,16,-1
 543 205 l 1,17,-1
 927 205 l 1,18,-1
 1058 335 l 1,19,-1
 1058 822 l 1,20,-1
 927 952 l 1,21,-1
 543 952 l 1,22,-1
 311 720 l 1,23,-1
 311 437 l 1,16,-1
EndSplineSet
EndChar

StartChar: q
Encoding: 113 113 85
Width: 1367
Flags: W
LayerCount: 2
Fore
SplineSet
1262 -381 m 1,0,-1
 1058 -381 l 1,1,-1
 1058 148 l 1,2,-1
 910 0 l 1,3,-1
 356 0 l 1,4,-1
 106 250 l 1,5,-1
 106 906 l 1,6,-1
 356 1157 l 1,7,-1
 910 1157 l 1,8,-1
 1058 1009 l 1,9,-1
 1058 1157 l 1,10,-1
 1262 1157 l 1,11,-1
 1262 -381 l 1,0,-1
1058 719 m 1,12,-1
 825 952 l 1,13,-1
 441 952 l 1,14,-1
 310 822 l 1,15,-1
 310 335 l 1,16,-1
 441 205 l 1,17,-1
 825 205 l 1,18,-1
 1058 437 l 1,19,-1
 1058 719 l 1,12,-1
EndSplineSet
EndChar

StartChar: r
Encoding: 114 114 86
Width: 1367
Flags: W
LayerCount: 2
Fore
SplineSet
106 1157 m 1,0,-1
 311 1157 l 1,1,-1
 311 1009 l 1,2,-1
 459 1157 l 1,3,-1
 1012 1157 l 1,4,-1
 1305 864 l 1,5,-1
 1160 719 l 1,6,-1
 927 952 l 1,7,-1
 543 952 l 1,8,-1
 311 720 l 1,9,-1
 311 0 l 1,10,-1
 106 0 l 1,11,-1
 106 191 l 1,12,-1
 106 191 l 1,13,14
 106 352 106 352 106 674 c 2,15,-1
 106 1157 l 1,0,-1
EndSplineSet
EndChar

StartChar: s
Encoding: 115 115 87
Width: 1367
Flags: W
LayerCount: 2
Fore
SplineSet
1058 769 m 1,0,-1
 1058 822 l 1,1,-1
 927 952 l 1,2,-1
 441 952 l 1,3,-1
 310 822 l 1,4,-1
 310 811 l 1,5,-1
 441 681 l 1,6,-1
 1012 681 l 1,7,-1
 1262 430 l 1,8,-1
 1262 250 l 1,9,-1
 1012 0 l 1,10,-1
 356 0 l 1,11,-1
 106 250 l 1,12,-1
 106 388 l 1,13,-1
 310 388 l 1,14,-1
 310 335 l 1,15,-1
 441 205 l 1,16,-1
 927 205 l 1,17,-1
 1058 335 l 1,18,-1
 1058 346 l 1,19,-1
 927 476 l 1,20,-1
 356 476 l 1,21,-1
 106 726 l 1,22,-1
 106 906 l 1,23,-1
 356 1157 l 1,24,-1
 1012 1157 l 1,25,-1
 1262 906 l 1,26,-1
 1262 769 l 1,27,-1
 1058 769 l 1,0,-1
EndSplineSet
Substitution2: "'hist' Historical Forms in Latin lookup 3 subtable" longs
EndChar

StartChar: t
Encoding: 116 116 88
Width: 1367
Flags: W
LayerCount: 2
Fore
SplineSet
106 952 m 1,0,-1
 106 1157 l 1,1,-1
 392 1157 l 1,2,-1
 392 1537 l 1,3,-1
 596 1537 l 1,4,-1
 596 1157 l 1,5,-1
 1262 1157 l 1,6,-1
 1262 952 l 1,7,-1
 596 952 l 1,8,-1
 596 335 l 1,9,-1
 727 205 l 1,10,-1
 927 205 l 1,11,-1
 1160 437 l 1,12,-1
 1305 293 l 1,13,-1
 1012 0 l 1,14,-1
 642 0 l 1,15,-1
 392 250 l 1,16,-1
 392 952 l 1,17,-1
 106 952 l 1,0,-1
EndSplineSet
EndChar

StartChar: u
Encoding: 117 117 89
Width: 1367
Flags: W
LayerCount: 2
Fore
SplineSet
1262 0 m 1,0,-1
 1058 0 l 1,1,-1
 1058 148 l 1,2,-1
 910 0 l 1,3,-1
 356 0 l 1,4,-1
 106 250 l 1,5,-1
 106 1157 l 1,6,-1
 310 1157 l 1,7,-1
 310 335 l 1,8,-1
 441 205 l 1,9,-1
 825 205 l 1,10,-1
 1058 437 l 1,11,-1
 1058 1157 l 1,12,-1
 1262 1157 l 1,13,-1
 1262 0 l 1,0,-1
EndSplineSet
EndChar

StartChar: v
Encoding: 118 118 90
Width: 1367
Flags: W
LayerCount: 2
Fore
SplineSet
634 0 m 1,0,-1
 406 228 l 1,1,-1
 58 1157 l 1,2,-1
 275 1157 l 1,3,-1
 581 342 l 1,4,-1
 684 239 l 1,5,-1
 787 342 l 1,6,-1
 1093 1157 l 1,7,-1
 1310 1157 l 1,8,-1
 962 228 l 1,9,-1
 734 0 l 1,10,-1
 634 0 l 1,0,-1
EndSplineSet
EndChar

StartChar: w
Encoding: 119 119 91
Width: 1367
Flags: W
LayerCount: 2
Fore
SplineSet
786 335 m 1,0,-1
 917 205 l 1,1,-1
 927 205 l 1,2,-1
 1058 335 l 1,3,-1
 1058 1157 l 1,4,-1
 1262 1157 l 1,5,-1
 1262 250 l 1,6,-1
 1012 0 l 1,7,-1
 832 0 l 1,8,-1
 684 148 l 1,9,-1
 536 0 l 1,10,-1
 356 0 l 1,11,-1
 106 250 l 1,12,-1
 106 1157 l 1,13,-1
 310 1157 l 1,14,-1
 310 335 l 1,15,-1
 441 205 l 1,16,-1
 451 205 l 1,17,-1
 582 335 l 1,18,-1
 582 1157 l 1,19,-1
 786 1157 l 1,20,-1
 786 335 l 1,0,-1
EndSplineSet
EndChar

StartChar: x
Encoding: 120 120 92
Width: 1367
Flags: W
LayerCount: 2
Fore
SplineSet
1262 0 m 1,0,-1
 1058 0 l 1,1,-1
 1058 242 l 1,2,-1
 746 476 l 1,3,-1
 622 476 l 1,4,-1
 310 242 l 1,5,-1
 310 0 l 1,6,-1
 106 0 l 1,7,-1
 106 343 l 1,8,-1
 419 578 l 1,9,-1
 106 813 l 1,10,-1
 106 1157 l 1,11,-1
 310 1157 l 1,12,-1
 310 915 l 1,13,-1
 622 681 l 1,14,-1
 746 681 l 1,15,-1
 1058 915 l 1,16,-1
 1058 1157 l 1,17,-1
 1262 1157 l 1,18,-1
 1262 813 l 1,19,-1
 949 578 l 1,20,-1
 1262 343 l 1,21,-1
 1262 0 l 1,0,-1
EndSplineSet
EndChar

StartChar: y
Encoding: 121 121 93
Width: 1367
Flags: W
LayerCount: 2
Fore
SplineSet
1056 1157 m 1,0,-1
 1261 1157 l 1,1,-1
 1261 -130 l 1,2,-1
 1010 -381 l 1,3,-1
 355 -381 l 1,4,-1
 62 -88 l 1,5,-1
 207 57 l 1,6,-1
 439 -176 l 1,7,-1
 926 -176 l 1,8,-1
 1056 -46 l 1,9,-1
 1056 250 l 1,10,-1
 909 102 l 1,11,-1
 355 102 l 1,12,-1
 105 353 l 1,13,-1
 105 1157 l 1,14,-1
 309 1157 l 1,15,-1
 309 437 l 1,16,-1
 440 307 l 1,17,-1
 824 307 l 1,18,-1
 1024 507 l 1,19,-1
 1056 539 l 1,20,-1
 1056 1157 l 1,0,-1
EndSplineSet
EndChar

StartChar: z
Encoding: 122 122 94
Width: 1367
Flags: W
LayerCount: 2
Fore
SplineSet
105 952 m 1,0,-1
 105 1157 l 1,1,-1
 1011 1157 l 1,2,-1
 1324 844 l 1,3,-1
 372 273 l 1,4,-1
 440 205 l 1,5,-1
 1262 205 l 1,6,-1
 1262 0 l 1,7,-1
 356 0 l 1,8,-1
 43 313 l 1,9,-1
 995 884 l 1,10,-1
 927 952 l 1,11,-1
 105 952 l 1,0,-1
EndSplineSet
EndChar

StartChar: braceleft
Encoding: 123 123 95
Width: 1367
Flags: W
LayerCount: 2
Fore
SplineSet
1043 1537 m 1,0,-1
 1043 1333 l 1,1,-1
 528 1333 l 1,2,-1
 528 -195 l 1,3,-1
 1043 -195 l 1,4,-1
 1043 -400 l 1,5,-1
 323 -400 l 1,6,-1
 323 1537 l 1,7,-1
 1043 1537 l 1,0,-1
EndSplineSet
EndChar

StartChar: bar
Encoding: 124 124 96
Width: 1367
Flags: W
LayerCount: 2
Fore
SplineSet
786 1537 m 1,0,-1
 786 -396 l 1,1,-1
 581 -396 l 1,2,-1
 581 1537 l 1,3,-1
 786 1537 l 1,0,-1
EndSplineSet
EndChar

StartChar: braceright
Encoding: 125 125 97
Width: 1367
Flags: W
LayerCount: 2
Fore
SplineSet
1043 1537 m 1,0,-1
 1043 -400 l 1,1,-1
 323 -400 l 1,2,-1
 323 -195 l 1,3,-1
 839 -195 l 1,4,-1
 839 1333 l 1,5,-1
 323 1333 l 1,6,-1
 323 1537 l 1,7,-1
 1043 1537 l 1,0,-1
EndSplineSet
EndChar

StartChar: asciitilde
Encoding: 126 126 98
Width: 1367
Flags: W
LayerCount: 2
Fore
SplineSet
66 1002 m 1,0,-1
 235 1117 l 1,1,-1
 292 1033 l 2,2,3
 373 915 373 915 465 927 c 0,4,5
 521 934 521 934 628 1011 c 0,6,7
 819 1148 819 1148 920 1157 c 0,8,9
 1088 1171 1088 1171 1244 943 c 2,10,-1
 1301 859 l 1,11,-1
 1133 744 l 1,12,-1
 1075 828 l 2,13,14
 998 941 998 941 908 929 c 0,15,16
 853 922 853 922 747 846 c 0,17,18
 555 708 555 708 453 699 c 0,19,20
 283 685 283 685 124 918 c 2,21,-1
 66 1002 l 1,0,-1
EndSplineSet
EndChar

StartChar: sterling
Encoding: 163 163 100
Width: 1367
Flags: W
LayerCount: 2
Fore
SplineSet
100 575 m 1,0,-1
 100 780 l 1,1,-1
 232 780 l 1,2,-1
 110 1011 l 1,3,-1
 110 1201 l 1,4,-1
 351 1537 l 1,5,-1
 1026 1537 l 1,6,-1
 1267 1201 l 1,7,-1
 1267 933 l 1,8,-1
 1062 933 l 1,9,-1
 1062 1136 l 1,10,-1
 922 1333 l 1,11,-1
 455 1333 l 1,12,-1
 315 1136 l 1,13,-1
 315 1060 l 1,14,-1
 463 780 l 1,15,-1
 951 780 l 1,16,-1
 951 575 l 1,17,-1
 467 575 l 1,18,-1
 315 287 l 1,19,-1
 315 205 l 1,20,-1
 1267 205 l 1,21,-1
 1267 0 l 1,22,-1
 110 0 l 1,23,-1
 110 337 l 1,24,-1
 236 575 l 1,25,-1
 100 575 l 1,0,-1
EndSplineSet
EndChar

StartChar: yen
Encoding: 165 165 101
Width: 1367
Flags: W
LayerCount: 2
Fore
SplineSet
718 711 m 1,0,-1
 525 711 l 1,1,-1
 313 962 l 1,2,-1
 313 1537 l 1,3,-1
 487 1537 l 1,4,-1
 487 1046 l 1,5,-1
 597 916 l 1,6,-1
 1011 916 l 1,7,-1
 1066 981 l 1,8,-1
 1122 1047 l 1,9,-1
 1122 1537 l 1,10,-1
 1296 1537 l 1,11,-1
 1296 981 l 1,12,-1
 1083 711 l 1,13,-1
 892 711 l 1,14,-1
 892 570 l 1,15,-1
 1087 570 l 1,16,-1
 1087 443 l 1,17,-1
 892 443 l 1,18,-1
 892 321 l 1,19,-1
 1087 321 l 1,20,-1
 1087 194 l 1,21,-1
 892 194 l 1,22,-1
 892 0 l 1,23,-1
 718 0 l 1,24,-1
 718 194 l 1,25,-1
 516 194 l 1,26,-1
 516 321 l 1,27,-1
 718 321 l 1,28,-1
 718 443 l 1,29,-1
 516 443 l 1,30,-1
 516 570 l 1,31,-1
 718 570 l 1,32,-1
 718 711 l 1,0,-1
EndSplineSet
EndChar

StartChar: section
Encoding: 167 167 103
Width: 1367
Flags: W
LayerCount: 2
Fore
SplineSet
839 718 m 1,0,-1
 527 718 l 1,1,-1
 372 502 l 1,2,-1
 372 473 l 1,3,-1
 528 255 l 1,4,-1
 840 255 l 1,5,-1
 994 471 l 1,6,-1
 994 500 l 1,7,-1
 853 697 l 1,8,-1
 839 718 l 1,0,-1
990 -160 m 1,9,-1
 839 51 l 1,10,-1
 424 51 l 1,11,-1
 170 407 l 1,12,-1
 170 566 l 1,13,-1
 352 820 l 1,14,-1
 170 1074 l 1,15,-1
 170 1181 l 1,16,-1
 424 1537 l 1,17,-1
 943 1537 l 1,18,-1
 1228 1138 l 1,19,-1
 1024 1074 l 1,20,-1
 839 1335 l 1,21,-1
 528 1335 l 1,22,-1
 380 1128 l 1,23,-1
 527 922 l 1,24,-1
 943 922 l 1,25,-1
 1197 566 l 1,26,-1
 1197 407 l 1,27,-1
 1015 153 l 1,28,-1
 1197 -101 l 1,29,-1
 1197 -219 l 1,30,-1
 943 -575 l 1,31,-1
 424 -575 l 1,32,-1
 139 -176 l 1,33,-1
 342 -112 l 1,34,-1
 528 -372 l 1,35,-1
 838 -372 l 1,36,-1
 990 -160 l 1,9,-1
EndSplineSet
EndChar

StartChar: dieresis
Encoding: 168 168 104
Width: 1367
Flags: W
LayerCount: 2
Fore
SplineSet
529 1477 m 1,0,-1
 529 1273 l 1,1,-1
 325 1273 l 1,2,-1
 325 1477 l 1,3,-1
 529 1477 l 1,0,-1
1042 1477 m 1,4,-1
 1042 1273 l 1,5,-1
 838 1273 l 1,6,-1
 838 1477 l 1,7,-1
 1042 1477 l 1,4,-1
EndSplineSet
EndChar

StartChar: copyright
Encoding: 169 169 105
Width: 1367
Flags: W
LayerCount: 2
Fore
SplineSet
988 868 m 1,0,-1
 894 774 l 1,1,-1
 783 886 l 1,2,-1
 585 886 l 1,3,-1
 540 841 l 1,4,-1
 540 645 l 1,5,-1
 585 600 l 1,6,-1
 783 600 l 1,7,-1
 894 711 l 1,8,-1
 988 617 l 1,9,-1
 838 467 l 1,10,-1
 530 467 l 1,11,-1
 408 590 l 1,12,-1
 408 896 l 1,13,-1
 530 1019 l 1,14,-1
 838 1019 l 1,15,-1
 941 915 l 1,16,-1
 988 868 l 1,0,-1
300 1126 m 256,18,19
 141 967 141 967 141 743 c 0,20,21
 141 518 141 518 300 359 c 256,22,23
 459 200 459 200 683 200 c 0,24,25
 908 200 908 200 1067 359 c 256,26,27
 1226 518 1226 518 1226 743 c 0,28,29
 1226 967 1226 967 1067 1126 c 256,30,31
 908 1285 908 1285 683 1285 c 0,32,17
 459 1285 459 1285 300 1126 c 256,18,19
973 1032 m 256,33,34
 1093 912 1093 912 1093 743 c 0,35,36
 1093 573 1093 573 973 453 c 256,37,38
 853 333 853 333 683 333 c 0,39,40
 514 333 514 333 394 453 c 256,41,42
 274 573 274 573 274 743 c 0,43,44
 274 912 274 912 394 1032 c 256,45,46
 514 1152 514 1152 683 1152 c 0,47,48
 853 1152 853 1152 973 1032 c 256,33,34
EndSplineSet
EndChar

StartChar: registered
Encoding: 174 174 106
Width: 1367
Flags: W
LayerCount: 2
Fore
SplineSet
1067 1126 m 256,1,2
 1226 967 1226 967 1226 743 c 0,3,4
 1226 518 1226 518 1067 359 c 256,5,6
 908 200 908 200 683 200 c 0,7,8
 459 200 459 200 300 359 c 256,9,10
 141 518 141 518 141 743 c 0,11,12
 141 967 141 967 300 1126 c 256,13,14
 459 1285 459 1285 683 1285 c 0,15,0
 908 1285 908 1285 1067 1126 c 256,1,2
683 1152 m 0,17,18
 514 1152 514 1152 394 1032 c 256,19,20
 274 912 274 912 274 743 c 0,21,22
 274 573 274 573 394 453 c 256,23,24
 514 333 514 333 683 333 c 0,25,26
 853 333 853 333 973 453 c 256,27,28
 1093 573 1093 573 1093 743 c 0,29,30
 1093 912 1093 912 973 1032 c 256,31,16
 853 1152 853 1152 683 1152 c 0,17,18
840 692 m 1,32,-1
 946 797 l 1,33,-1
 946 953 l 1,34,-1
 840 1058 l 1,35,-1
 466 1058 l 1,36,-1
 466 427 l 1,37,-1
 568 427 l 1,38,-1
 568 645 l 1,39,-1
 878 429 l 1,40,-1
 937 513 l 1,41,-1
 680 692 l 1,42,-1
 840 692 l 1,32,-1
568 956 m 1,43,-1
 798 956 l 1,44,-1
 844 911 l 1,45,-1
 844 839 l 1,46,-1
 798 794 l 1,47,-1
 568 794 l 1,48,-1
 568 956 l 1,43,-1
EndSplineSet
EndChar

StartChar: degree
Encoding: 176 176 108
Width: 1367
Flags: W
LayerCount: 2
Fore
SplineSet
975 1467 m 1,1,-1
 975 1467 l 1,2,3
 1088 1354 1088 1354 1088 1195 c 0,4,5
 1088 1035 1088 1035 975 922 c 1,6,-1
 975 922 l 1,7,8
 862 809 862 809 703 809 c 0,9,10
 543 809 543 809 430 922 c 256,11,12
 317 1035 317 1035 317 1195 c 0,13,14
 317 1354 317 1354 430 1467 c 1,15,-1
 430 1467 l 1,16,17
 543 1580 543 1580 703 1580 c 0,18,0
 862 1580 862 1580 975 1467 c 1,1,-1
834 1326 m 1,19,20
 780 1380 780 1380 703 1380 c 0,21,22
 625 1380 625 1380 571 1326 c 256,23,24
 517 1272 517 1272 517 1195 c 0,25,26
 517 1119 517 1119 571 1065 c 0,27,28
 625 1010 625 1010 703 1010 c 0,29,30
 780 1010 780 1010 834 1065 c 1,31,-1
 834 1065 l 1,32,33
 888 1118 888 1118 888 1195 c 256,34,35
 888 1272 888 1272 834 1326 c 1,36,-1
 834 1326 l 1,19,20
EndSplineSet
EndChar

StartChar: plusminus
Encoding: 177 177 109
Width: 1367
Flags: W
LayerCount: 2
Fore
SplineSet
106 763 m 1,0,-1
 106 967 l 1,1,-1
 582 967 l 1,2,-1
 582 1443 l 1,3,-1
 786 1443 l 1,4,-1
 786 967 l 1,5,-1
 1262 967 l 1,6,-1
 1262 763 l 1,7,-1
 786 763 l 1,8,-1
 786 287 l 1,9,-1
 582 287 l 1,10,-1
 582 763 l 1,11,-1
 106 763 l 1,0,-1
166 0 m 1,12,-1
 166 204 l 1,13,-1
 1202 204 l 1,14,-1
 1202 0 l 1,15,-1
 166 0 l 1,12,-1
EndSplineSet
EndChar

StartChar: acute
Encoding: 180 180 110
Width: 1367
Flags: W
LayerCount: 2
Fore
SplineSet
541 1273 m 1,0,-1
 801 1613 l 1,1,-1
 1044 1613 l 1,2,-1
 752 1273 l 1,3,-1
 541 1273 l 1,0,-1
EndSplineSet
EndChar

StartChar: mu
Encoding: 181 181 111
Width: 1367
Flags: W
LayerCount: 2
Fore
SplineSet
310 -381 m 1,0,-1
 106 -381 l 1,1,-1
 106 1157 l 1,2,-1
 310 1157 l 1,3,-1
 310 435 l 1,4,-1
 541 205 l 1,5,-1
 827 205 l 1,6,-1
 1058 435 l 1,7,-1
 1058 1157 l 1,8,-1
 1262 1157 l 1,9,-1
 1262 0 l 1,10,-1
 1058 0 l 1,11,-1
 1058 146 l 1,12,-1
 912 0 l 1,13,-1
 456 0 l 1,14,-1
 310 146 l 1,15,-1
 310 -381 l 1,0,-1
EndSplineSet
EndChar

StartChar: paragraph
Encoding: 182 182 112
Width: 1367
Flags: W
LayerCount: 2
Fore
SplineSet
1210 1635 m 1,0,-1
 1210 1483 l 1,1,-1
 1036 1483 l 1,2,-1
 1036 0 l 1,3,-1
 884 0 l 1,4,-1
 884 1483 l 1,5,-1
 784 1483 l 1,6,-1
 784 0 l 1,7,-1
 632 0 l 1,8,-1
 632 890 l 1,9,-1
 514 771 l 1,10,-1
 376 771 l 1,11,-1
 156 992 l 1,12,-1
 156 1415 l 1,13,-1
 376 1635 l 1,14,-1
 1210 1635 l 1,0,-1
EndSplineSet
EndChar

StartChar: periodcentered
Encoding: 183 183 113
AltUni2: 002219.ffffffff.0
Width: 1367
Flags: W
LayerCount: 2
Fore
SplineSet
355 855 m 1,0,-1
 355 682 l 1,1,-1
 182 682 l 1,2,-1
 182 855 l 1,3,-1
 355 855 l 1,0,-1
EndSplineSet
EndChar

StartChar: cedilla
Encoding: 184 184 114
Width: 1367
Flags: W
LayerCount: 2
Fore
SplineSet
625 -335 m 1,0,1
 625 -359 625 -359 642 -376 c 256,2,3
 659 -393 659 -393 683 -393 c 256,4,5
 707 -393 707 -393 724 -376 c 0,6,7
 740 -359 740 -359 740 -335 c 256,8,9
 740 -311 740 -311 724 -294 c 1,10,-1
 724 -294 l 1,11,12
 707 -278 707 -278 683 -278 c 2,13,-1
 606 -278 l 1,14,-1
 606 9 l 1,15,-1
 760 9 l 1,16,-1
 760 -139 l 1,17,18
 801 -155 801 -155 832 -186 c 1,19,-1
 832 -186 l 1,20,21
 894 -248 894 -248 894 -335 c 0,22,23
 894 -423 894 -423 832 -484 c 0,24,25
 770 -546 770 -546 683 -546 c 0,26,27
 595 -546 595 -546 534 -484 c 0,28,29
 472 -423 472 -423 472 -335 c 1,30,-1
 625 -335 l 1,0,1
EndSplineSet
EndChar

StartChar: AE
Encoding: 198 198 122
Width: 1926
Flags: W
LayerCount: 2
Fore
SplineSet
928 525 m 1,0,-1
 450 525 l 1,1,-1
 450 0 l 1,2,-1
 246 0 l 1,3,-1
 246 1287 l 1,4,-1
 496 1537 l 1,5,-1
 1484 1537 l 1,6,-1
 1777 1245 l 1,7,-1
 1632 1100 l 1,8,-1
 1399 1333 l 1,9,-1
 1132 1333 l 1,10,-1
 1132 871 l 1,11,-1
 1544 871 l 1,12,-1
 1544 666 l 1,13,-1
 1132 666 l 1,14,-1
 1132 204 l 1,15,-1
 1399 204 l 1,16,-1
 1632 437 l 1,17,-1
 1777 293 l 1,18,-1
 1484 0 l 1,19,-1
 928 0 l 1,20,-1
 928 525 l 1,0,-1
928 1202 m 1,21,-1
 797 1333 l 1,22,-1
 581 1333 l 1,23,-1
 450 1202 l 1,24,-1
 450 729 l 1,25,-1
 928 729 l 1,26,-1
 928 1202 l 1,21,-1
EndSplineSet
EndChar

StartChar: Eth
Encoding: 208 208 132
Width: 1367
Flags: W
LayerCount: 2
Fore
SplineSet
206 870 m 1,0,-1
 206 1537 l 1,1,-1
 917 1537 l 1,2,-1
 1262 1192 l 1,3,-1
 1262 346 l 1,4,-1
 917 0 l 1,5,-1
 206 0 l 1,6,-1
 206 668 l 1,7,-1
 6 668 l 1,8,-1
 6 870 l 1,9,-1
 206 870 l 1,0,-1
410 870 m 1,10,-1
 779 870 l 1,11,-1
 779 668 l 1,12,-1
 410 668 l 1,13,-1
 410 205 l 1,14,-1
 832 205 l 1,15,-1
 1058 430 l 1,16,-1
 1058 1107 l 1,17,-1
 832 1333 l 1,18,-1
 410 1333 l 1,19,-1
 410 870 l 1,10,-1
EndSplineSet
EndChar

StartChar: multiply
Encoding: 215 215 139
Width: 1367
Flags: W
LayerCount: 2
Fore
SplineSet
348 284 m 1,0,-1
 203 428 l 1,1,-1
 540 765 l 1,2,-1
 203 1101 l 1,3,-1
 348 1246 l 1,4,-1
 684 909 l 1,5,-1
 1021 1246 l 1,6,-1
 1165 1101 l 1,7,-1
 829 765 l 1,8,-1
 1165 428 l 1,9,-1
 1021 284 l 1,10,-1
 684 620 l 1,11,-1
 348 284 l 1,0,-1
EndSplineSet
EndChar

StartChar: Oslash
Encoding: 216 216 140
Width: 1367
Flags: W
LayerCount: 2
Fore
SplineSet
161 195 m 1,0,-1
 106 250 l 1,1,-1
 106 1287 l 1,2,-1
 356 1537 l 1,3,-1
 1012 1537 l 1,4,-1
 1080 1469 l 1,5,-1
 1129 1536 l 1,6,-1
 1349 1536 l 1,7,-1
 1208 1341 l 1,8,-1
 1262 1287 l 1,9,-1
 1262 250 l 1,10,-1
 1012 0 l 1,11,-1
 356 0 l 1,12,-1
 289 67 l 1,13,-1
 240 0 l 1,14,-1
 20 0 l 1,15,-1
 161 195 l 1,0,-1
1058 1133 m 1,16,-1
 410 236 l 1,17,-1
 441 205 l 1,18,-1
 927 205 l 1,19,-1
 1058 335 l 1,20,-1
 1058 1133 l 1,16,-1
310 402 m 1,21,-1
 959 1301 l 1,22,-1
 927 1333 l 1,23,-1
 441 1333 l 1,24,-1
 310 1202 l 1,25,-1
 310 402 l 1,21,-1
EndSplineSet
EndChar

StartChar: Thorn
Encoding: 222 222 146
Width: 1367
Flags: W
LayerCount: 2
Fore
SplineSet
310 491 m 1,0,-1
 927 491 l 1,1,-1
 1058 621 l 1,2,-1
 1058 932 l 1,3,-1
 927 1063 l 1,4,-1
 310 1063 l 1,5,-1
 310 491 l 1,0,-1
310 1267 m 1,6,-1
 1012 1267 l 1,7,-1
 1262 1017 l 1,8,-1
 1262 536 l 1,9,-1
 1012 286 l 1,10,-1
 310 286 l 1,11,-1
 310 0 l 1,12,-1
 106 0 l 1,13,-1
 106 1537 l 1,14,-1
 310 1537 l 1,15,-1
 310 1267 l 1,6,-1
EndSplineSet
EndChar

StartChar: germandbls
Encoding: 223 223 147
Width: 1367
Flags: W
LayerCount: 2
Fore
SplineSet
492 1364 m 1,0,-1
 317 1189 l 1,1,-1
 317 0 l 1,2,-1
 115 0 l 1,3,-1
 115 1302 l 1,4,-1
 350 1536 l 1,5,-1
 847 1536 l 1,6,-1
 1082 1301 l 1,7,-1
 1082 1032 l 1,8,-1
 898 848 l 1,9,-1
 1242 584 l 1,10,-1
 1242 235 l 1,11,-1
 1007 0 l 1,12,-1
 623 0 l 1,13,-1
 388 235 l 1,14,-1
 388 449 l 1,15,-1
 590 449 l 1,16,-1
 590 347 l 1,17,-1
 765 172 l 1,18,-1
 875 172 l 1,19,-1
 1049 347 l 1,20,-1
 1049 482 l 1,21,-1
 705 747 l 1,22,-1
 639 747 l 1,23,-1
 639 949 l 1,24,-1
 715 949 l 1,25,-1
 889 1124 l 1,26,-1
 889 1189 l 1,27,-1
 715 1364 l 1,28,-1
 492 1364 l 1,0,-1
EndSplineSet
EndChar

StartChar: eth
Encoding: 240 240 164
Width: 1367
Flags: W
LayerCount: 2
Fore
SplineSet
498 763 m 1,0,-1
 323 588 l 1,1,-1
 323 376 l 1,2,-1
 498 201 l 1,3,-1
 870 201 l 1,4,-1
 1045 376 l 1,5,-1
 1045 588 l 1,6,-1
 870 763 l 1,7,-1
 498 763 l 1,0,-1
1093 1351 m 1,8,-1
 1247 1061 l 1,9,-1
 1247 231 l 1,10,-1
 1012 -1 l 1,11,-1
 355 -1 l 1,12,-1
 120 234 l 1,13,-1
 120 731 l 1,14,-1
 355 966 l 1,15,-1
 912 966 l 1,16,-1
 1045 833 l 1,17,-1
 1045 988 l 1,18,-1
 931 1233 l 1,19,-1
 746 1098 l 1,20,-1
 638 1246 l 1,21,-1
 812 1373 l 1,22,-1
 498 1373 l 1,23,-1
 598 1536 l 1,24,-1
 942 1536 l 1,25,-1
 977 1493 l 1,26,-1
 1144 1615 l 1,27,-1
 1252 1467 l 1,28,-1
 1093 1351 l 1,8,-1
EndSplineSet
EndChar

StartChar: oslash
Encoding: 248 248 172
Width: 1367
Flags: W
LayerCount: 2
Fore
SplineSet
973 906 m 1,0,-1
 604 205 l 1,1,-1
 927 205 l 1,2,-1
 1058 335 l 1,3,-1
 1058 822 l 1,4,-1
 973 906 l 1,0,-1
886 1157 m 1,5,-1
 984 1344 l 1,6,-1
 1204 1344 l 1,7,-1
 1073 1096 l 1,8,-1
 1262 906 l 1,9,-1
 1262 250 l 1,10,-1
 1012 0 l 1,11,-1
 496 0 l 1,12,-1
 395 -192 l 1,13,-1
 175 -192 l 1,14,-1
 304 52 l 1,15,-1
 106 250 l 1,16,-1
 106 906 l 1,17,-1
 356 1157 l 1,18,-1
 886 1157 l 1,5,-1
404 242 m 1,19,-1
 778 952 l 1,20,-1
 441 952 l 1,21,-1
 310 822 l 1,22,-1
 310 335 l 1,23,-1
 404 242 l 1,19,-1
EndSplineSet
EndChar

StartChar: thorn
Encoding: 254 254 178
Width: 1367
Flags: W
LayerCount: 2
Fore
SplineSet
312 -381 m 1,0,-1
 107 -381 l 1,1,-1
 107 352 l 1,2,-1
 107 353 l 2,3,4
 107 487 107 487 107 755 c 2,5,-1
 107 1537 l 1,6,-1
 312 1537 l 1,7,-1
 312 1009 l 1,8,-1
 460 1157 l 1,9,-1
 1013 1157 l 1,10,-1
 1263 906 l 1,11,-1
 1263 250 l 1,12,-1
 1013 0 l 1,13,-1
 460 0 l 1,14,-1
 312 148 l 1,15,-1
 312 -381 l 1,0,-1
312 437 m 1,16,-1
 544 205 l 1,17,-1
 928 205 l 1,18,-1
 1059 335 l 1,19,-1
 1059 822 l 1,20,-1
 928 952 l 1,21,-1
 544 952 l 1,22,-1
 312 720 l 1,23,-1
 312 437 l 1,16,-1
EndSplineSet
EndChar

StartChar: dotlessi
Encoding: 305 305 180
Width: 1367
Flags: W
LayerCount: 2
Fore
SplineSet
1262 205 m 1,0,-1
 1262 0 l 1,1,-1
 106 0 l 1,2,-1
 106 205 l 1,3,-1
 582 205 l 1,4,-1
 582 952 l 1,5,-1
 106 952 l 1,6,-1
 106 1157 l 1,7,-1
 786 1157 l 1,8,-1
 786 205 l 1,9,-1
 1262 205 l 1,0,-1
EndSplineSet
EndChar

StartChar: circumflex
Encoding: 710 710 181
Width: 1367
Flags: W
LayerCount: 2
Fore
SplineSet
241 1250 m 1,0,1
 356 1392 356 1392 622 1717 c 1,2,-1
 744 1717 l 1,3,4
 1010 1392 1010 1392 1125 1250 c 1,5,-1
 917 1250 l 1,6,-1
 683 1536 l 1,7,-1
 449 1250 l 1,8,-1
 241 1250 l 1,0,1
EndSplineSet
EndChar

StartChar: caron
Encoding: 711 711 182
Width: 1367
Flags: W
LayerCount: 2
Fore
SplineSet
449 1677 m 1,0,-1
 683 1391 l 1,1,-1
 917 1677 l 1,2,-1
 1125 1677 l 1,3,4
 1010 1535 1010 1535 744 1210 c 1,5,-1
 622 1210 l 1,6,7
 356 1535 356 1535 241 1677 c 1,8,-1
 449 1677 l 1,0,-1
EndSplineSet
EndChar

StartChar: uni02C9
Encoding: 713 713 183
Width: 1367
Flags: W
LayerCount: 2
Fore
SplineSet
390 1304 m 1,0,-1
 390 1466 l 1,1,-1
 977 1466 l 1,2,-1
 977 1304 l 1,3,-1
 390 1304 l 1,0,-1
EndSplineSet
EndChar

StartChar: breve
Encoding: 728 728 184
Width: 1367
Flags: W
LayerCount: 2
Fore
SplineSet
430 1593 m 1,0,1
 430 1457 430 1457 569 1417 c 0,2,3
 622 1401 622 1401 684 1401 c 0,4,5
 745 1401 745 1401 798 1417 c 0,6,7
 937 1457 937 1457 937 1593 c 1,8,-1
 1099 1593 l 1,9,10
 1099 1337 1099 1337 844 1261 c 0,11,12
 767 1238 767 1238 684 1238 c 256,13,14
 601 1238 601 1238 523 1261 c 0,15,16
 268 1337 268 1337 268 1593 c 1,17,-1
 430 1593 l 1,0,1
EndSplineSet
EndChar

StartChar: dotaccent
Encoding: 729 729 185
Width: 1367
Flags: W
LayerCount: 2
Fore
SplineSet
767 1490 m 1,0,-1
 767 1323 l 1,1,-1
 600 1323 l 1,2,-1
 600 1490 l 1,3,-1
 767 1490 l 1,0,-1
EndSplineSet
EndChar

StartChar: ring
Encoding: 730 730 186
Width: 1367
Flags: W
LayerCount: 2
Fore
SplineSet
853 1559 m 128,-1,1
 921 1491 921 1491 921 1394 c 256,2,3
 921 1297 921 1297 853 1228.5 c 128,-1,4
 785 1160 785 1160 688 1160 c 0,5,6
 592 1160 592 1160 523.5 1228.5 c 128,-1,7
 455 1297 455 1297 455 1394 c 256,8,9
 455 1491 455 1491 523.5 1559 c 128,-1,10
 592 1627 592 1627 688 1627 c 0,11,0
 785 1627 785 1627 853 1559 c 128,-1,1
688 1483 m 256,12,13
 651 1483 651 1483 625 1457 c 128,-1,14
 599 1431 599 1431 599 1394 c 256,15,16
 599 1357 599 1357 625 1331 c 128,-1,17
 651 1305 651 1305 688 1305 c 256,18,19
 725 1305 725 1305 751 1331 c 128,-1,20
 777 1357 777 1357 777 1394 c 256,21,22
 777 1431 777 1431 751 1457 c 128,-1,23
 725 1483 725 1483 688 1483 c 256,12,13
EndSplineSet
EndChar

StartChar: ogonek
Encoding: 731 731 187
Width: 1367
Flags: W
LayerCount: 2
Fore
SplineSet
762 -469 m 2,0,1
 663 -469 663 -469 593 -399 c 256,2,3
 523 -329 523 -329 523 -230 c 0,4,5
 523 -132 523 -132 593 -62 c 0,6,7
 662 9 662 9 762 9 c 2,8,-1
 843 9 l 1,9,-1
 843 -154 l 1,10,-1
 762 -154 l 2,11,12
 730 -154 730 -154 708 -176 c 0,13,14
 685 -199 685 -199 685 -230 c 0,15,16
 685 -262 685 -262 708 -285 c 0,17,18
 730 -307 730 -307 762 -307 c 2,19,-1
 843 -307 l 1,20,-1
 843 -469 l 1,21,-1
 762 -469 l 2,0,1
EndSplineSet
EndChar

StartChar: tilde
Encoding: 732 732 188
Width: 1367
Flags: W
LayerCount: 2
Fore
SplineSet
1174 1585 m 1,0,-1
 1174 1546 l 1,1,2
 1165 1405 1165 1405 1084 1323 c 0,3,4
 1002 1238 1002 1238 865 1238 c 0,5,6
 726 1238 726 1238 602 1390 c 0,7,8
 539 1468 539 1468 498 1468 c 0,9,10
 415 1469 415 1469 385 1431 c 0,11,12
 358 1396 358 1396 358 1319 c 2,13,-1
 358 1280 l 1,14,-1
 196 1280 l 1,15,-1
 196 1319 l 2,16,17
 196 1451 196 1451 257 1530 c 0,18,19
 337 1631 337 1631 499 1630 c 0,20,21
 616 1629 616 1629 728 1492 c 0,22,23
 803 1400 803 1400 865 1400 c 0,24,25
 933 1400 933 1400 969 1436 c 0,26,27
 1008 1475 1008 1475 1012 1554 c 1,28,-1
 1012 1585 l 1,29,-1
 1174 1585 l 1,0,-1
EndSplineSet
EndChar

StartChar: quoteleft
Encoding: 8216 8216 190
Width: 1367
Flags: W
LayerCount: 2
Fore
SplineSet
688 1293 m 1,0,-1
 785 1293 l 1,1,-1
 785 1089 l 1,2,-1
 581 1089 l 1,3,-1
 581 1293 l 1,4,-1
 671 1537 l 1,5,-1
 778 1537 l 1,6,-1
 688 1293 l 1,0,-1
EndSplineSet
EndChar

StartChar: quoteright
Encoding: 8217 8217 191
Width: 1367
Flags: W
LayerCount: 2
Fore
SplineSet
679 1333 m 1,0,-1
 582 1333 l 1,1,-1
 582 1537 l 1,2,-1
 786 1537 l 1,3,-1
 786 1333 l 1,4,-1
 696 1089 l 1,5,-1
 589 1089 l 1,6,-1
 679 1333 l 1,0,-1
EndSplineSet
EndChar

StartChar: bullet
Encoding: 8226 8226 196
Width: 1367
Flags: W
LayerCount: 2
Fore
SplineSet
960 994 m 128,-1,1
 1075 879 1075 879 1075 717 c 256,2,3
 1075 555 1075 555 960 440 c 128,-1,4
 845 325 845 325 683 325 c 256,5,6
 521 325 521 325 406 440 c 128,-1,7
 291 555 291 555 291 717 c 256,8,9
 291 879 291 879 406 994 c 128,-1,10
 521 1109 521 1109 683 1109 c 256,11,0
 845 1109 845 1109 960 994 c 128,-1,1
EndSplineSet
EndChar

StartChar: ellipsis
Encoding: 8230 8230 197
Width: 2048
Flags: W
LayerCount: 2
Fore
SplineSet
386 204 m 1,0,-1
 386 0 l 1,1,-1
 182 0 l 1,2,-1
 182 204 l 1,3,-1
 386 204 l 1,0,-1
1069 204 m 1,4,-1
 1069 0 l 1,5,-1
 865 0 l 1,6,-1
 865 204 l 1,7,-1
 1069 204 l 1,4,-1
1752 204 m 1,8,-1
 1752 0 l 1,9,-1
 1548 0 l 1,10,-1
 1548 204 l 1,11,-1
 1752 204 l 1,8,-1
EndSplineSet
EndChar

StartChar: guilsinglleft
Encoding: 8249 8249 198
Width: 1367
Flags: W
LayerCount: 2
Fore
SplineSet
773 906 m 1,0,-1
 936 783 l 1,1,-1
 687 453 l 1,2,-1
 936 123 l 1,3,-1
 773 0 l 1,4,-1
 431 453 l 1,5,-1
 712 825 l 1,6,-1
 773 906 l 1,0,-1
EndSplineSet
EndChar

StartChar: guilsinglright
Encoding: 8250 8250 199
Width: 1367
Flags: W
LayerCount: 2
Fore
SplineSet
431 783 m 1,0,-1
 594 906 l 1,1,-1
 936 453 l 1,2,-1
 594 0 l 1,3,-1
 431 123 l 1,4,-1
 680 453 l 1,5,-1
 493 702 l 1,6,-1
 431 783 l 1,0,-1
EndSplineSet
EndChar

StartChar: franc
Encoding: 8355 8355 200
Width: 1367
Flags: W
LayerCount: 2
Fore
SplineSet
234 445 m 1,0,-1
 234 1537 l 1,1,-1
 1000 1537 l 1,2,-1
 1293 1245 l 1,3,-1
 1148 1100 l 1,4,-1
 915 1333 l 1,5,-1
 438 1333 l 1,6,-1
 438 871 l 1,7,-1
 1060 871 l 1,8,-1
 1060 667 l 1,9,-1
 438 667 l 1,10,-1
 438 445 l 1,11,-1
 813 445 l 1,12,-1
 813 273 l 1,13,-1
 438 273 l 1,14,-1
 438 0 l 1,15,-1
 234 0 l 1,16,-1
 234 273 l 1,17,-1
 14 273 l 1,18,-1
 14 445 l 1,19,-1
 234 445 l 1,0,-1
EndSplineSet
EndChar

StartChar: lira
Encoding: 8356 8356 201
Width: 1367
Flags: W
LayerCount: 2
Fore
SplineSet
100 575 m 1,0,-1
 100 780 l 1,1,-1
 232 780 l 1,2,-1
 110 1011 l 1,3,-1
 110 1201 l 1,4,-1
 351 1537 l 1,5,-1
 1026 1537 l 1,6,-1
 1267 1201 l 1,7,-1
 1267 933 l 1,8,-1
 1062 933 l 1,9,-1
 1062 1136 l 1,10,-1
 922 1333 l 1,11,-1
 455 1333 l 1,12,-1
 315 1136 l 1,13,-1
 315 1060 l 1,14,-1
 463 780 l 1,15,-1
 951 780 l 1,16,-1
 951 575 l 1,17,-1
 467 575 l 1,18,-1
 315 287 l 1,19,-1
 315 205 l 1,20,-1
 1267 205 l 1,21,-1
 1267 0 l 1,22,-1
 110 0 l 1,23,-1
 110 337 l 1,24,-1
 236 575 l 1,25,-1
 100 575 l 1,0,-1
EndSplineSet
EndChar

StartChar: Euro
Encoding: 8364 8364 202
Width: 1367
Flags: W
LayerCount: 2
Fore
SplineSet
84 818 m 1,0,-1
 84 1022 l 1,1,-1
 274 1022 l 1,2,-1
 274 1287 l 1,3,-1
 525 1537 l 1,4,-1
 990 1537 l 1,5,-1
 1283 1245 l 1,6,-1
 1138 1100 l 1,7,-1
 905 1333 l 1,8,-1
 609 1333 l 1,9,-1
 479 1202 l 1,10,-1
 479 1022 l 1,11,-1
 1050 1022 l 1,12,-1
 1050 818 l 1,13,-1
 479 818 l 1,14,-1
 479 720 l 1,15,-1
 1050 720 l 1,16,-1
 1050 515 l 1,17,-1
 479 515 l 1,18,-1
 479 335 l 1,19,-1
 609 205 l 1,20,-1
 905 205 l 1,21,-1
 1066 365 l 1,22,-1
 1138 437 l 1,23,-1
 1283 293 l 1,24,-1
 990 0 l 1,25,-1
 525 0 l 1,26,-1
 274 250 l 1,27,-1
 274 515 l 1,28,-1
 84 515 l 1,29,-1
 84 720 l 1,30,-1
 274 720 l 1,31,-1
 274 818 l 1,32,-1
 84 818 l 1,0,-1
EndSplineSet
EndChar

StartChar: minus
Encoding: 8722 8722 203
Width: 1367
Flags: W
LayerCount: 2
Fore
SplineSet
306 520 m 1,0,-1
 306 724 l 1,1,-1
 1062 724 l 1,2,-1
 1062 520 l 1,3,-1
 306 520 l 1,0,-1
EndSplineSet
Substitution2: "'sinf' Scientific Inferiors in Latin lookup 0 subtable" uni208B
EndChar

StartChar: uni20BA
Encoding: 8378 8378 204
Width: 1482
Flags: W
LayerCount: 2
Fore
SplineSet
495 990 m 1,0,-1
 495 1147 l 1,1,-1
 159 1062 l 1,2,-1
 120 1217 l 1,3,-1
 495 1311 l 1,4,-1
 495 1602 l 1,5,-1
 655 1602 l 1,6,-1
 655 1352 l 1,7,-1
 1001 1439 l 1,8,-1
 1040 1285 l 1,9,-1
 655 1187 l 1,10,-1
 655 1030 l 1,11,-1
 1001 1118 l 1,12,-1
 1040 963 l 1,13,-1
 655 866 l 1,14,-1
 655 171 l 1,15,16
 845 191 845 191 980 295 c 0,17,18
 1186 456 1186 456 1204 785 c 1,19,-1
 1362 776 l 1,20,21
 1336 272 1336 272 952 90 c 0,22,23
 764 0 764 0 572 8 c 2,24,-1
 495 11 l 1,25,-1
 495 826 l 1,26,-1
 159 741 l 1,27,-1
 120 895 l 1,28,-1
 495 990 l 1,0,-1
EndSplineSet
EndChar

StartChar: Aogonek
Encoding: 260 260 209
Width: 1367
Flags: W
LayerCount: 2
Fore
SplineSet
310 729 m 1,0,-1
 1058 729 l 1,1,-1
 1058 1202 l 1,2,-1
 927 1333 l 1,3,-1
 441 1333 l 1,4,-1
 310 1202 l 1,5,-1
 310 729 l 1,0,-1
1058 0 m 1,6,-1
 1058 525 l 1,7,-1
 310 525 l 1,8,-1
 310 0 l 1,9,-1
 106 0 l 1,10,-1
 106 1287 l 1,11,-1
 356 1537 l 1,12,-1
 1012 1537 l 1,13,-1
 1262 1287 l 1,14,-1
 1262 -129 l 1,15,-1
 1181 -129 l 2,16,17
 1150 -129 1150 -129 1127 -151 c 0,18,19
 1104 -174 1104 -174 1104 -205 c 0,20,21
 1104 -237 1104 -237 1128 -260 c 0,22,23
 1150 -282 1150 -282 1181 -282 c 2,24,-1
 1262 -282 l 1,25,-1
 1262 -444 l 1,26,-1
 1181 -444 l 2,27,28
 1082 -444 1082 -444 1012 -374 c 256,29,30
 942 -304 942 -304 942 -205 c 0,31,32
 942 -107 942 -107 1012 -37 c 0,33,34
 1034 -15 1034 -15 1058 0 c 1,6,-1
EndSplineSet
EndChar

StartChar: aogonek
Encoding: 261 261 210
Width: 1367
Flags: W
LayerCount: 2
Fore
SplineSet
1054 400 m 1,0,-1
 922 532 l 1,1,-1
 441 532 l 1,2,-1
 310 402 l 1,3,-1
 310 315 l 1,4,-1
 441 185 l 1,5,-1
 922 185 l 1,6,-1
 1054 316 l 1,7,-1
 1054 400 l 1,0,-1
1058 0 m 1,8,-1
 1058 118 l 1,9,-1
 910 0 l 1,10,-1
 356 0 l 1,11,-1
 106 250 l 1,12,-1
 106 466 l 1,13,-1
 356 717 l 1,14,-1
 910 717 l 1,15,-1
 1058 588 l 1,16,-1
 1058 822 l 1,17,-1
 927 952 l 1,18,-1
 441 952 l 1,19,-1
 310 822 l 1,20,-1
 106 906 l 1,21,-1
 356 1157 l 1,22,-1
 1012 1157 l 1,23,-1
 1262 906 l 1,24,-1
 1262 -129 l 1,25,-1
 1181 -129 l 2,26,27
 1149 -129 1149 -129 1127 -151 c 0,28,29
 1104 -174 1104 -174 1104 -205 c 0,30,31
 1104 -237 1104 -237 1127 -260 c 0,32,33
 1149 -282 1149 -282 1181 -282 c 2,34,-1
 1262 -282 l 1,35,-1
 1262 -444 l 1,36,-1
 1181 -444 l 2,37,38
 1082 -444 1082 -444 1012 -374 c 256,39,40
 942 -304 942 -304 942 -205 c 0,41,42
 942 -107 942 -107 1012 -37 c 0,43,44
 1033 -15 1033 -15 1058 0 c 1,8,-1
EndSplineSet
EndChar

StartChar: dcroat
Encoding: 273 273 222
Width: 1367
Flags: W
LayerCount: 2
Fore
SplineSet
492 882 m 1,0,-1
 361 752 l 1,1,-1
 361 335 l 1,2,-1
 492 205 l 1,3,-1
 776 205 l 1,4,-1
 1009 437 l 1,5,-1
 1009 649 l 1,6,-1
 776 882 l 1,7,-1
 492 882 l 1,0,-1
1009 1387 m 1,8,-1
 1009 1537 l 1,9,-1
 1214 1537 l 1,10,-1
 1214 1387 l 1,11,-1
 1354 1387 l 1,12,-1
 1354 1215 l 1,13,-1
 1214 1215 l 1,14,-1
 1214 0 l 1,15,-1
 1009 0 l 1,16,-1
 1009 148 l 1,17,-1
 861 0 l 1,18,-1
 407 0 l 1,19,-1
 157 250 l 1,20,-1
 157 836 l 1,21,-1
 407 1087 l 1,22,-1
 861 1087 l 1,23,-1
 1009 938 l 1,24,-1
 1009 1215 l 1,25,-1
 551 1215 l 1,26,-1
 551 1387 l 1,27,-1
 1009 1387 l 1,8,-1
EndSplineSet
EndChar

StartChar: Hbar
Encoding: 294 294 243
Width: 1367
Flags: W
LayerCount: 2
Fore
SplineSet
1162 1165 m 1,0,-1
 1162 0 l 1,1,-1
 958 0 l 1,2,-1
 958 667 l 1,3,-1
 410 667 l 1,4,-1
 410 0 l 1,5,-1
 206 0 l 1,6,-1
 206 1165 l 1,7,-1
 56 1165 l 1,8,-1
 56 1337 l 1,9,-1
 206 1337 l 1,10,-1
 206 1537 l 1,11,-1
 410 1537 l 1,12,-1
 410 1337 l 1,13,-1
 958 1337 l 1,14,-1
 958 1537 l 1,15,-1
 1162 1537 l 1,16,-1
 1162 1337 l 1,17,-1
 1305 1337 l 1,18,-1
 1305 1165 l 1,19,-1
 1162 1165 l 1,0,-1
410 1165 m 1,20,-1
 410 871 l 1,21,-1
 958 871 l 1,22,-1
 958 1165 l 1,23,-1
 410 1165 l 1,20,-1
EndSplineSet
EndChar

StartChar: hbar
Encoding: 295 295 244
Width: 1367
Flags: W
LayerCount: 2
Fore
SplineSet
166 1427 m 1,0,-1
 166 1537 l 1,1,-1
 371 1537 l 1,2,-1
 371 1427 l 1,3,-1
 836 1427 l 1,4,-1
 836 1255 l 1,5,-1
 371 1255 l 1,6,-1
 371 1009 l 1,7,-1
 519 1157 l 1,8,-1
 982 1157 l 1,9,-1
 1232 906 l 1,10,-1
 1232 0 l 1,11,-1
 1028 0 l 1,12,-1
 1028 822 l 1,13,-1
 897 952 l 1,14,-1
 603 952 l 1,15,-1
 371 720 l 1,16,-1
 371 0 l 1,17,-1
 166 0 l 1,18,-1
 166 1255 l 1,19,-1
 26 1255 l 1,20,-1
 26 1427 l 1,21,-1
 166 1427 l 1,0,-1
EndSplineSet
EndChar

StartChar: Iogonek
Encoding: 302 302 251
Width: 1367
Flags: W
LayerCount: 2
Fore
SplineSet
1015 0 m 2,0,-1
 106 0 l 1,1,-1
 106 205 l 1,2,-1
 582 205 l 1,3,-1
 582 1333 l 1,4,-1
 106 1333 l 1,5,-1
 106 1537 l 1,6,-1
 1262 1537 l 1,7,-1
 1262 1333 l 1,8,-1
 786 1333 l 1,9,-1
 786 205 l 1,10,-1
 1262 205 l 1,11,-1
 1262 68 l 1,12,-1
 1263 68 l 1,13,-1
 1263 -95 l 1,14,-1
 1182 -95 l 2,15,16
 1150 -95 1150 -95 1128 -118 c 0,17,18
 1105 -140 1105 -140 1105 -171 c 0,19,20
 1105 -203 1105 -203 1128 -226 c 0,21,22
 1150 -248 1150 -248 1182 -248 c 2,23,-1
 1263 -248 l 1,24,-1
 1263 -410 l 1,25,-1
 1182 -410 l 2,26,27
 1082 -410 1082 -410 1013 -341 c 0,28,29
 943 -271 943 -271 943 -171 c 0,30,31
 943 -73 943 -73 1012 -3 c 0,32,33
 1013 -1 1013 -1 1015 0 c 2,0,-1
EndSplineSet
EndChar

StartChar: iogonek
Encoding: 303 303 252
Width: 1367
Flags: W
LayerCount: 2
Fore
SplineSet
786 1537 m 1,0,-1
 786 1333 l 1,1,-1
 582 1333 l 1,2,-1
 582 1537 l 1,3,-1
 786 1537 l 1,0,-1
1014 0 m 2,4,-1
 106 0 l 1,5,-1
 106 205 l 1,6,-1
 582 205 l 1,7,-1
 582 952 l 1,8,-1
 106 952 l 1,9,-1
 106 1157 l 1,10,-1
 786 1157 l 1,11,-1
 786 205 l 1,12,-1
 1262 205 l 1,13,-1
 1262 -95 l 1,14,-1
 1181 -95 l 2,15,16
 1150 -95 1150 -95 1127 -117 c 256,17,18
 1104 -139 1104 -139 1104 -171 c 0,19,20
 1104 -202 1104 -202 1128 -225 c 0,21,22
 1150 -248 1150 -248 1181 -248 c 2,23,-1
 1262 -248 l 1,24,-1
 1262 -410 l 1,25,-1
 1181 -410 l 2,26,27
 1082 -410 1082 -410 1012 -340 c 256,28,29
 942 -270 942 -270 942 -171 c 256,30,31
 942 -72 942 -72 1012 -2 c 0,32,33
 1013 -1 1013 -1 1014 0 c 2,4,-1
EndSplineSet
EndChar

StartChar: Idotaccent
Encoding: 304 304 253
Width: 1367
Flags: W
LayerCount: 2
Fore
SplineSet
1262 205 m 1,0,-1
 1262 0 l 1,1,-1
 106 0 l 1,2,-1
 106 205 l 1,3,-1
 582 205 l 1,4,-1
 582 1333 l 1,5,-1
 106 1333 l 1,6,-1
 106 1537 l 1,7,-1
 1262 1537 l 1,8,-1
 1262 1333 l 1,9,-1
 786 1333 l 1,10,-1
 786 205 l 1,11,-1
 1262 205 l 1,0,-1
768 1870 m 1,12,-1
 768 1703 l 1,13,-1
 601 1703 l 1,14,-1
 601 1870 l 1,15,-1
 768 1870 l 1,12,-1
EndSplineSet
EndChar

StartChar: IJ
Encoding: 306 306 254
Width: 1367
Flags: W
LayerCount: 2
Fore
SplineSet
592 205 m 1,0,-1
 592 0 l 1,1,-1
 36 0 l 1,2,-1
 36 205 l 1,3,-1
 212 205 l 1,4,-1
 212 1333 l 1,5,-1
 36 1333 l 1,6,-1
 36 1537 l 1,7,-1
 592 1537 l 1,8,-1
 592 1333 l 1,9,-1
 416 1333 l 1,10,-1
 416 205 l 1,11,-1
 592 205 l 1,0,-1
563 681 m 1,12,-1
 767 681 l 1,13,-1
 767 335 l 1,14,-1
 898 205 l 1,15,-1
 984 205 l 1,16,-1
 1115 335 l 1,17,-1
 1115 1537 l 1,18,-1
 1319 1537 l 1,19,-1
 1319 250 l 1,20,-1
 1069 0 l 1,21,-1
 813 0 l 1,22,-1
 563 250 l 1,23,-1
 563 681 l 1,12,-1
EndSplineSet
EndChar

StartChar: ij
Encoding: 307 307 255
Width: 1367
Flags: W
LayerCount: 2
Fore
SplineSet
632 205 m 1,0,-1
 632 0 l 1,1,-1
 76 0 l 1,2,-1
 76 205 l 1,3,-1
 252 205 l 1,4,-1
 252 952 l 1,5,-1
 76 952 l 1,6,-1
 76 1157 l 1,7,-1
 456 1157 l 1,8,-1
 456 205 l 1,9,-1
 632 205 l 1,0,-1
456 1537 m 1,10,-1
 456 1333 l 1,11,-1
 252 1333 l 1,12,-1
 252 1537 l 1,13,-1
 456 1537 l 1,10,-1
1299 1157 m 1,14,-1
 1299 952 l 1,15,-1
 1141 952 l 1,16,-1
 1141 -321 l 1,17,-1
 891 -571 l 1,18,-1
 573 -571 l 1,19,-1
 323 -321 l 1,20,-1
 323 -150 l 1,21,-1
 527 -150 l 1,22,-1
 527 -236 l 1,23,-1
 658 -367 l 1,24,-1
 806 -367 l 1,25,-1
 937 -236 l 1,26,-1
 937 952 l 1,27,-1
 761 952 l 1,28,-1
 761 1157 l 1,29,-1
 1299 1157 l 1,14,-1
1141 1537 m 1,30,-1
 1141 1333 l 1,31,-1
 937 1333 l 1,32,-1
 937 1537 l 1,33,-1
 1141 1537 l 1,30,-1
EndSplineSet
EndChar

StartChar: jcircumflex
Encoding: 309 309 257
Width: 1367
Flags: W
LayerCount: 2
Fore
SplineSet
360 1250 m 1,0,1
 474 1392 474 1392 741 1717 c 1,2,-1
 863 1717 l 1,3,4
 1129 1392 1129 1392 1243 1250 c 1,5,-1
 1036 1250 l 1,6,-1
 802 1536 l 1,7,-1
 568 1250 l 1,8,-1
 360 1250 l 1,0,1
1275 1157 m 1,9,-1
 1275 952 l 1,10,-1
 1037 952 l 1,11,-1
 1037 -321 l 1,12,-1
 787 -571 l 1,13,-1
 369 -571 l 1,14,-1
 119 -321 l 1,15,-1
 119 0 l 1,16,-1
 323 0 l 1,17,-1
 323 -236 l 1,18,-1
 454 -367 l 1,19,-1
 702 -367 l 1,20,-1
 833 -236 l 1,21,-1
 833 952 l 1,22,-1
 357 952 l 1,23,-1
 357 1157 l 1,24,-1
 1275 1157 l 1,9,-1
EndSplineSet
EndChar

StartChar: kgreenlandic
Encoding: 312 312 260
Width: 1367
Flags: W
LayerCount: 2
Fore
SplineSet
1052 0 m 1,0,-1
 671 476 l 1,1,-1
 310 476 l 1,2,-1
 310 0 l 1,3,-1
 106 0 l 1,4,-1
 106 1157 l 1,5,-1
 310 1157 l 1,6,-1
 310 681 l 1,7,-1
 901 681 l 1,8,-1
 1091 1157 l 1,9,-1
 1311 1157 l 1,10,-1
 1039 476 l 1,11,-1
 931 476 l 1,12,-1
 1312 0 l 1,13,-1
 1052 0 l 1,0,-1
EndSplineSet
EndChar

StartChar: lcaron
Encoding: 318 318 266
Width: 1367
Flags: W
LayerCount: 2
Fore
SplineSet
1262 205 m 1,0,-1
 1262 0 l 1,1,-1
 105 0 l 1,2,-1
 105 205 l 1,3,-1
 581 205 l 1,4,-1
 581 1333 l 1,5,-1
 105 1333 l 1,6,-1
 105 1537 l 1,7,-1
 785 1537 l 1,8,-1
 785 205 l 1,9,-1
 1262 205 l 1,0,-1
1145 1333 m 1,10,-1
 1048 1333 l 1,11,-1
 1048 1537 l 1,12,-1
 1252 1537 l 1,13,-1
 1252 1333 l 1,14,-1
 1162 1089 l 1,15,-1
 1055 1089 l 1,16,-1
 1145 1333 l 1,10,-1
EndSplineSet
EndChar

StartChar: Ldot
Encoding: 319 319 267
Width: 1367
Flags: W
LayerCount: 2
Fore
SplineSet
1303 293 m 1,0,-1
 1010 0 l 1,1,-1
 104 0 l 1,2,-1
 104 1537 l 1,3,-1
 308 1537 l 1,4,-1
 308 205 l 1,5,-1
 925 205 l 1,6,-1
 1158 437 l 1,7,-1
 1303 293 l 1,0,-1
1250 855 m 1,8,-1
 1250 682 l 1,9,-1
 1077 682 l 1,10,-1
 1077 855 l 1,11,-1
 1250 855 l 1,8,-1
EndSplineSet
EndChar

StartChar: ldot
Encoding: 320 320 268
Width: 1367
Flags: W
LayerCount: 2
Fore
SplineSet
1262 205 m 1,0,-1
 1262 0 l 1,1,-1
 105 0 l 1,2,-1
 105 205 l 1,3,-1
 581 205 l 1,4,-1
 581 1333 l 1,5,-1
 105 1333 l 1,6,-1
 105 1537 l 1,7,-1
 785 1537 l 1,8,-1
 785 205 l 1,9,-1
 1262 205 l 1,0,-1
1235 855 m 1,10,-1
 1235 682 l 1,11,-1
 1062 682 l 1,12,-1
 1062 855 l 1,13,-1
 1235 855 l 1,10,-1
EndSplineSet
EndChar

StartChar: Lslash
Encoding: 321 321 269
Width: 1367
Flags: W
LayerCount: 2
Fore
SplineSet
508 753 m 1,0,-1
 508 205 l 1,1,-1
 925 205 l 1,2,-1
 1158 437 l 1,3,-1
 1303 293 l 1,4,-1
 1010 0 l 1,5,-1
 304 0 l 1,6,-1
 304 676 l 1,7,-1
 107 601 l 1,8,-1
 48 758 l 1,9,-1
 304 855 l 1,10,-1
 304 1537 l 1,11,-1
 508 1537 l 1,12,-1
 508 933 l 1,13,-1
 886 1076 l 1,14,-1
 945 919 l 1,15,-1
 508 753 l 1,0,-1
EndSplineSet
EndChar

StartChar: lslash
Encoding: 322 322 270
Width: 1367
Flags: W
LayerCount: 2
Fore
SplineSet
786 759 m 1,0,-1
 786 205 l 1,1,-1
 1262 205 l 1,2,-1
 1262 0 l 1,3,-1
 105 0 l 1,4,-1
 105 205 l 1,5,-1
 581 205 l 1,6,-1
 581 681 l 1,7,-1
 291 571 l 1,8,-1
 232 728 l 1,9,-1
 581 860 l 1,10,-1
 581 1333 l 1,11,-1
 105 1333 l 1,12,-1
 105 1537 l 1,13,-1
 786 1537 l 1,14,-1
 786 938 l 1,15,-1
 1070 1046 l 1,16,-1
 1129 889 l 1,17,-1
 786 759 l 1,0,-1
EndSplineSet
EndChar

StartChar: napostrophe
Encoding: 329 329 277
Width: 1368
Flags: W
LayerCount: 2
Fore
SplineSet
220 1157 m 1,0,-1
 424 1157 l 1,1,-1
 424 1009 l 1,2,-1
 572 1157 l 1,3,-1
 966 1157 l 1,4,-1
 1216 906 l 1,5,-1
 1216 0 l 1,6,-1
 1012 0 l 1,7,-1
 1012 822 l 1,8,-1
 881 952 l 1,9,-1
 657 952 l 1,10,-1
 424 719 l 1,11,-1
 424 0 l 1,12,-1
 220 0 l 1,13,-1
 220 1157 l 1,0,-1
110 1333 m 1,14,-1
 13 1333 l 1,15,-1
 13 1537 l 1,16,-1
 217 1537 l 1,17,-1
 217 1333 l 1,18,-1
 127 1089 l 1,19,-1
 20 1089 l 1,20,-1
 110 1333 l 1,14,-1
EndSplineSet
EndChar

StartChar: Eng
Encoding: 330 330 278
Width: 1367
Flags: W
LayerCount: 2
Fore
SplineSet
815 0 m 1,0,-1
 798 0 l 1,1,-1
 433 1276 l 1,2,-1
 310 1031 l 1,3,-1
 310 0 l 1,4,-1
 106 0 l 1,5,-1
 106 1077 l 1,6,-1
 336 1537 l 1,7,-1
 571 1537 l 1,8,-1
 935 261 l 1,9,-1
 1058 506 l 1,10,-1
 1058 1537 l 1,11,-1
 1262 1537 l 1,12,-1
 1262 460 l 1,13,-1
 1032 0 l 1,14,-1
 1019 0 l 1,15,-1
 1019 -196 l 1,16,-1
 929 -440 l 1,17,-1
 822 -440 l 1,18,-1
 912 -196 l 1,19,-1
 815 -196 l 1,20,-1
 815 0 l 1,0,-1
EndSplineSet
EndChar

StartChar: eng
Encoding: 331 331 279
Width: 1367
Flags: W
LayerCount: 2
Fore
SplineSet
1058 822 m 1,0,-1
 927 952 l 1,1,-1
 543 952 l 1,2,-1
 310 719 l 1,3,-1
 310 0 l 1,4,-1
 106 0 l 1,5,-1
 106 1157 l 1,6,-1
 310 1157 l 1,7,-1
 310 1009 l 1,8,-1
 458 1157 l 1,9,-1
 1012 1157 l 1,10,-1
 1262 906 l 1,11,-1
 1262 -166 l 1,12,-1
 1172 -410 l 1,13,-1
 1065 -410 l 1,14,-1
 1155 -166 l 1,15,-1
 1058 -166 l 1,16,-1
 1058 822 l 1,0,-1
EndSplineSet
EndChar

StartChar: OE
Encoding: 338 338 286
Width: 1368
Flags: W
LayerCount: 2
Fore
SplineSet
638 46 m 1,0,-1
 592 0 l 1,1,-1
 336 0 l 1,2,-1
 86 250 l 1,3,-1
 86 1287 l 1,4,-1
 336 1537 l 1,5,-1
 592 1537 l 1,6,-1
 638 1491 l 1,7,-1
 638 1537 l 1,8,-1
 1044 1537 l 1,9,-1
 1337 1245 l 1,10,-1
 1192 1100 l 1,11,-1
 959 1333 l 1,12,-1
 843 1333 l 1,13,-1
 843 871 l 1,14,-1
 1104 871 l 1,15,-1
 1104 667 l 1,16,-1
 843 667 l 1,17,-1
 843 205 l 1,18,-1
 959 205 l 1,19,-1
 1192 437 l 1,20,-1
 1337 293 l 1,21,-1
 1044 0 l 1,22,-1
 638 0 l 1,23,-1
 638 46 l 1,0,-1
638 1202 m 1,24,-1
 507 1333 l 1,25,-1
 421 1333 l 1,26,-1
 290 1202 l 1,27,-1
 290 335 l 1,28,-1
 421 205 l 1,29,-1
 507 205 l 1,30,-1
 638 335 l 1,31,-1
 638 1202 l 1,24,-1
EndSplineSet
EndChar

StartChar: oe
Encoding: 339 339 287
Width: 1368
Flags: W
LayerCount: 2
Fore
SplineSet
793 681 m 1,0,-1
 1090 681 l 1,1,-1
 1090 822 l 1,2,-1
 960 952 l 1,3,-1
 923 952 l 1,4,-1
 793 822 l 1,5,-1
 793 681 l 1,0,-1
690 148 m 1,6,-1
 542 0 l 1,7,-1
 326 0 l 1,8,-1
 76 250 l 1,9,-1
 76 906 l 1,10,-1
 326 1157 l 1,11,-1
 542 1157 l 1,12,-1
 690 1008 l 1,13,-1
 838 1157 l 1,14,-1
 1044 1157 l 1,15,-1
 1294 906 l 1,16,-1
 1294 476 l 1,17,-1
 793 476 l 1,18,-1
 793 335 l 1,19,-1
 923 205 l 1,20,-1
 960 205 l 1,21,-1
 1120 365 l 1,22,-1
 1265 221 l 1,23,-1
 1044 0 l 1,24,-1
 838 0 l 1,25,-1
 690 148 l 1,6,-1
588 822 m 1,26,-1
 457 952 l 1,27,-1
 411 952 l 1,28,-1
 280 822 l 1,29,-1
 280 335 l 1,30,-1
 411 205 l 1,31,-1
 457 205 l 1,32,-1
 588 335 l 1,33,-1
 588 822 l 1,26,-1
EndSplineSet
EndChar

StartChar: Scedilla
Encoding: 350 350 298
Width: 1367
Flags: W
LayerCount: 2
Fore
SplineSet
608 0 m 1,0,-1
 346 0 l 1,1,-1
 106 337 l 1,2,-1
 106 502 l 1,3,-1
 310 502 l 1,4,-1
 310 401 l 1,5,-1
 451 205 l 1,6,-1
 917 205 l 1,7,-1
 1058 401 l 1,8,-1
 1058 470 l 1,9,-1
 917 667 l 1,10,-1
 346 667 l 1,11,-1
 106 1003 l 1,12,-1
 106 1201 l 1,13,-1
 346 1537 l 1,14,-1
 1022 1537 l 1,15,-1
 1262 1201 l 1,16,-1
 1262 1035 l 1,17,-1
 1058 1035 l 1,18,-1
 1058 1136 l 1,19,-1
 917 1333 l 1,20,-1
 451 1333 l 1,21,-1
 310 1136 l 1,22,-1
 310 1068 l 1,23,-1
 451 871 l 1,24,-1
 1022 871 l 1,25,-1
 1262 534 l 1,26,-1
 1262 337 l 1,27,-1
 1022 0 l 1,28,-1
 761 0 l 1,29,-1
 761 -50 l 1,30,31
 802 -66 802 -66 834 -98 c 0,32,33
 896 -159 896 -159 896 -247 c 0,34,35
 896 -334 896 -334 834 -396 c 256,36,37
 772 -458 772 -458 685 -458 c 0,38,39
 597 -458 597 -458 535 -396 c 0,40,41
 474 -334 474 -334 474 -247 c 1,42,-1
 627 -247 l 1,43,44
 627 -271 627 -271 644 -287 c 0,45,46
 661 -304 661 -304 685 -304 c 256,47,48
 709 -304 709 -304 725 -287 c 0,49,50
 742 -271 742 -271 742 -247 c 256,51,52
 742 -223 742 -223 725 -206 c 0,53,54
 709 -189 709 -189 685 -189 c 2,55,-1
 608 -189 l 1,56,-1
 608 0 l 1,0,-1
EndSplineSet
EndChar

StartChar: scedilla
Encoding: 351 351 299
Width: 1367
Flags: W
LayerCount: 2
Fore
SplineSet
607 0 m 1,0,-1
 356 0 l 1,1,-1
 106 250 l 1,2,-1
 106 388 l 1,3,-1
 310 388 l 1,4,-1
 310 335 l 1,5,-1
 441 205 l 1,6,-1
 927 205 l 1,7,-1
 1058 335 l 1,8,-1
 1058 346 l 1,9,-1
 927 476 l 1,10,-1
 356 476 l 1,11,-1
 106 726 l 1,12,-1
 106 906 l 1,13,-1
 356 1157 l 1,14,-1
 1012 1157 l 1,15,-1
 1262 906 l 1,16,-1
 1262 769 l 1,17,-1
 1058 769 l 1,18,-1
 1058 822 l 1,19,-1
 927 952 l 1,20,-1
 441 952 l 1,21,-1
 310 822 l 1,22,-1
 310 811 l 1,23,-1
 441 681 l 1,24,-1
 1012 681 l 1,25,-1
 1262 430 l 1,26,-1
 1262 250 l 1,27,-1
 1012 0 l 1,28,-1
 761 0 l 1,29,-1
 761 -40 l 1,30,31
 802 -56 802 -56 833 -87 c 0,32,33
 895 -149 895 -149 895 -236 c 0,34,35
 895 -324 895 -324 833 -385 c 0,36,37
 771 -447 771 -447 684 -447 c 0,38,39
 596 -447 596 -447 535 -385 c 0,40,41
 473 -324 473 -324 473 -236 c 1,42,-1
 626 -236 l 1,43,44
 626 -260 626 -260 643 -277 c 256,45,46
 660 -294 660 -294 684 -294 c 256,47,48
 708 -294 708 -294 725 -277 c 0,49,50
 741 -260 741 -260 741 -236 c 256,51,52
 741 -212 741 -212 725 -195 c 0,53,54
 708 -179 708 -179 684 -179 c 2,55,-1
 607 -179 l 1,56,-1
 607 0 l 1,0,-1
EndSplineSet
EndChar

StartChar: tcaron
Encoding: 357 357 305
Width: 1368
Flags: W
LayerCount: 2
Fore
SplineSet
106 952 m 1,0,-1
 106 1157 l 1,1,-1
 392 1157 l 1,2,-1
 392 1537 l 1,3,-1
 596 1537 l 1,4,-1
 596 1157 l 1,5,-1
 1062 1157 l 1,6,-1
 1062 952 l 1,7,-1
 596 952 l 1,8,-1
 596 335 l 1,9,-1
 727 205 l 1,10,-1
 827 205 l 1,11,-1
 1060 437 l 1,12,-1
 1205 293 l 1,13,-1
 912 0 l 1,14,-1
 642 0 l 1,15,-1
 392 250 l 1,16,-1
 392 952 l 1,17,-1
 106 952 l 1,0,-1
1211 1333 m 1,18,-1
 1114 1333 l 1,19,-1
 1114 1537 l 1,20,-1
 1318 1537 l 1,21,-1
 1318 1333 l 1,22,-1
 1228 1089 l 1,23,-1
 1121 1089 l 1,24,-1
 1211 1333 l 1,18,-1
EndSplineSet
EndChar

StartChar: Tbar
Encoding: 358 358 306
Width: 1367
Flags: W
LayerCount: 2
Fore
SplineSet
585 770 m 1,0,-1
 585 1333 l 1,1,-1
 444 1333 l 1,2,-1
 212 1100 l 1,3,-1
 67 1245 l 1,4,-1
 360 1537 l 1,5,-1
 1015 1537 l 1,6,-1
 1308 1245 l 1,7,-1
 1163 1100 l 1,8,-1
 931 1333 l 1,9,-1
 790 1333 l 1,10,-1
 790 770 l 1,11,-1
 1112 770 l 1,12,-1
 1112 588 l 1,13,-1
 790 588 l 1,14,-1
 790 0 l 1,15,-1
 585 0 l 1,16,-1
 585 588 l 1,17,-1
 263 588 l 1,18,-1
 263 770 l 1,19,-1
 585 770 l 1,0,-1
EndSplineSet
EndChar

StartChar: tbar
Encoding: 359 359 307
Width: 1367
Flags: W
LayerCount: 2
Fore
SplineSet
377 770 m 1,0,-1
 377 952 l 1,1,-1
 91 952 l 1,2,-1
 91 1157 l 1,3,-1
 377 1157 l 1,4,-1
 377 1537 l 1,5,-1
 581 1537 l 1,6,-1
 581 1157 l 1,7,-1
 1247 1157 l 1,8,-1
 1247 952 l 1,9,-1
 581 952 l 1,10,-1
 581 770 l 1,11,-1
 949 770 l 1,12,-1
 949 588 l 1,13,-1
 581 588 l 1,14,-1
 581 335 l 1,15,-1
 712 205 l 1,16,-1
 912 205 l 1,17,-1
 1145 437 l 1,18,-1
 1290 293 l 1,19,-1
 997 0 l 1,20,-1
 627 0 l 1,21,-1
 377 250 l 1,22,-1
 377 588 l 1,23,-1
 98 588 l 1,24,-1
 98 770 l 1,25,-1
 377 770 l 1,0,-1
EndSplineSet
EndChar

StartChar: Uogonek
Encoding: 370 370 318
Width: 1367
Flags: W
LayerCount: 2
Fore
SplineSet
704 0 m 1,0,-1
 356 0 l 1,1,-1
 106 250 l 1,2,-1
 106 1537 l 1,3,-1
 310 1537 l 1,4,-1
 310 335 l 1,5,-1
 441 205 l 1,6,-1
 927 205 l 1,7,-1
 1058 335 l 1,8,-1
 1058 1537 l 1,9,-1
 1262 1537 l 1,10,-1
 1262 250 l 1,11,-1
 1012 0 l 1,12,-1
 931 0 l 2,13,14
 900 0 900 0 877 -22 c 256,15,16
 854 -44 854 -44 854 -76 c 0,17,18
 854 -107 854 -107 878 -130 c 0,19,20
 900 -153 900 -153 931 -153 c 2,21,-1
 1012 -153 l 1,22,-1
 1012 -315 l 1,23,-1
 931 -315 l 2,24,25
 832 -315 832 -315 762 -245 c 256,26,27
 692 -175 692 -175 692 -76 c 0,28,29
 692 -35 692 -35 704 0 c 1,0,-1
EndSplineSet
EndChar

StartChar: uogonek
Encoding: 371 371 319
Width: 1367
Flags: W
LayerCount: 2
Fore
SplineSet
1262 -129 m 1,0,-1
 1181 -129 l 2,1,2
 1149 -129 1149 -129 1127 -151 c 0,3,4
 1104 -174 1104 -174 1104 -205 c 0,5,6
 1104 -237 1104 -237 1127 -260 c 0,7,8
 1149 -282 1149 -282 1181 -282 c 2,9,-1
 1262 -282 l 1,10,-1
 1262 -444 l 1,11,-1
 1181 -444 l 2,12,13
 1082 -444 1082 -444 1012 -374 c 256,14,15
 942 -304 942 -304 942 -205 c 0,16,17
 942 -107 942 -107 1012 -37 c 0,18,19
 1033 -15 1033 -15 1058 0 c 1,20,-1
 1058 148 l 1,21,-1
 910 0 l 1,22,-1
 356 0 l 1,23,-1
 106 250 l 1,24,-1
 106 1157 l 1,25,-1
 310 1157 l 1,26,-1
 310 335 l 1,27,-1
 441 205 l 1,28,-1
 825 205 l 1,29,-1
 1058 437 l 1,30,-1
 1058 1157 l 1,31,-1
 1262 1157 l 1,32,-1
 1262 -129 l 1,0,-1
EndSplineSet
EndChar

StartChar: longs
Encoding: 383 383 331
Width: 1367
Flags: W
LayerCount: 2
Fore
SplineSet
548 205 m 1,0,-1
 844 205 l 1,1,-1
 844 0 l 1,2,-1
 106 0 l 1,3,-1
 106 205 l 1,4,-1
 344 205 l 1,5,-1
 344 1287 l 1,6,-1
 594 1537 l 1,7,-1
 1012 1537 l 1,8,-1
 1262 1287 l 1,9,-1
 1262 952 l 1,10,-1
 1058 952 l 1,11,-1
 1058 1202 l 1,12,-1
 927 1333 l 1,13,-1
 679 1333 l 1,14,-1
 548 1202 l 1,15,-1
 548 205 l 1,0,-1
EndSplineSet
EndChar

StartChar: uni0315
Encoding: 789 789 332
Width: 1367
Flags: W
LayerCount: 2
Fore
SplineSet
678 1333 m 1,0,-1
 581 1333 l 1,1,-1
 581 1537 l 1,2,-1
 785 1537 l 1,3,-1
 785 1333 l 1,4,-1
 695 1089 l 1,5,-1
 588 1089 l 1,6,-1
 678 1333 l 1,0,-1
EndSplineSet
EndChar

StartChar: uni0326
Encoding: 806 806 333
Width: 1367
Flags: W
LayerCount: 2
Fore
SplineSet
679 -352 m 1,0,-1
 582 -352 l 1,1,-1
 582 -148 l 1,2,-1
 786 -148 l 1,3,-1
 786 -352 l 1,4,-1
 696 -596 l 1,5,-1
 589 -596 l 1,6,-1
 679 -352 l 1,0,-1
EndSplineSet
EndChar

StartChar: cent
Encoding: 162 162 334
Width: 1367
Flags: W
LayerCount: 2
Fore
SplineSet
1136 1477 m 1,0,-1
 1302 1359 l 1,1,-1
 1243 1276 l 1,2,-1
 1055 1013 l 1,3,-1
 1209 859 l 1,4,-1
 1065 715 l 1,5,-1
 935 845 l 1,6,-1
 610 390 l 1,7,-1
 832 390 l 1,8,-1
 993 551 l 1,9,-1
 1065 623 l 1,10,-1
 1209 478 l 1,11,-1
 917 186 l 1,12,-1
 464 186 l 1,13,-1
 291 -57 l 1,14,-1
 232 -140 l 1,15,-1
 66 -22 l 1,16,-1
 125 62 l 1,17,-1
 313 324 l 1,18,-1
 201 436 l 1,19,-1
 201 901 l 1,20,-1
 451 1152 l 1,21,-1
 904 1152 l 1,22,-1
 1077 1394 l 1,23,-1
 1136 1477 l 1,0,-1
758 947 m 1,24,-1
 536 947 l 1,25,-1
 406 817 l 1,26,-1
 406 521 l 1,27,-1
 433 493 l 1,28,-1
 758 947 l 1,24,-1
EndSplineSet
EndChar

StartChar: currency
Encoding: 164 164 335
Width: 1367
Flags: W
LayerCount: 2
Fore
SplineSet
897 955 m 1,1,-1
 1036 1093 l 1,2,-1
 1180 949 l 1,3,-1
 1041 811 l 1,4,5
 1100 712 1100 712 1100 597 c 0,6,7
 1100 481 1100 481 1041 383 c 1,8,-1
 1180 245 l 1,9,-1
 1036 100 l 1,10,-1
 897 239 l 1,11,12
 798 179 798 179 682 179 c 0,13,14
 567 179 567 179 469 239 c 1,15,-1
 330 100 l 1,16,-1
 186 245 l 1,17,-1
 325 383 l 1,18,19
 266 482 266 482 266 597 c 256,20,21
 266 712 266 712 325 811 c 1,22,-1
 186 949 l 1,23,-1
 330 1093 l 1,24,-1
 469 955 l 1,25,26
 567 1014 567 1014 682 1014 c 0,27,0
 798 1014 798 1014 897 955 c 1,1,-1
682 810 m 0,29,30
 600 810 600 810 540 755 c 2,31,-1
 525 740 l 1,32,33
 470 679 470 679 470 597 c 0,34,35
 470 514 470 514 525 454 c 2,36,-1
 540 439 l 2,37,38
 600 384 600 384 682 384 c 0,39,40
 771 384 771 384 833 446 c 256,41,42
 895 508 895 508 895 597 c 0,43,44
 895 685 895 685 833 747 c 0,45,28
 771 810 771 810 682 810 c 0,29,30
EndSplineSet
EndChar

StartChar: uni00B2
Encoding: 178 178 336
Width: 1367
Flags: W
LayerCount: 2
Fore
SplineSet
489 738 m 1,0,-1
 1094 738 l 1,1,-1
 1094 575 l 1,2,-1
 290 575 l 1,3,-1
 290 832 l 1,4,-1
 815 1062 l 1,5,-1
 909 1184 l 1,6,-1
 909 1272 l 1,7,-1
 829 1375 l 1,8,-1
 555 1375 l 1,9,-1
 475 1272 l 1,10,-1
 475 1135 l 1,11,-1
 290 1135 l 1,12,-1
 290 1321 l 1,13,-1
 458 1537 l 1,14,-1
 926 1537 l 1,15,-1
 1094 1321 l 1,16,-1
 1094 1134 l 1,17,-1
 940 936 l 1,18,-1
 489 738 l 1,0,-1
EndSplineSet
EndChar

StartChar: uni00B3
Encoding: 179 179 337
Width: 1367
Flags: W
LayerCount: 2
Fore
SplineSet
456 886 m 1,0,-1
 570 738 l 1,1,-1
 844 738 l 1,2,-1
 924 841 l 1,3,-1
 924 872 l 1,4,-1
 844 975 l 1,5,-1
 507 975 l 1,6,-1
 507 1138 l 1,7,-1
 844 1138 l 1,8,-1
 924 1241 l 1,9,-1
 924 1272 l 1,10,-1
 844 1375 l 1,11,-1
 570 1375 l 1,12,-1
 461 1234 l 1,13,-1
 313 1332 l 1,14,-1
 473 1537 l 1,15,-1
 941 1537 l 1,16,-1
 1109 1321 l 1,17,-1
 1109 1192 l 1,18,-1
 1004 1056 l 1,19,-1
 1109 921 l 1,20,-1
 1109 792 l 1,21,-1
 941 575 l 1,22,-1
 473 575 l 1,23,-1
 308 789 l 1,24,-1
 456 886 l 1,0,-1
EndSplineSet
EndChar

StartChar: ordfeminine
Encoding: 170 170 338
Width: 1367
Flags: W
LayerCount: 2
Fore
SplineSet
899 682 m 1,0,-1
 783 575 l 1,1,-1
 581 575 l 1,2,-1
 280 852 l 1,3,-1
 280 1260 l 1,4,-1
 581 1537 l 1,5,-1
 783 1537 l 1,6,-1
 899 1430 l 1,7,-1
 899 1537 l 1,8,-1
 1084 1537 l 1,9,-1
 1084 571 l 1,10,-1
 899 571 l 1,11,-1
 899 682 l 1,0,-1
899 1195 m 1,12,-1
 704 1375 l 1,13,-1
 659 1375 l 1,14,-1
 465 1195 l 1,15,-1
 465 917 l 1,16,-1
 659 738 l 1,17,-1
 704 738 l 1,18,-1
 899 917 l 1,19,-1
 899 1195 l 1,12,-1
EndSplineSet
EndChar

StartChar: logicalnot
Encoding: 172 172 340
Width: 1367
Flags: W
LayerCount: 2
Fore
SplineSet
994 768 m 1,0,-1
 170 768 l 1,1,-1
 170 971 l 1,2,-1
 1197 970 l 1,3,-1
 1197 356 l 1,4,-1
 994 356 l 1,5,-1
 994 768 l 1,0,-1
EndSplineSet
EndChar

StartChar: uni00B9
Encoding: 185 185 341
Width: 1367
Flags: W
LayerCount: 2
Fore
SplineSet
1083 738 m 1,0,-1
 1083 575 l 1,1,-1
 280 575 l 1,2,-1
 280 738 l 1,3,-1
 589 738 l 1,4,-1
 589 1375 l 1,5,-1
 280 1375 l 1,6,-1
 280 1537 l 1,7,-1
 774 1537 l 1,8,-1
 773 738 l 1,9,-1
 1083 738 l 1,0,-1
EndSplineSet
EndChar

StartChar: ordmasculine
Encoding: 186 186 342
Width: 1368
Flags: W
LayerCount: 2
Fore
SplineSet
465 917 m 1,0,-1
 659 738 l 1,1,-1
 704 738 l 1,2,-1
 899 917 l 1,3,-1
 899 1195 l 1,4,-1
 704 1375 l 1,5,-1
 659 1375 l 1,6,-1
 465 1195 l 1,7,-1
 465 917 l 1,0,-1
280 1260 m 1,8,-1
 581 1537 l 1,9,-1
 783 1537 l 1,10,-1
 1084 1260 l 1,11,-1
 1084 852 l 1,12,-1
 783 575 l 1,13,-1
 581 575 l 1,14,-1
 280 852 l 1,15,-1
 280 1260 l 1,8,-1
EndSplineSet
EndChar

StartChar: onequarter
Encoding: 188 188 344
Width: 2474
Flags: W
LayerCount: 2
Fore
SplineSet
983 738 m 1,0,-1
 983 575 l 1,1,-1
 180 575 l 1,2,-1
 180 738 l 1,3,-1
 489 738 l 1,4,-1
 489 1375 l 1,5,-1
 180 1375 l 1,6,-1
 180 1537 l 1,7,-1
 674 1537 l 1,8,-1
 673 738 l 1,9,-1
 983 738 l 1,0,-1
1960 1536 m 1,10,11
 1793 1301 1793 1301 1431 796 c 0,12,13
 978 163 978 163 861 0 c 1,14,-1
 736 0 l 1,15,-1
 1835 1536 l 1,16,-1
 1960 1536 l 1,10,11
1888 449 m 1,17,-1
 1888 639 l 1,18,-1
 1756 449 l 1,19,-1
 1888 449 l 1,17,-1
1524 401 m 1,20,-1
 1929 962 l 1,21,-1
 2073 962 l 1,22,-1
 2073 449 l 1,23,-1
 2320 449 l 1,24,-1
 2320 286 l 1,25,-1
 2073 286 l 1,26,-1
 2073 163 l 1,27,-1
 2320 163 l 1,28,-1
 2320 0 l 1,29,-1
 1634 0 l 1,30,-1
 1634 163 l 1,31,-1
 1888 163 l 1,32,-1
 1888 286 l 1,33,-1
 1524 286 l 1,34,-1
 1524 401 l 1,20,-1
EndSplineSet
Ligature2: "'frac' Diagonal Fractions in Latin lookup 2 subtable" one fraction four
EndChar

StartChar: uni2070
Encoding: 8304 8304 347
Width: 1367
Flags: W
LayerCount: 2
Fore
SplineSet
465 917 m 1,0,-1
 659 738 l 1,1,-1
 704 738 l 1,2,-1
 899 917 l 1,3,-1
 899 1195 l 1,4,-1
 704 1375 l 1,5,-1
 659 1375 l 1,6,-1
 465 1195 l 1,7,-1
 465 917 l 1,0,-1
280 1260 m 1,8,-1
 581 1537 l 1,9,-1
 783 1537 l 1,10,-1
 1084 1260 l 1,11,-1
 1084 852 l 1,12,-1
 783 575 l 1,13,-1
 581 575 l 1,14,-1
 280 852 l 1,15,-1
 280 1260 l 1,8,-1
EndSplineSet
EndChar

StartChar: uni2071
Encoding: 8305 8305 348
Width: 1367
Flags: W
LayerCount: 2
Fore
SplineSet
1094 738 m 1,0,-1
 1094 575 l 1,1,-1
 290 575 l 1,2,-1
 290 738 l 1,3,-1
 599 738 l 1,4,-1
 599 1146 l 1,5,-1
 290 1146 l 1,6,-1
 290 1309 l 1,7,-1
 784 1309 l 1,8,-1
 784 738 l 1,9,-1
 1094 738 l 1,0,-1
784 1537 m 1,10,-1
 784 1375 l 1,11,-1
 599 1375 l 1,12,-1
 599 1537 l 1,13,-1
 784 1537 l 1,10,-1
EndSplineSet
EndChar

StartChar: uni2074
Encoding: 8308 8308 349
Width: 1367
Flags: W
LayerCount: 2
Fore
SplineSet
639 1023 m 1,0,-1
 639 1213 l 1,1,-1
 507 1023 l 1,2,-1
 639 1023 l 1,0,-1
275 975 m 1,3,-1
 680 1537 l 1,4,-1
 824 1537 l 1,5,-1
 824 1023 l 1,6,-1
 1071 1023 l 1,7,-1
 1071 860 l 1,8,-1
 824 860 l 1,9,-1
 824 738 l 1,10,-1
 1071 738 l 1,11,-1
 1071 575 l 1,12,-1
 385 575 l 1,13,-1
 385 738 l 1,14,-1
 639 738 l 1,15,-1
 639 860 l 1,16,-1
 275 860 l 1,17,-1
 275 975 l 1,3,-1
EndSplineSet
EndChar

StartChar: uni2075
Encoding: 8309 8309 350
Width: 1367
Flags: W
LayerCount: 2
Fore
SplineSet
972 1537 m 1,0,-1
 972 1375 l 1,1,-1
 533 1375 l 1,2,-1
 533 1195 l 1,3,-1
 922 1195 l 1,4,-1
 1090 978 l 1,5,-1
 1090 792 l 1,6,-1
 922 575 l 1,7,-1
 454 575 l 1,8,-1
 253 835 l 1,9,-1
 401 932 l 1,10,-1
 551 738 l 1,11,-1
 825 738 l 1,12,-1
 905 841 l 1,13,-1
 905 929 l 1,14,-1
 825 1032 l 1,15,-1
 348 1032 l 1,16,-1
 348 1537 l 1,17,-1
 972 1537 l 1,0,-1
EndSplineSet
EndChar

StartChar: uni2076
Encoding: 8310 8310 351
Width: 1367
Flags: W
LayerCount: 2
Fore
SplineSet
555 1032 m 1,0,-1
 475 928 l 1,1,-1
 475 841 l 1,2,-1
 555 738 l 1,3,-1
 829 738 l 1,4,-1
 909 841 l 1,5,-1
 909 929 l 1,6,-1
 829 1032 l 1,7,-1
 555 1032 l 1,0,-1
945 1537 m 1,8,-1
 681 1194 l 1,9,-1
 926 1194 l 1,10,-1
 1093 978 l 1,11,-1
 1093 792 l 1,12,-1
 926 575 l 1,13,-1
 457 575 l 1,14,-1
 290 792 l 1,15,-1
 290 977 l 1,16,-1
 723 1537 l 1,17,-1
 945 1537 l 1,8,-1
EndSplineSet
EndChar

StartChar: uni2077
Encoding: 8311 8311 352
Width: 1367
Flags: W
LayerCount: 2
Fore
SplineSet
490 575 m 1,0,-1
 885 1180 l 1,1,-1
 885 1271 l 1,2,-1
 805 1375 l 1,3,-1
 531 1375 l 1,4,-1
 380 1180 l 1,5,-1
 233 1278 l 1,6,-1
 433 1537 l 1,7,-1
 902 1537 l 1,8,-1
 1069 1321 l 1,9,-1
 1069 1138 l 1,10,-1
 703 575 l 1,11,-1
 490 575 l 1,0,-1
EndSplineSet
EndChar

StartChar: uni2078
Encoding: 8312 8312 353
Width: 1367
Flags: W
LayerCount: 2
Fore
SplineSet
819 1138 m 1,0,-1
 899 1241 l 1,1,-1
 899 1272 l 1,2,-1
 819 1375 l 1,3,-1
 545 1375 l 1,4,-1
 465 1272 l 1,5,-1
 465 1241 l 1,6,-1
 545 1138 l 1,7,-1
 819 1138 l 1,0,-1
280 1192 m 1,8,-1
 280 1321 l 1,9,-1
 448 1537 l 1,10,-1
 916 1537 l 1,11,-1
 1084 1321 l 1,12,-1
 1084 1192 l 1,13,-1
 979 1056 l 1,14,-1
 1084 921 l 1,15,-1
 1084 792 l 1,16,-1
 916 575 l 1,17,-1
 448 575 l 1,18,-1
 280 792 l 1,19,-1
 280 921 l 1,20,-1
 385 1056 l 1,21,-1
 280 1192 l 1,8,-1
545 975 m 1,22,-1
 465 872 l 1,23,-1
 465 841 l 1,24,-1
 545 738 l 1,25,-1
 819 738 l 1,26,-1
 899 841 l 1,27,-1
 899 872 l 1,28,-1
 819 975 l 1,29,-1
 545 975 l 1,22,-1
EndSplineSet
EndChar

StartChar: uni2079
Encoding: 8313 8313 354
Width: 1367
Flags: W
LayerCount: 2
Fore
SplineSet
899 1271 m 1,0,-1
 819 1375 l 1,1,-1
 545 1375 l 1,2,-1
 465 1271 l 1,3,-1
 465 1183 l 1,4,-1
 545 1080 l 1,5,-1
 819 1080 l 1,6,-1
 899 1183 l 1,7,-1
 899 1271 l 1,0,-1
428 575 m 1,8,-1
 693 917 l 1,9,-1
 447 917 l 1,10,-1
 280 1134 l 1,11,-1
 280 1321 l 1,12,-1
 447 1537 l 1,13,-1
 916 1537 l 1,14,-1
 1083 1321 l 1,15,-1
 1083 1134 l 1,16,-1
 651 575 l 1,17,-1
 428 575 l 1,8,-1
EndSplineSet
EndChar

StartChar: uni207A
Encoding: 8314 8314 355
Width: 1367
Flags: W
LayerCount: 2
Fore
SplineSet
280 895 m 1,0,-1
 280 1057 l 1,1,-1
 589 1057 l 1,2,-1
 589 1343 l 1,3,-1
 774 1343 l 1,4,-1
 774 1057 l 1,5,-1
 1084 1057 l 1,6,-1
 1084 895 l 1,7,-1
 774 895 l 1,8,-1
 774 609 l 1,9,-1
 589 609 l 1,10,-1
 589 895 l 1,11,-1
 280 895 l 1,0,-1
EndSplineSet
EndChar

StartChar: uni207B
Encoding: 8315 8315 356
Width: 1367
Flags: W
LayerCount: 2
Fore
SplineSet
480 561 m 1,0,-1
 480 724 l 1,1,-1
 1024 724 l 1,2,-1
 1024 561 l 1,3,-1
 480 561 l 1,0,-1
EndSplineSet
EndChar

StartChar: uni207C
Encoding: 8316 8316 357
Width: 1367
Flags: W
LayerCount: 2
Fore
SplineSet
394 571 m 1,0,-1
 394 732 l 1,1,-1
 1049 732 l 1,2,-1
 1049 571 l 1,3,-1
 394 571 l 1,0,-1
394 871 m 1,4,-1
 394 1032 l 1,5,-1
 1049 1032 l 1,6,-1
 1049 871 l 1,7,-1
 394 871 l 1,4,-1
EndSplineSet
EndChar

StartChar: uni207D
Encoding: 8317 8317 358
Width: 1367
Flags: W
LayerCount: 2
Fore
SplineSet
1084 1537 m 1,0,-1
 1084 1375 l 1,1,-1
 721 1375 l 1,2,-1
 465 1138 l 1,3,-1
 465 974 l 1,4,-1
 721 738 l 1,5,-1
 1084 738 l 1,6,-1
 1084 575 l 1,7,-1
 642 575 l 1,8,-1
 280 910 l 1,9,-1
 280 1203 l 1,10,-1
 642 1537 l 1,11,-1
 1084 1537 l 1,0,-1
EndSplineSet
EndChar

StartChar: uni207E
Encoding: 8318 8318 359
Width: 1367
Flags: W
LayerCount: 2
Fore
SplineSet
280 1375 m 1,0,-1
 280 1537 l 1,1,-1
 721 1537 l 1,2,-1
 1084 1203 l 1,3,-1
 1084 910 l 1,4,-1
 721 575 l 1,5,-1
 280 575 l 1,6,-1
 280 738 l 1,7,-1
 642 738 l 1,8,-1
 899 974 l 1,9,-1
 899 1138 l 1,10,-1
 642 1375 l 1,11,-1
 280 1375 l 1,0,-1
EndSplineSet
EndChar

StartChar: uni207F
Encoding: 8319 8319 360
Width: 1367
Flags: W
LayerCount: 2
Fore
SplineSet
280 1537 m 1,0,-1
 465 1537 l 1,1,-1
 465 1483 l 1,2,-1
 523 1537 l 1,3,-1
 907 1537 l 1,4,-1
 1084 1374 l 1,5,-1
 1084 803 l 1,6,-1
 899 803 l 1,7,-1
 899 1309 l 1,8,-1
 828 1374 l 1,9,-1
 602 1374 l 1,10,-1
 465 1248 l 1,11,-1
 465 803 l 1,12,-1
 280 803 l 1,13,-1
 280 1537 l 1,0,-1
EndSplineSet
EndChar

StartChar: fraction
Encoding: 8260 8260 376
Width: 382
Flags: W
LayerCount: 2
Fore
SplineSet
793 1536 m 1,0,1
 626 1301 626 1301 264 796 c 0,2,3
 -189 163 -189 163 -306 0 c 1,4,-1
 -431 0 l 1,5,-1
 668 1536 l 1,6,-1
 793 1536 l 1,0,1
EndSplineSet
EndChar
